<svg width="149" height="60" viewBox="0 0 149 60" fill="none" xmlns="http://www.w3.org/2000/svg">
<g clip-path="url(#clip0_105_16173)">
<mask id="mask0_105_16173" style="mask-type:luminance" maskUnits="userSpaceOnUse" x="0" y="0" width="149" height="59">
<path d="M148.221 0.181641H0.03125V58.7691H148.221V0.181641Z" fill="white"/>
</mask>
<g mask="url(#mask0_105_16173)">
<path d="M87.7153 24.2884C87.7153 25.0789 86.7233 25.0789 85.5331 25.0789C84.5412 25.0789 83.4501 25.0789 83.4501 26.7584V34.1682C83.4501 34.761 83.3509 35.6502 82.4582 36.0455C79.9785 37.231 77.102 38.219 72.44 38.219C64.4056 38.219 56.8672 33.3779 56.8672 23.8932C56.8672 14.0134 63.9097 8.08551 73.3328 8.08551C76.3084 8.08551 78.3914 8.5795 80.7719 9.27109C82.5575 9.76508 82.6566 10.4567 82.6566 15.1002C82.6566 15.4954 82.4582 15.4954 82.0615 15.4954C81.0696 15.4954 80.4745 9.46868 73.5311 9.46868C70.357 9.46868 61.5292 10.3579 61.5292 23.3992C61.5292 32.0936 67.8772 36.737 72.936 36.737C74.0271 36.737 75.4157 36.6382 76.5067 36.243C77.9946 35.749 79.3834 35.6502 79.3834 31.3031V28.6355C79.3834 25.7704 79.3834 25.1777 76.7052 25.1777C74.1262 25.1777 73.7294 25.0789 73.7294 24.486C73.7294 23.5969 74.6222 23.5969 75.3165 23.5969C77.2012 23.5969 79.0857 23.6957 80.9704 23.6957C82.855 23.6957 84.8388 23.5969 86.2274 23.5969C87.2193 23.6957 87.7153 23.7944 87.7153 24.2884ZM117.373 36.8358C117.373 37.3298 116.976 37.4285 116.48 37.4285C114.596 37.4285 113.009 37.231 111.223 37.231C109.537 37.231 107.95 37.4285 106.264 37.4285C105.768 37.4285 105.669 37.1322 105.669 36.9347C105.669 36.3418 106.561 36.243 108.148 35.9467C108.446 35.9467 109.24 35.5515 109.24 34.761C109.24 34.4647 109.041 33.9707 108.942 33.5754L106.76 25.968C106.363 24.7824 106.264 24.7824 102.495 24.7824C99.4198 24.7824 98.7255 24.8812 98.527 25.2764C97.4359 27.5488 95.3529 33.9707 95.3529 34.5634C95.3529 35.4527 96.3448 35.8479 96.6425 35.9467C98.031 36.3418 98.9238 36.5395 98.9238 36.8358C98.9238 37.4285 98.2295 37.4285 97.9319 37.4285C96.7416 37.4285 95.2537 37.231 93.9643 37.231C92.2781 37.231 90.4926 37.4285 89.0048 37.4285C88.608 37.4285 88.5089 37.3298 88.5089 36.8358C88.5089 36.243 89.6991 36.3418 90.7902 35.9467C91.6828 35.6502 91.8813 35.255 92.1788 34.761L103.685 7.69031C103.784 7.49272 103.982 7.39392 104.181 7.39392C104.478 7.39392 104.677 7.49272 104.677 7.69031L113.009 32.4887C113.902 35.0574 114.794 35.6502 115.389 35.8478C116.48 36.3418 117.373 36.1442 117.373 36.8358ZM105.669 22.4113C105.669 22.2136 105.569 21.9173 105.47 21.5221L103.09 14.1122C103.09 14.0134 102.991 13.8158 102.792 13.8158C102.693 13.8158 102.594 13.9146 102.594 14.0134L99.6181 21.5221C99.5189 21.8184 99.3206 22.1149 99.3206 22.4113C99.3206 22.6089 102.197 22.6089 102.594 22.6089C102.792 22.7076 105.669 22.7076 105.669 22.4113ZM147.328 36.8358C147.328 37.3298 146.932 37.4285 146.436 37.4285C144.551 37.4285 142.964 37.231 141.179 37.231C139.493 37.231 137.905 37.4285 136.219 37.4285C135.723 37.4285 135.624 37.1322 135.624 36.9347C135.624 36.3418 136.517 36.243 138.104 35.9467C138.401 35.9467 139.195 35.5515 139.195 34.761C139.195 34.4647 138.997 33.9707 138.897 33.5754L136.715 25.968C136.318 24.7824 136.219 24.7824 132.45 24.7824C129.375 24.7824 128.681 24.8812 128.482 25.2764C127.391 27.5488 125.308 33.9707 125.308 34.5634C125.308 35.4527 126.3 35.8479 126.598 35.9467C127.987 36.3418 128.879 36.5395 128.879 36.8358C128.879 37.4285 128.185 37.4285 127.887 37.4285C126.697 37.4285 125.209 37.231 123.92 37.231C122.233 37.231 120.448 37.4285 118.96 37.4285C118.563 37.4285 118.464 37.3298 118.464 36.8358C118.464 36.243 119.654 36.3418 120.746 35.9467C121.638 35.6502 121.837 35.255 122.134 34.761L133.64 7.69031C133.739 7.49272 133.938 7.39392 134.136 7.39392C134.434 7.39392 134.632 7.49272 134.632 7.69031L142.964 32.4887C143.857 35.0574 144.75 35.6502 145.345 35.8478C146.535 36.3418 147.328 36.1442 147.328 36.8358ZM135.624 22.4113C135.624 22.2136 135.525 21.9173 135.426 21.5221L133.045 14.1122C133.045 14.0134 132.946 13.8158 132.748 13.8158C132.648 13.8158 132.549 13.9146 132.549 14.0134L129.574 21.5221C129.474 21.8184 129.276 22.1149 129.276 22.4113C129.276 22.6089 132.152 22.6089 132.549 22.6089C132.748 22.7076 135.624 22.7076 135.624 22.4113ZM6.77618 53.7304C6.77618 53.9279 6.5778 53.9279 6.28023 53.9279C6.08185 53.9279 5.78427 53.9279 5.78427 54.3232V55.9039C5.78427 56.0027 5.78427 56.2003 5.5859 56.299C4.99076 56.5955 4.39562 56.793 3.40371 56.793C1.61829 56.793 0.03125 55.7062 0.03125 53.6315C0.03125 51.4579 1.61829 50.1736 3.70129 50.1736C4.39562 50.1736 4.79237 50.2724 5.38751 50.47C5.78427 50.5688 5.78427 50.7664 5.78427 51.7544C5.78427 51.8531 5.78427 51.8531 5.68509 51.8531C5.48671 51.8531 5.28832 50.5688 3.80048 50.5688C3.10614 50.5688 1.12234 50.7664 1.12234 53.6315C1.12234 55.5087 2.511 56.4967 3.60209 56.4967C3.80048 56.4967 4.19723 56.4967 4.39562 56.3979C4.69318 56.2003 4.99076 56.2003 4.99076 55.2122V54.6195C4.99076 54.0267 4.99076 53.8292 4.39562 53.8292C3.80048 53.8292 3.70129 53.8292 3.70129 53.7304C3.80048 53.5327 3.99885 53.5327 4.09804 53.5327H6.4786C6.67699 53.5327 6.77618 53.6315 6.77618 53.7304ZM10.4462 53.9279C10.4462 54.1255 10.4462 54.1255 10.2478 54.1255H7.86727V54.5207C7.86727 55.4099 8.06565 56.2003 9.25594 56.2003C10.0494 56.2003 10.0494 55.8052 10.1486 55.8052C10.2478 55.8052 10.2478 55.8052 10.2478 55.9039C10.2478 56.0027 9.85108 56.6943 8.75997 56.6943C7.66888 56.6943 7.07374 55.9039 7.07374 54.6195C7.07374 53.6315 7.66888 52.4459 8.85916 52.4459C10.0494 52.4459 10.4462 53.4339 10.4462 53.9279ZM9.85108 53.3351C9.85108 52.9399 9.5535 52.7424 9.15674 52.7424C8.46241 52.7424 8.06565 53.4339 8.06565 53.7304C8.06565 53.8292 8.06565 53.8292 8.95836 53.8292C9.65269 53.8292 9.85108 53.7304 9.85108 53.3351ZM17.7863 56.299C17.6871 56.299 17.5878 56.2003 17.5878 56.0027V53.8292C17.5878 52.7424 16.6952 52.4459 16.1993 52.4459C15.6041 52.4459 15.1081 52.8411 14.9098 53.1376C14.8106 53.0387 14.4138 52.4459 13.7195 52.4459C12.926 52.4459 12.6284 52.7424 12.43 53.0387V52.6436C12.43 52.6436 12.43 52.4459 12.3308 52.4459C12.2316 52.4459 11.4381 52.9399 11.3389 53.0387L11.2397 53.1376C11.2397 53.2364 11.6365 53.3352 11.6365 53.5327V54.9159C11.6365 55.8052 11.6365 56.2003 11.2397 56.299C11.1405 56.299 10.9422 56.299 10.9422 56.3979C10.9422 56.4967 11.0414 56.4967 11.0414 56.4967H12.6284C12.8268 56.4967 12.8268 56.4967 12.8268 56.3979C12.8268 56.3979 12.7276 56.299 12.6284 56.299C12.2316 56.2003 12.2316 56.1015 12.2316 55.2122V53.9279C12.2316 53.4339 12.43 52.9399 13.3227 52.9399C14.2154 52.9399 14.2154 53.5327 14.2154 53.7304V55.1135C14.2154 56.1015 14.2154 56.1015 13.8187 56.299C13.7195 56.299 13.5211 56.299 13.5211 56.3979C13.5211 56.4967 13.5211 56.4967 13.7195 56.4967H15.4057C15.5049 56.4967 15.6041 56.4967 15.6041 56.3979C15.6041 56.299 15.4057 56.299 15.4057 56.299C15.1081 56.2003 15.009 56.2003 15.009 56.1015V53.7304C15.009 53.3352 15.4057 53.0387 16.0009 53.0387C16.8935 53.0387 16.9927 53.6316 16.9927 53.9279V55.3112C16.9927 55.7062 16.9927 56.299 16.6952 56.299C16.3976 56.3979 16.2984 56.3979 16.2984 56.4967C16.2984 56.4967 16.3976 56.5955 16.4967 56.5955H18.2823C18.3814 56.5955 18.4806 56.5955 18.4806 56.4967C18.1831 56.3979 17.9846 56.3979 17.7863 56.299ZM25.4239 56.299C25.3248 56.299 25.2256 56.2003 25.2256 56.0027V53.8292C25.2256 52.7424 24.3328 52.4459 23.8369 52.4459C23.2417 52.4459 22.7458 52.8411 22.5475 53.1376C22.4481 53.0387 22.0515 52.4459 21.3571 52.4459C20.5636 52.4459 20.266 52.7424 20.0676 53.0387V52.6436C20.0676 52.6436 20.0676 52.4459 19.9685 52.4459C19.8693 52.4459 19.0757 52.9399 18.9766 53.0387L18.8774 53.1376C18.8774 53.2364 19.2742 53.3352 19.2742 53.5327V54.9159C19.2742 55.8052 19.2742 56.2003 18.8774 56.299C18.7782 56.299 18.5798 56.299 18.5798 56.3979C18.5798 56.4967 18.6789 56.4967 18.6789 56.4967H20.266C20.4644 56.4967 20.4644 56.4967 20.4644 56.3979C20.4644 56.3979 20.3653 56.299 20.266 56.299C19.8693 56.2003 19.8693 56.1015 19.8693 55.2122V53.9279C19.8693 53.4339 20.0676 52.9399 20.9604 52.9399C21.853 52.9399 21.853 53.5327 21.853 53.7304V55.1135C21.853 56.1015 21.853 56.1015 21.4564 56.299C21.3571 56.299 21.1587 56.299 21.1587 56.3979C21.1587 56.4967 21.1587 56.4967 21.3571 56.4967H23.0434C23.1426 56.4967 23.2417 56.4967 23.2417 56.3979C23.2417 56.299 23.0434 56.299 23.0434 56.299C22.7458 56.2003 22.6466 56.2003 22.6466 56.1015V53.7304C22.6466 53.3352 23.0434 53.0387 23.6385 53.0387C24.5312 53.0387 24.6303 53.6316 24.6303 53.9279V55.3112C24.6303 55.7062 24.6303 56.299 24.3328 56.299C23.936 56.3979 23.8369 56.3979 23.8369 56.4967C23.8369 56.4967 23.936 56.5955 24.0352 56.5955H25.8207C25.9199 56.5955 26.019 56.5955 26.019 56.4967C25.9199 56.3979 25.6222 56.3979 25.4239 56.299ZM30.2842 54.6195C30.2842 55.7062 29.6891 56.793 28.3004 56.793C26.9118 56.793 26.4158 55.8052 26.4158 54.7184C26.4158 53.6315 27.011 52.5447 28.3995 52.5447C29.3915 52.4459 30.2842 53.4339 30.2842 54.6195ZM29.4906 54.5207C29.4906 53.7304 29.094 52.7424 28.3004 52.7424C27.6061 52.7424 27.1101 53.5327 27.1101 54.7184C27.1101 55.5087 27.5069 56.4967 28.3004 56.4967C29.094 56.4967 29.4906 55.7062 29.4906 54.5207ZM32.7641 56.299C32.3673 56.2003 32.1688 56.1015 32.1688 55.9039V50.1736C32.1688 50.0748 32.1688 49.976 32.0696 49.976H31.8713L31.0777 50.2724L30.9785 50.3711C30.9785 50.47 31.4745 50.5688 31.4745 50.7664V55.5087C31.4745 56.1015 31.2762 56.2003 30.9785 56.299C30.8794 56.299 30.7802 56.299 30.7802 56.3979C30.7802 56.4967 30.8794 56.4967 30.8794 56.4967H32.7641C32.8632 56.4967 32.8632 56.4967 32.8632 56.3979C32.8632 56.299 32.8632 56.299 32.7641 56.299ZM37.4259 54.6195C37.4259 55.7062 36.8308 56.793 35.442 56.793C34.0535 56.793 33.5575 55.8052 33.5575 54.7184C33.5575 53.6315 34.1526 52.5447 35.5414 52.5447C36.5331 52.4459 37.4259 53.4339 37.4259 54.6195ZM36.6324 54.5207C36.6324 53.7304 36.2356 52.7424 35.442 52.7424C34.7478 52.7424 34.2518 53.5327 34.2518 54.7184C34.2518 55.5087 34.6486 56.4967 35.442 56.4967C36.2356 56.4967 36.6324 55.7062 36.6324 54.5207ZM42.187 52.9399C42.2862 52.9399 42.2862 53.0387 42.2862 53.2364C42.2862 53.4339 42.2862 53.4339 42.0879 53.4339H41.5919C41.4928 53.4339 41.4928 53.5327 41.4928 53.9279C41.4928 54.1255 41.4928 55.3112 40.0049 55.4099C39.8065 55.4099 39.0129 55.4099 39.0129 55.8052C39.0129 56.0027 39.1121 56.1015 40.104 56.1015C41.096 56.1015 41.9887 56.299 41.9887 57.1883C41.9887 58.4726 40.0049 58.7691 39.4097 58.7691C38.1202 58.7691 37.8227 58.1763 37.8227 57.781C37.8227 57.0895 38.517 56.793 39.1121 56.4967C38.9138 56.3979 38.3187 56.0027 38.3187 55.7062C38.3187 55.4099 39.2113 55.2122 39.4097 55.2122C38.9138 54.8172 38.6161 54.5207 38.6161 53.8292C38.6161 53.0387 39.2113 52.4459 40.104 52.4459C40.4017 52.4459 40.6992 52.5447 40.9968 52.6436C41.2943 52.7424 41.4928 52.8411 41.8894 52.8411H42.187V52.9399ZM38.3187 57.6823C38.3187 58.1763 38.8146 58.4726 39.4097 58.4726C41.096 58.4726 41.4928 57.6823 41.4928 57.3858C41.4928 56.793 40.7983 56.6943 39.7072 56.6943C39.3106 56.6943 39.1121 56.6943 39.1121 56.793C38.8146 56.892 38.3187 57.3858 38.3187 57.6823ZM40.8976 53.9279C40.8976 53.4339 40.7983 52.6436 40.104 52.6436C39.4097 52.6436 39.3106 53.3352 39.3106 53.8292C39.3106 54.3232 39.3106 55.1135 40.104 55.1135C40.6992 55.1135 40.8976 54.6195 40.8976 53.9279ZM44.6669 56.299C44.4684 56.2003 44.2701 56.2003 44.2701 55.9039V52.5447C44.2701 52.4459 44.2701 52.4459 44.1709 52.4459C44.0716 52.4459 44.0716 52.5447 43.5758 52.8411C43.2781 53.0387 43.0798 52.9399 43.0798 53.1376C43.0798 53.3352 43.5758 53.1376 43.5758 53.5327V55.7062C43.5758 56.1015 43.4765 56.2003 43.0798 56.299C42.8813 56.299 42.8813 56.3979 42.8813 56.3979C42.8813 56.4967 42.9805 56.4967 43.0798 56.4967H44.6669C44.766 56.4967 44.8652 56.4967 44.8652 56.3979C44.9643 56.299 44.766 56.299 44.6669 56.299ZM43.9724 51.1616C44.1709 51.1616 44.3692 50.9641 44.3692 50.7664C44.3692 50.5688 44.1709 50.3711 43.9724 50.3711C43.7741 50.3711 43.5758 50.5688 43.5758 50.7664C43.5758 50.8651 43.7741 51.1616 43.9724 51.1616ZM47.8408 52.4459C46.3531 52.4459 45.6586 53.6315 45.6586 54.7184C45.6586 55.7062 46.2538 56.6943 47.5433 56.6943C48.2376 56.6943 48.8327 56.299 48.8327 56.1015C48.8327 56.0027 48.8327 56.0027 48.7336 56.0027C48.6344 56.0027 48.4361 56.2003 47.8408 56.2003C47.0474 56.2003 46.3531 55.8052 46.3531 54.6195C46.3531 53.2364 47.2457 52.6436 47.6425 52.6436C48.1385 52.6436 48.2376 53.1376 48.6344 53.1376C48.8327 53.1376 48.9319 53.0387 48.9319 52.8411C48.8327 52.5447 48.1385 52.4459 47.8408 52.4459ZM52.9988 55.9039C52.9988 56.0027 52.7011 56.4967 52.2052 56.4967C51.8085 56.4967 51.61 56.2003 51.4117 56.0027C51.0149 56.299 50.8166 56.5955 50.1223 56.5955C49.7255 56.5955 49.3287 56.3979 49.3287 55.8052C49.3287 54.7184 50.6183 54.4219 50.7174 54.3232C51.0149 54.2244 51.2134 54.1255 51.4117 54.0267V53.7304C51.4117 53.1376 51.4117 52.7424 50.8166 52.7424C49.8247 52.7424 50.1223 53.9279 49.5272 53.9279C49.3287 53.9279 49.3287 53.8292 49.3287 53.7304C49.3287 53.5327 50.023 52.4459 51.2134 52.4459C52.106 52.4459 52.106 53.0387 52.106 53.3351V55.6075C52.106 55.8052 52.2052 55.9039 52.4036 55.9039C52.7011 55.9039 52.7011 55.7062 52.8004 55.7062C52.8996 55.8052 52.9988 55.8052 52.9988 55.9039ZM51.5109 54.8172C51.5109 54.5207 51.4117 54.4219 51.4117 54.4219C51.4117 54.4219 50.1223 54.7184 50.1223 55.6075C50.1223 55.9039 50.3206 56.2003 50.6183 56.2003C51.2134 56.2003 51.4117 55.7062 51.4117 55.3112V54.8172H51.5109ZM55.2801 56.299C54.8833 56.2003 54.685 56.1015 54.685 55.9039V50.1736C54.685 50.0748 54.685 49.976 54.5858 49.976H54.3875L53.5939 50.2724L53.4947 50.3711C53.4947 50.47 53.9907 50.5688 53.9907 50.7664V55.5087C53.9907 56.1015 53.7922 56.2003 53.4947 56.299C53.3956 56.299 53.2964 56.299 53.2964 56.3979C53.2964 56.4967 53.3956 56.4967 53.3956 56.4967H55.2801C55.3793 56.4967 55.3793 56.4967 55.3793 56.3979C55.3793 56.299 55.3793 56.299 55.2801 56.299ZM64.7033 56.3979C64.7033 56.4967 64.6039 56.4967 64.5048 56.4967H62.2234C62.1243 56.4967 62.1243 56.3979 62.1243 56.3979C62.1243 56.299 62.3226 56.2003 62.7194 56.2003C62.8186 56.2003 62.9177 56.1015 62.9177 55.9039C62.9177 55.8052 62.9177 55.7062 62.8186 55.6075L62.3226 53.9279C62.2234 53.6316 62.2234 53.6315 61.43 53.6315C60.7355 53.6315 60.6364 53.6315 60.5372 53.7304C60.3389 54.2244 59.8429 55.6075 59.8429 55.7062C59.8429 55.9039 60.0413 56.0027 60.1404 56.0027C60.4381 56.1015 60.6364 56.1015 60.6364 56.2003C60.6364 56.299 60.4381 56.299 60.4381 56.299H58.4542C58.355 56.299 58.355 56.299 58.355 56.2003C58.355 56.1015 58.6525 56.1015 58.851 56.0027C59.0493 55.9039 59.0493 55.9039 59.1485 55.7062L61.6283 49.7784L61.7275 49.6796C61.8266 49.6796 61.8266 49.6796 61.8266 49.7784L63.7113 55.2122C63.9097 55.8052 64.108 55.9039 64.2073 55.9039C64.5048 56.299 64.7033 56.299 64.7033 56.3979ZM62.1243 53.3351V53.1376L61.5292 51.4579C61.5292 51.4579 61.5292 51.3591 61.43 51.3591V51.4579L60.7355 53.1376C60.7355 53.2364 60.6364 53.2364 60.6364 53.3351C60.6364 53.4339 61.2315 53.4339 61.3307 53.4339C61.43 53.3352 62.1243 53.3351 62.1243 53.3351ZM65.7943 53.4339C65.7943 53.0387 66.0918 52.8411 66.3895 52.8411C67.1829 52.8411 67.0838 53.6315 67.3814 53.6315C67.4806 53.5327 67.4806 53.5327 67.4806 53.1376C67.4806 52.6436 67.4806 52.5447 66.3895 52.5447C65.4967 52.5447 65.1991 53.1376 65.1991 53.7304C65.1991 54.9159 67.0838 54.9159 67.0838 55.8052C67.0838 56.299 66.687 56.4967 66.2903 56.4967C65.695 56.4967 65.4967 55.9039 65.3975 55.8052C65.3975 55.7062 65.2984 55.5087 65.1991 55.5087C65.0999 55.5087 65.0999 55.6075 65.0999 55.8052V56.299C65.0999 56.6943 65.9927 56.6943 66.2903 56.6943C67.3814 56.6943 67.6789 56.0027 67.6789 55.5087C67.778 54.4219 65.7943 54.1255 65.7943 53.4339ZM69.0676 53.4339C69.0676 53.0387 69.3651 52.8411 69.6627 52.8411C70.4562 52.8411 70.357 53.6315 70.6547 53.6315C70.7538 53.6315 70.7538 53.5327 70.7538 53.1376C70.7538 52.6436 70.7538 52.5447 69.6627 52.5447C68.77 52.5447 68.4725 53.1376 68.4725 53.7304C68.4725 54.9159 70.357 54.9159 70.357 55.8052C70.357 56.299 69.9602 56.4967 69.5636 56.4967C68.9683 56.4967 68.77 55.9039 68.6708 55.8052C68.6708 55.7062 68.5716 55.5087 68.4725 55.5087V56.299C68.4725 56.6943 69.3651 56.6943 69.6627 56.6943C70.7538 56.6943 71.0513 56.0027 71.0513 55.5087C71.0513 54.4219 69.0676 54.1255 69.0676 53.4339ZM75.515 54.6195C75.515 55.7062 74.9197 56.793 73.5311 56.793C72.1424 56.793 71.6464 55.8052 71.6464 54.7184C71.6464 53.6315 72.2417 52.5447 73.6303 52.5447C74.7214 52.4459 75.515 53.4339 75.515 54.6195ZM74.8205 54.5207C74.8205 53.7304 74.4239 52.7424 73.6303 52.7424C72.936 52.7424 72.44 53.5327 72.44 54.7184C72.44 55.5087 72.8368 56.4967 73.6303 56.4967C74.3246 56.4967 74.8205 55.7062 74.8205 54.5207ZM78.2923 52.4459C76.8044 52.4459 76.1101 53.6315 76.1101 54.7184C76.1101 55.7062 76.7052 56.6943 77.9946 56.6943C78.6889 56.6943 79.2842 56.299 79.2842 56.1015C79.2842 56.0027 79.2842 56.0027 79.1849 56.0027C79.0857 56.0027 78.8874 56.2003 78.2923 56.2003C77.4987 56.2003 76.8044 55.8052 76.8044 54.6195C76.8044 53.2364 77.6972 52.6436 78.0938 52.6436C78.5898 52.6436 78.6889 53.1376 79.0857 53.1376C79.2842 53.1376 79.3834 53.0387 79.3834 52.8411C79.2842 52.5447 78.5898 52.4459 78.2923 52.4459ZM81.7639 56.299C81.5655 56.2003 81.3671 56.2003 81.3671 55.9039V52.5447C81.3671 52.4459 81.3671 52.4459 81.2679 52.4459C81.1687 52.4459 81.1687 52.5447 80.6728 52.8411C80.3753 53.0387 80.1768 52.9399 80.1768 53.1376C80.1768 53.3352 80.6728 53.1376 80.6728 53.5327V55.7062C80.6728 56.1015 80.5736 56.2003 80.1768 56.299C79.9785 56.299 79.9785 56.3979 79.9785 56.3979C79.9785 56.4967 80.0777 56.4967 80.1768 56.4967H81.7639C81.863 56.4967 81.9623 56.4967 81.9623 56.3979C81.9623 56.299 81.863 56.299 81.7639 56.299ZM80.9704 51.1616C81.1687 51.1616 81.3671 50.9641 81.3671 50.7664C81.3671 50.5688 81.1687 50.3711 80.9704 50.3711C80.7719 50.3711 80.5736 50.5688 80.5736 50.7664C80.5736 50.8651 80.7719 51.1616 80.9704 51.1616ZM86.2274 55.9039C86.2274 56.0027 85.9299 56.4967 85.4339 56.4967C85.0371 56.4967 84.8388 56.2003 84.6403 56.0027C84.2437 56.299 84.0452 56.5955 83.3509 56.5955C82.9541 56.5955 82.5575 56.3979 82.5575 55.8052C82.5575 54.7184 83.8469 54.4219 83.946 54.3232C84.2437 54.2244 84.442 54.1255 84.6403 54.0267V53.7304C84.6403 53.1376 84.6403 52.7424 84.0452 52.7424C83.0534 52.7424 83.3509 53.9279 82.7558 53.9279C82.5575 53.9279 82.5575 53.8292 82.5575 53.7304C82.5575 53.5327 83.2518 52.4459 84.442 52.4459C85.3348 52.4459 85.3348 53.0387 85.3348 53.3351V55.6075C85.3348 55.8052 85.3348 55.9039 85.6323 55.9039C85.9299 55.9039 85.9299 55.7062 86.0291 55.7062C86.1282 55.8052 86.2274 55.8052 86.2274 55.9039ZM84.7396 54.8172C84.7396 54.5207 84.6403 54.4219 84.6403 54.4219C84.6403 54.4219 83.3509 54.7184 83.3509 55.6075C83.3509 55.9039 83.5492 56.2003 83.8469 56.2003C84.442 56.2003 84.6403 55.7062 84.6403 55.3112V54.8172H84.7396ZM89.0048 52.6436H87.9136C87.8144 52.6436 87.7153 52.6436 87.7153 52.5447V52.1496C87.7153 52.0508 87.7153 51.9519 87.6161 51.9519C87.4178 51.9519 87.5169 52.1496 87.2193 52.5447C87.021 52.8411 86.525 52.9399 86.525 53.0387C86.525 53.1376 86.6242 53.1376 86.6242 53.1376H86.8225C87.021 53.1376 87.021 53.1376 87.021 53.3351V55.5087C87.021 56.299 87.3185 56.5955 88.1121 56.5955C88.8064 56.5955 89.104 56.2003 89.104 56.1015C89.104 56.0027 89.104 56.0027 89.0048 56.0027C88.8064 56.0027 88.8064 56.1015 88.4096 56.1015C87.9136 56.1015 87.7153 55.9039 87.7153 55.4099V53.4339C87.7153 53.1376 87.7153 53.0387 88.0129 53.0387H89.0048C89.2032 53.0387 89.2032 52.9399 89.2032 52.8411C89.2032 52.6436 89.104 52.6436 89.0048 52.6436ZM90.8894 51.1616C91.0877 51.1616 91.2862 50.9641 91.2862 50.7664C91.2862 50.5688 91.0877 50.3711 90.8894 50.3711C90.6911 50.3711 90.4926 50.5688 90.4926 50.7664C90.4926 50.8651 90.6911 51.1616 90.8894 51.1616ZM91.5837 56.299C91.3853 56.2003 91.187 56.2003 91.187 55.9039V52.5447C91.187 52.4459 91.187 52.4459 91.0877 52.4459C90.9885 52.4459 90.9885 52.5447 90.4926 52.8411C90.1951 53.0387 89.9966 52.9399 89.9966 53.1376C89.9966 53.3352 90.4926 53.1376 90.4926 53.5327V55.7062C90.4926 56.1015 90.3934 56.2003 89.9966 56.299C89.7983 56.299 89.7983 56.3979 89.7983 56.3979C89.7983 56.4967 89.8974 56.4967 89.9966 56.4967H91.5837C91.683 56.4967 91.7821 56.4967 91.7821 56.3979C91.8813 56.299 91.683 56.299 91.5837 56.299ZM96.3448 54.6195C96.3448 55.7062 95.7497 56.793 94.361 56.793C92.9724 56.793 92.4764 55.8052 92.4764 54.7184C92.4764 53.6315 93.0715 52.5447 94.4603 52.5447C95.5514 52.4459 96.3448 53.4339 96.3448 54.6195ZM95.6505 54.5207C95.6505 53.7304 95.2537 52.7424 94.4603 52.7424C93.7658 52.7424 93.2699 53.5327 93.2699 54.7184C93.2699 55.5087 93.6667 56.4967 94.4603 56.4967C95.1546 56.4967 95.6505 55.7062 95.6505 54.5207ZM101.106 56.299C100.808 56.299 100.808 56.1015 100.808 55.8052V53.9279C100.808 53.4339 100.808 52.4459 99.5189 52.4459C99.023 52.4459 98.6262 52.6436 98.2295 52.9399V52.4459C98.2295 52.3471 98.2295 52.3471 98.1302 52.3471C98.031 52.3471 97.7336 52.6436 97.5351 52.8411C97.3367 53.0387 97.1384 53.0387 97.1384 53.1376C97.1384 53.3352 97.5351 53.1376 97.5351 53.7304V55.5087C97.5351 56.0027 97.4359 56.2003 97.1384 56.299C97.0391 56.299 97.0391 56.3979 97.0391 56.3979C97.0391 56.4967 97.2376 56.4967 97.3367 56.4967H98.7253C98.8246 56.4967 98.9238 56.4967 98.9238 56.3979C98.9238 56.299 98.7255 56.299 98.6262 56.299C98.2295 56.2003 98.2295 56.1015 98.2295 55.7062V53.4339C98.2295 53.3352 98.7253 52.9399 99.3206 52.9399C100.114 52.9399 100.114 53.6315 100.114 54.0267V55.7062C100.114 56.2003 99.9157 56.299 99.6181 56.299C99.6181 56.299 99.5189 56.299 99.5189 56.3979C99.5189 56.4967 99.6181 56.4967 99.7172 56.4967H101.205C101.304 56.4967 101.403 56.4967 101.403 56.3979C101.403 56.299 101.205 56.299 101.106 56.299ZM108.148 54.6195C108.148 55.7062 107.553 56.793 106.165 56.793C104.776 56.793 104.28 55.8052 104.28 54.7184C104.28 53.6315 104.875 52.5447 106.264 52.5447C107.355 52.4459 108.148 53.4339 108.148 54.6195ZM107.454 54.5207C107.454 53.7304 107.057 52.7424 106.264 52.7424C105.569 52.7424 105.074 53.5327 105.074 54.7184C105.074 55.5087 105.47 56.4967 106.264 56.4967C107.057 56.4967 107.454 55.7062 107.454 54.5207ZM111.422 49.6796C110.132 49.6796 109.636 50.8651 109.537 51.2604C109.438 51.6556 109.339 52.4459 109.339 52.5447C109.24 52.6436 109.041 52.6436 108.942 52.7424C108.843 52.7424 108.744 52.8411 108.744 52.8411C108.744 52.9399 108.843 52.9399 109.041 52.9399C109.14 52.9399 109.339 53.0387 109.339 53.2364V55.7062C109.339 56.0027 109.24 56.1015 108.942 56.2003C108.843 56.2003 108.744 56.2003 108.744 56.299C108.744 56.3979 108.843 56.3979 109.041 56.3979H110.628C110.727 56.3979 110.926 56.3979 110.926 56.299C110.926 56.2003 110.727 56.2003 110.628 56.2003C110.231 56.1015 110.132 56.0027 110.132 55.7062V53.3351C110.132 53.1376 110.132 52.9399 110.331 52.9399H111.223C111.422 52.9399 111.422 52.9399 111.422 52.7424C111.422 52.6436 111.422 52.5447 111.323 52.5447H110.231C110.132 52.5447 110.132 52.3471 110.132 52.2484C110.132 51.3591 110.231 50.0748 111.124 50.0748C111.521 50.0748 111.719 50.3711 111.918 50.3711C112.116 50.3711 112.314 50.2724 112.314 49.976C112.116 49.8773 111.918 49.6796 111.422 49.6796ZM120.051 56.3979C120.051 56.4967 119.952 56.4967 119.853 56.4967H117.571C117.472 56.4967 117.472 56.3979 117.472 56.3979C117.472 56.299 117.671 56.2003 118.067 56.2003C118.167 56.2003 118.266 56.1015 118.266 55.9039C118.266 55.8052 118.266 55.7062 118.167 55.6075L117.671 53.9279C117.571 53.6316 117.571 53.6315 116.778 53.6315C116.084 53.6315 115.984 53.6315 115.885 53.7304C115.687 54.2244 115.191 55.6075 115.191 55.7062C115.191 55.9039 115.389 56.0027 115.489 56.0027C115.786 56.1015 115.984 56.1015 115.984 56.2003C115.984 56.299 115.786 56.299 115.786 56.299H113.802C113.703 56.299 113.703 56.299 113.703 56.2003C113.703 56.1015 114.001 56.1015 114.199 56.0027C114.397 55.9039 114.397 55.9039 114.497 55.7062L116.976 49.7784L117.075 49.6796C117.175 49.6796 117.175 49.6796 117.175 49.7784L119.059 55.2122C119.258 55.8052 119.456 55.9039 119.555 55.9039C119.952 56.299 120.051 56.299 120.051 56.3979ZM117.571 53.3351V53.1376L117.075 51.5568C117.075 51.5568 117.075 51.4579 116.976 51.4579V51.5568L116.282 53.2364C116.282 53.3352 116.183 53.3352 116.183 53.4339C116.183 53.5327 116.778 53.5327 116.877 53.5327C116.877 53.3352 117.571 53.3351 117.571 53.3351ZM124.614 56.2003C124.515 56.2003 124.316 56.2003 124.316 56.0027V52.9399C124.316 52.7424 124.217 52.7424 124.118 52.7424H123.027C122.928 52.7424 122.829 52.7424 122.829 52.8411C122.829 52.9399 123.027 52.9399 123.126 53.0387C123.622 53.1376 123.622 53.1376 123.622 53.2364V55.4099C123.622 55.8052 123.523 56.299 122.432 56.299C121.936 56.299 121.638 56.1015 121.638 55.6075V52.8411C121.638 52.7424 121.638 52.6436 121.539 52.6436H120.746C120.646 52.6436 120.547 52.6436 120.547 52.7424C120.547 52.8411 120.646 52.8411 120.845 52.9399C120.944 52.9399 121.142 53.0387 121.142 53.1376V55.3112C121.142 56.2003 121.44 56.793 122.333 56.793C123.126 56.793 123.523 56.2003 123.721 56.2003C123.721 56.2003 123.821 56.2003 123.821 56.299V56.4967C123.821 56.5955 123.821 56.6943 123.92 56.6943C124.019 56.6943 124.416 56.5955 125.11 56.4967C125.209 56.4967 125.308 56.4967 125.308 56.3979C125.11 56.2003 125.011 56.2003 124.614 56.2003ZM126.102 53.4339C126.102 53.0387 126.399 52.8411 126.697 52.8411C127.491 52.8411 127.391 53.6315 127.689 53.6315C127.788 53.6315 127.788 53.5327 127.788 53.1376C127.788 52.6436 127.788 52.5447 126.697 52.5447C125.804 52.5447 125.507 53.1376 125.507 53.7304C125.507 54.9159 127.391 54.9159 127.391 55.8052C127.391 56.299 126.995 56.4967 126.598 56.4967C126.003 56.4967 125.804 55.9039 125.705 55.8052C125.705 55.7062 125.606 55.5087 125.507 55.5087C125.408 55.5087 125.408 55.6075 125.408 55.8052V56.299C125.408 56.6943 126.3 56.6943 126.598 56.6943C127.689 56.6943 127.987 56.0027 127.987 55.5087C128.086 54.4219 126.102 54.1255 126.102 53.4339ZM131.26 52.6436H130.169C130.069 52.6436 129.97 52.6436 129.97 52.5447V52.1496C129.97 52.0508 129.97 51.9519 129.871 51.9519C129.673 51.9519 129.772 52.1496 129.474 52.5447C129.276 52.8411 128.78 52.9399 128.78 53.0387C128.78 53.1376 128.78 53.1376 128.879 53.1376H129.078C129.276 53.1376 129.276 53.1376 129.276 53.3351V55.5087C129.276 56.299 129.573 56.5955 130.367 56.5955C131.061 56.5955 131.359 56.2003 131.359 56.1015C131.359 56.0027 131.359 56.0027 131.26 56.0027C131.061 56.0027 131.061 56.1015 130.665 56.1015C130.169 56.1015 129.97 55.9039 129.97 55.4099V53.4339C129.97 53.1376 129.97 53.0387 130.268 53.0387H131.26C131.458 53.0387 131.458 52.9399 131.458 52.8411C131.458 52.6436 131.359 52.6436 131.26 52.6436ZM134.434 52.4459C133.938 52.4459 133.541 52.9399 133.442 52.9399C133.343 52.9399 133.343 52.8411 133.343 52.6436V52.3471C133.343 52.2484 133.343 52.2484 133.243 52.2484C133.144 52.2484 132.946 52.5447 132.748 52.7424C132.549 52.9399 132.351 52.9399 132.351 53.0387C132.351 53.2364 132.748 53.1376 132.748 53.8292V55.5087C132.748 56.299 132.549 56.299 132.252 56.299L132.152 56.3979C132.152 56.4967 132.252 56.4967 132.351 56.4967H134.136C134.235 56.4967 134.335 56.4967 134.335 56.3979C134.335 56.299 134.235 56.299 134.235 56.299C133.541 56.299 133.343 56.1015 133.343 55.8052V53.8292C133.343 53.5327 133.442 53.1376 133.839 53.1376C134.037 53.1376 134.235 53.3351 134.533 53.3351C134.731 53.3351 135.029 53.2364 135.029 52.8411C135.029 52.5447 134.632 52.4459 134.434 52.4459ZM138.897 55.9039C138.897 56.0027 138.6 56.4967 138.104 56.4967C137.707 56.4967 137.509 56.2003 137.31 56.0027C136.914 56.299 136.715 56.5955 136.021 56.5955C135.624 56.5955 135.227 56.3979 135.227 55.8052C135.227 54.7184 136.517 54.4219 136.616 54.3232C136.914 54.2244 137.112 54.1255 137.31 54.0267V53.7304C137.31 53.1376 137.31 52.7424 136.715 52.7424C135.723 52.7424 136.021 53.9279 135.426 53.9279C135.227 53.9279 135.227 53.8292 135.227 53.7304C135.227 53.5327 135.922 52.4459 137.112 52.4459C138.005 52.4459 138.005 53.0387 138.005 53.3351V55.6075C138.005 55.8052 138.104 55.9039 138.302 55.9039C138.6 55.9039 138.6 55.7062 138.699 55.7062C138.798 55.8052 138.897 55.8052 138.897 55.9039ZM137.41 54.8172C137.41 54.5207 137.31 54.4219 137.31 54.4219C137.31 54.4219 136.021 54.7184 136.021 55.6075C136.021 55.9039 136.219 56.2003 136.517 56.2003C137.112 56.2003 137.31 55.7062 137.31 55.3112V54.8172H137.41ZM141.179 56.299C140.782 56.2003 140.584 56.1015 140.584 55.9039V50.1736C140.584 50.0748 140.584 49.976 140.484 49.976H140.286L139.493 50.2724L139.393 50.3711C139.393 50.47 139.889 50.5688 139.889 50.7664V55.5087C139.889 56.1015 139.691 56.2003 139.393 56.299C139.294 56.299 139.195 56.299 139.195 56.3979C139.195 56.4967 139.294 56.4967 139.294 56.4967H141.179C141.278 56.4967 141.278 56.4967 141.278 56.3979C141.278 56.299 141.278 56.299 141.179 56.299ZM143.063 51.1616C143.262 51.1616 143.46 50.9641 143.46 50.7664C143.46 50.5688 143.262 50.3711 143.063 50.3711C142.865 50.3711 142.667 50.5688 142.667 50.7664C142.667 50.8651 142.865 51.1616 143.063 51.1616ZM143.758 56.299C143.559 56.2003 143.361 56.2003 143.361 55.9039V52.5447C143.361 52.4459 143.361 52.4459 143.262 52.4459C143.163 52.4459 143.163 52.5447 142.667 52.8411C142.369 53.0387 142.171 52.9399 142.171 53.1376C142.171 53.3352 142.667 53.1376 142.667 53.5327V55.7062C142.667 56.1015 142.567 56.2003 142.171 56.299C142.072 56.299 141.972 56.3979 141.972 56.3979C141.972 56.4967 142.072 56.4967 142.171 56.4967H143.758C143.857 56.4967 143.956 56.4967 143.956 56.3979C143.956 56.299 143.857 56.299 143.758 56.299ZM148.221 55.9039C148.221 56.0027 147.924 56.4967 147.428 56.4967C147.031 56.4967 146.833 56.2003 146.634 56.0027C146.237 56.299 146.039 56.5955 145.345 56.5955C144.948 56.5955 144.551 56.3979 144.551 55.8052C144.551 54.7184 145.841 54.4219 145.94 54.3232C146.237 54.2244 146.436 54.1255 146.634 54.0267V53.7304C146.634 53.1376 146.634 52.7424 146.039 52.7424C145.047 52.7424 145.345 53.9279 144.75 53.9279C144.551 53.9279 144.551 53.8292 144.551 53.7304C144.551 53.5327 145.246 52.4459 146.436 52.4459C147.328 52.4459 147.328 53.0387 147.328 53.3351V55.6075C147.328 55.8052 147.428 55.9039 147.626 55.9039C147.924 55.9039 147.924 55.7062 148.023 55.7062C148.221 55.8052 148.221 55.8052 148.221 55.9039ZM146.733 54.8172C146.733 54.5207 146.634 54.4219 146.634 54.4219C146.634 54.4219 145.345 54.7184 145.345 55.6075C145.345 55.9039 145.543 56.2003 145.841 56.2003C146.436 56.2003 146.634 55.7062 146.634 55.3112V54.8172H146.733ZM46.9482 37.6262C46.849 37.4285 46.7497 37.231 46.5514 37.1322C46.3531 36.9347 46.2538 36.8358 46.0554 36.737C45.8571 36.6382 45.6586 36.6382 45.3612 36.6382C45.1627 36.6382 44.8652 36.6382 44.6669 36.737C44.4684 36.8358 44.2701 36.9347 44.1709 37.1322C43.9724 37.3298 43.8733 37.4285 43.7741 37.6262C43.6749 37.8238 43.6749 38.0215 43.6749 38.3178C43.6749 38.5153 43.6749 38.8118 43.7741 39.0093C43.8733 39.207 43.9724 39.4046 44.1709 39.5033C44.3692 39.701 44.4684 39.7998 44.6669 39.8986C44.8652 39.9973 45.0635 39.9973 45.3612 39.9973C45.5595 39.9973 45.8571 39.9973 46.0554 39.8986C46.2538 39.7998 46.4522 39.701 46.5514 39.5033C46.6506 39.3058 46.849 39.207 46.9482 39.0093C47.0474 38.8118 47.0474 38.6143 47.0474 38.3178C47.0474 38.0215 47.0474 37.8238 46.9482 37.6262ZM46.7497 38.8118C46.6506 39.0093 46.5514 39.1083 46.4522 39.3058C46.3531 39.4046 46.1546 39.5033 46.0554 39.6021C45.8571 39.701 45.6586 39.701 45.4603 39.701C45.262 39.701 45.0635 39.701 44.8652 39.6021C44.6669 39.5033 44.5675 39.4046 44.4684 39.3058C44.3692 39.207 44.2701 39.0093 44.1709 38.8118C44.0716 38.6143 44.0716 38.4166 44.0716 38.219C44.0716 38.0215 44.0716 37.8238 44.1709 37.6262C44.2701 37.4285 44.3692 37.3298 44.4684 37.1322C44.5675 37.0335 44.766 36.9347 44.8652 36.8358C45.0635 36.737 45.262 36.737 45.4603 36.737C45.6586 36.737 45.8571 36.737 46.0554 36.8358C46.2538 36.9347 46.3531 37.0335 46.4522 37.1322C46.5514 37.231 46.6506 37.4285 46.7497 37.6262C46.849 37.8238 46.849 38.0215 46.849 38.219C46.849 38.4166 46.7497 38.6143 46.7497 38.8118ZM45.8571 38.3178C45.9563 38.3178 45.9563 38.219 46.0554 38.219C46.0554 38.219 46.1546 38.1202 46.1546 38.0215V37.8238C46.1546 37.6262 46.0554 37.5275 45.9563 37.4285C45.8571 37.3298 45.6586 37.3298 45.4603 37.3298H44.766V39.207H44.9644V38.3178H45.3612L45.8571 39.207H46.1546L45.6586 38.3178H45.8571ZM45.3612 38.1202H45.0635V37.4285H45.6586C45.758 37.4285 45.758 37.4285 45.758 37.5275L45.8571 37.6262V38.0215L45.758 38.1202H45.3612ZM24.7296 45.53C11.9341 45.53 1.5191 35.3539 1.5191 22.9052C1.5191 10.3579 11.9341 0.181641 24.7296 0.181641C37.5251 0.181641 47.9401 10.3579 47.9401 22.9052C48.0393 35.3539 37.5251 45.53 24.7296 45.53ZM24.7296 0.675632C12.2316 0.675632 2.01506 10.6543 2.01506 22.9052C2.01506 35.1562 12.2316 45.1349 24.8288 45.1349C37.4259 45.1349 47.6425 35.1562 47.6425 22.9052C47.5433 10.6543 37.3267 0.675632 24.7296 0.675632ZM35.6405 17.2737L35.442 17.0762L35.3429 16.8785V16.9773L33.3592 14.9026H15.8024L14.0171 16.7797L13.9179 16.5822L13.8187 16.9773L13.7195 17.0762L10.347 20.6329H9.95025L10.1486 20.8306L9.95025 21.0281H10.347L23.4401 34.0694L23.5392 34.1682H25.9199L38.9138 21.0281H39.3106L39.1121 20.9293L39.3106 20.7316H38.9138L35.6405 17.2737ZM33.1607 15.2978L34.6486 16.7797L33.5575 16.187L31.5736 15.199H33.1607V15.2978ZM30.7802 15.2978L32.9624 16.3845L35.1446 17.4713L34.8469 18.163L33.7558 20.6329L28.9948 17.175L30.7802 15.2978ZM29.2923 20.7316H25.4239L28.598 17.5702L28.7963 18.5581L29.2923 20.7316ZM28.9948 17.669L29.1931 17.8665L33.2599 20.7316H29.6891L28.9948 17.669ZM25.4239 21.1269H29.1931L28.2012 25.7704L25.2256 21.1269H25.4239ZM28.8955 24.8812L29.6891 21.0281H33.4583L28.7963 25.6717L28.8955 24.8812ZM30.2842 15.2978L28.7963 16.7797L28.6972 16.8785L28.4989 16.681V16.7797L25.9199 15.199H30.2842V15.2978ZM24.5312 15.2978H25.2256L28.3995 17.175L26.8127 18.8545L25.0271 20.6329V20.7316L24.5312 20.3365L21.3571 17.3725L23.0434 16.3845L24.5312 15.2978ZM20.0676 20.7316H16.1993L20.6628 17.669L20.0676 20.7316ZM21.1587 17.5702L24.5312 20.7316H20.5636L21.1587 17.5702ZM19.9685 21.1269L20.4644 23.992L20.7619 25.7704L16.0009 21.0281H19.9685V21.1269ZM20.4644 21.1269H24.6303L21.1587 25.8692L20.8612 23.7944L20.4644 21.1269ZM23.7377 15.2978L21.0596 16.9773L20.5636 16.5822L19.2742 15.3966H23.7377V15.2978ZM15.9016 15.2978H17.8855L14.7114 16.681L15.9016 15.2978ZM16.1001 16.4834L18.7782 15.2978L20.4644 16.8785L20.7619 17.175L15.8024 20.6329L15.7033 20.3365L14.4138 17.3725L16.1001 16.4834ZM14.0171 17.7678L15.009 20.0401L15.3065 20.7316H13.1243L14.0171 17.7678ZM13.6203 17.7678L13.5211 17.9653L12.7276 20.6329H10.9422L13.6203 17.7678ZM10.9422 21.1269H12.7276L13.2235 22.0161L15.009 25.2764L10.9422 21.1269ZM13.2235 21.1269H15.3065L15.6041 25.5727L13.2235 21.1269ZM23.7377 33.7731L16.1993 26.2644L15.9016 21.4233L20.9604 26.462L21.0596 26.8572L21.1587 26.7584L23.8369 32.7851L24.3328 33.8719H23.7377V33.7731ZM25.1263 33.7731H24.6303L23.7377 31.7971L21.3571 26.3632L23.0434 23.992L25.0271 21.3246L28.2012 26.3632L25.1263 33.7731ZM33.2599 26.2644L25.7216 33.7731H25.5231L26.4158 31.6983L28.4989 26.6595L28.598 26.7584L28.6972 26.3632L33.6567 21.4233L33.2599 26.2644ZM33.9543 21.1269L34.4503 21.0281H36.1365L33.6567 25.3752L33.9543 21.1269ZM34.1526 25.3752L36.6324 21.0281H38.517L34.1526 25.3752ZM38.4178 20.7316H36.7316L36.6324 20.3365L35.7397 17.9653L38.4178 20.7316ZM36.2356 20.7316H34.1526L35.3429 17.9653L36.2356 20.7316ZM32.0696 6.80113L31.3753 6.50473L32.4664 5.02276L32.0696 6.80113ZM25.0271 3.34319L24.6303 5.12156H25.4239L25.0271 3.34319ZM20.6628 40.0961L21.4564 40.2938L20.6628 41.9734V40.0961ZM13.5211 38.9106L14.9098 37.6262L14.2154 37.231L13.5211 38.9106ZM23.5392 41.8746C23.5392 42.2697 23.7377 42.4674 24.0352 42.4674H24.432L24.5312 41.2818H24.2337C23.8369 41.2818 23.6385 41.3806 23.5392 41.8746ZM9.05755 10.4567C9.35511 10.0615 9.75188 10.2591 10.5454 10.9507C11.3389 11.6423 11.6365 11.9386 11.3389 12.3338C11.0414 12.729 10.6446 12.5314 9.85108 11.8398C9.05755 11.1483 8.75997 10.8519 9.05755 10.4567ZM15.5049 8.7771C15.9016 8.4807 15.8024 8.08551 15.2073 7.19632C14.6122 6.30714 14.3146 6.01074 13.9179 6.20834C13.5211 6.50473 13.6203 6.89993 14.2154 7.78911C14.8106 8.7771 15.1081 9.07349 15.5049 8.7771ZM40.7983 32.1923C39.9057 31.5996 39.5089 31.4019 39.2113 31.8959C38.9138 32.2911 39.2113 32.5874 40.2032 33.1804C41.096 33.7731 41.4928 33.9707 41.7902 33.4767C41.9887 33.0814 41.6911 32.7851 40.7983 32.1923ZM43.179 24.7824C42.0879 24.6837 41.6911 24.6837 41.5919 25.1777C41.4928 25.6717 41.8894 25.7704 42.9805 25.968C44.0716 26.0667 44.4684 26.0668 44.5675 25.5727C44.6669 25.0789 44.2701 24.8812 43.179 24.7824ZM38.8146 11.1483C39.7072 10.4567 40.0049 10.2591 40.3024 10.6543C40.6 11.0495 40.3024 11.3458 39.5089 12.0374C38.6161 12.729 38.3187 12.9266 38.021 12.5314C37.7235 12.1362 38.021 11.8398 38.8146 11.1483ZM43.9724 18.0642L42.0879 18.163L42.2862 18.9533L43.9724 18.0642ZM24.7296 1.56482C12.7276 1.56482 2.90776 11.0495 2.90776 22.8064C2.90776 34.5634 12.6284 44.0481 24.7296 44.0481C36.7316 44.0481 46.5514 34.5634 46.5514 22.8064C46.5514 11.1483 36.8308 1.56482 24.7296 1.56482ZM45.3612 22.0161L44.6669 22.1149L44.5675 21.2256L41.1951 21.6209L41.096 20.8306L44.4684 20.4353L44.3692 19.5461L45.0635 19.4473L45.3612 22.0161ZM44.766 18.3605L41.096 20.4353L40.8976 19.6448L41.6911 19.2498L41.3934 18.2618H40.5008L40.3024 17.4713H44.4684L44.766 18.3605ZM43.9724 15.8905L40.2032 17.3725L39.9057 16.5822L43.6749 15.1002L43.9724 15.8905ZM40.3024 22.9052C40.3024 31.3031 33.3592 38.1202 24.7296 38.1202C16.1001 38.1202 9.15674 31.3031 9.15674 22.9052C9.15674 14.5074 16.1001 7.69031 24.7296 7.69031C33.3592 7.69031 40.3024 14.5074 40.3024 22.9052ZM42.8813 13.223C43.4765 14.211 42.7822 14.705 42.187 15.0014L41.7902 14.3098C42.2862 14.0134 42.4845 13.8158 42.2862 13.5194C42.0879 13.1242 41.6911 13.3218 40.6992 13.8158C39.6081 14.4086 39.5089 14.705 39.7072 15.0014C39.8065 15.2978 40.104 15.3966 40.8976 14.9026L41.2943 15.5942C40.5008 15.9894 39.8065 16.187 39.2113 15.2978C38.6161 14.211 39.3106 13.717 40.4017 13.1242C41.3934 12.4326 42.2862 12.1362 42.8813 13.223ZM40.8976 10.2591C41.6911 11.247 41.096 11.8398 40.104 12.6302C39.1121 13.4206 38.4178 13.8158 37.6244 12.9266C36.8308 11.9386 37.4259 11.3458 38.4178 10.5555C39.3106 9.76508 40.104 9.36989 40.8976 10.2591ZM38.4178 7.78911C38.9138 8.2831 39.1121 8.87589 38.6161 9.46868L38.517 9.56748L37.9219 9.07349C38.2195 8.7771 38.2195 8.5795 38.021 8.2831C37.7235 8.08551 37.5251 8.18431 37.3267 8.2831C37.1284 8.4807 37.1284 8.6783 37.3267 8.97469L37.6244 9.56748C37.9219 10.1603 37.8227 10.5555 37.5251 10.8519C36.9299 11.4446 36.3348 11.4446 35.6405 10.8519C34.9462 10.2591 34.9462 9.66628 35.442 9.07349H35.5414L36.1365 9.56748L36.0373 9.66628C35.7397 9.96268 35.7397 10.1603 36.0373 10.4567C36.2356 10.6543 36.5331 10.6543 36.7316 10.3579C36.9299 10.0615 36.9299 9.86388 36.6324 9.36989C36.2356 8.6783 36.2356 8.2831 36.6324 7.78911C37.2276 7.19632 37.8227 7.29512 38.4178 7.78911ZM33.8551 8.87589C34.0535 8.97469 34.3509 8.97469 34.5494 8.6783C34.7477 8.3819 34.6486 8.18431 34.3509 7.69031C33.8551 7.09752 33.7558 6.70233 34.1526 6.10954C34.5494 5.41795 35.1446 5.31915 35.8388 5.81315C36.434 6.20834 36.7316 6.70233 36.3348 7.39392L36.2356 7.49272L35.5414 7.09752C35.7397 6.70233 35.7397 6.50473 35.442 6.30714C35.1446 6.10954 34.9462 6.30714 34.7478 6.50473C34.6486 6.70233 34.5494 6.89993 34.8469 7.19632L35.2437 7.78911C35.6405 8.3819 35.5414 8.6783 35.3429 9.07349C34.8469 9.76508 34.2518 9.86388 33.4583 9.36989C32.6647 8.87589 32.5656 8.2831 32.9624 7.69031L33.0615 7.59152L33.7558 7.88791V7.98671C33.5575 8.3819 33.4583 8.5795 33.8551 8.87589ZM32.1688 4.13357L33.0615 4.52877L32.4664 8.6783L31.7721 8.2831L31.9705 7.39392L30.9785 6.99873L30.4826 7.69031L29.6891 7.39392L32.1688 4.13357ZM27.2093 2.8492L28.0029 2.94799L27.4078 6.30714L28.7963 6.60353V7.19632L26.6142 6.80113L27.2093 2.8492ZM24.5312 2.6516H25.5231L26.515 6.70233H25.6222L25.4239 5.81315H24.3328L24.1345 6.70233H23.2417L24.5312 2.6516ZM21.6547 2.7504C22.8449 2.5528 23.0434 3.44199 23.1426 4.03478L22.349 4.13357C22.2498 3.54078 22.1507 3.34319 21.7539 3.34319C21.3571 3.44199 21.2579 3.83718 21.4564 4.92396C21.6547 6.10954 21.853 6.30714 22.1507 6.30714C22.4481 6.30714 22.6466 6.10954 22.5475 5.22036L23.3409 5.12156C23.4401 6.01074 23.3409 6.80113 22.2498 6.89993C21.0596 7.09752 20.7619 6.20834 20.5636 5.02276C20.4644 3.83718 20.4644 2.94799 21.6547 2.7504ZM19.5717 3.24439L20.6628 7.09752L19.8693 7.39392L18.7782 3.54078L19.5717 3.24439ZM16.7944 4.13357C17.5878 3.83718 18.1831 4.13357 18.4806 4.82516L17.6871 5.12156C17.5878 4.82516 17.2903 4.52877 16.9927 4.62757C16.5961 4.82516 16.5961 5.22036 16.9927 6.10954C17.3895 6.99873 17.6871 7.59152 18.0838 7.39392C18.2823 7.29512 18.4806 6.99873 18.2823 6.60353L18.0838 6.20834L17.5878 6.40594L17.3895 5.81315L18.5798 5.31915L19.3734 7.29512L18.7782 7.49272L18.8774 7.29512C18.7782 7.69031 18.5798 7.88791 18.2823 7.98671C17.3895 8.3819 16.8935 7.78911 16.3976 6.40594C15.8024 5.22036 15.8024 4.52877 16.7944 4.13357ZM13.5211 5.71435C14.513 5.02276 15.1081 5.71435 15.8024 6.80113C16.4967 7.88791 16.7944 8.6783 15.7033 9.27109C14.7114 9.96268 14.1162 9.27109 13.4219 8.18431C12.8268 7.19632 12.5292 6.40594 13.5211 5.71435ZM10.843 7.88791L13.0251 10.4567L14.1162 9.46868L14.513 9.96268L12.8268 11.4446L10.1486 8.3819L10.843 7.88791ZM8.66079 10.0615C9.4543 9.07349 10.2478 9.56748 11.1405 10.3579C12.1324 11.1483 12.6284 11.8398 11.9341 12.729C11.1405 13.717 10.347 13.223 9.45431 12.4326C8.46241 11.6423 7.86727 10.9507 8.66079 10.0615ZM6.08185 14.211L8.85916 15.0014L6.5778 13.223L7.17294 12.0374L10.7438 13.9146L10.4462 14.6062L7.56969 13.1242L10.1486 15.199L9.85108 15.7917L6.5778 15.0014L9.45431 16.4834L9.15674 17.175L5.5859 15.2978L6.08185 14.211ZM4.49481 18.7558L7.47051 18.9533L4.79237 17.7678L5.08995 16.5822L9.05755 17.5702L8.85916 18.2618L5.68509 17.4713L8.66079 18.9533L8.5616 19.5461L5.28832 19.4473L8.46241 20.2378L8.16483 20.9293L4.19723 19.9413L4.49481 18.7558ZM4.19723 21.0281H4.89157V22.5101H5.88346V21.1269H6.5778V22.5101H7.66888V21.0281H8.36322L8.26402 23.3004L4.19723 23.2016V21.0281ZM4.29643 25.5727C4.19723 24.6837 4.59399 24.2884 5.38751 24.1897L5.48671 24.8812C5.18913 24.8812 4.79237 25.0789 4.89157 25.474C4.99076 25.8692 5.38751 25.968 6.37941 25.8692C7.37132 25.7704 7.96646 25.5727 7.86727 25.0789C7.86727 24.8812 7.56969 24.5849 7.17294 24.6837L6.77618 24.7824L6.87537 25.2764L6.28023 25.3752L5.98266 23.992L8.16483 23.6957L8.26402 24.2884L7.86727 24.3872C8.16483 24.486 8.36322 24.7824 8.46241 25.1777C8.5616 26.1657 7.86727 26.462 6.4786 26.6595C5.18913 26.7584 4.39562 26.5608 4.29643 25.5727ZM5.08995 28.7343L5.68509 28.5368L6.18104 29.8211L7.07374 29.5248L6.5778 28.2403L7.17294 28.0428L7.66888 29.3271L8.66079 28.932L8.16483 27.5488L8.75997 27.3512L9.5535 29.5248L5.88346 30.8091L5.08995 28.7343ZM7.17294 33.1804L8.5616 32.3899L7.96646 31.5996L6.67699 32.3899L6.28023 31.6983L9.75188 29.6236L10.1486 30.3151L8.5616 31.2043L9.05755 31.9946L10.6446 31.1056L11.0414 31.7971L7.56969 33.8719L7.17294 33.1804ZM10.1486 36.1442L9.65269 36.5395L7.96646 34.5634L8.46241 34.1682L9.05755 34.761L11.6365 32.5874L12.1324 33.1804L9.5535 35.3539L10.1486 36.1442ZM12.7276 39.207L14.1162 35.255L14.8106 35.749L14.513 36.5395L15.4057 37.1322L16.0009 36.5395L16.6952 37.0335L13.5211 39.7998L12.7276 39.207ZM15.009 40.5901L16.8935 37.0335L17.5878 37.4285L15.7033 40.9853L15.009 40.5901ZM18.2823 42.0721L17.4887 41.7758L18.6789 38.6143L17.2903 38.1202L17.4887 37.5275L19.5717 38.3178L18.2823 42.0721ZM25.3248 43.0601H23.8369C23.1426 43.0601 22.7458 42.6649 22.8449 41.9734C22.8449 41.4794 23.1426 41.0841 23.5392 40.9853C22.9441 40.8866 22.8449 40.5901 22.8449 39.701C22.8449 39.4046 22.8449 39.207 22.7458 39.0093L20.9604 42.6649L19.9685 42.4674L19.7702 38.3178L20.5636 38.5153V39.4046L21.6547 39.6021L22.0515 38.8118L22.8449 39.0093H23.6385C23.7377 39.1083 23.7377 39.3058 23.7377 39.4046V40.195C23.7377 40.4913 23.8369 40.6889 24.2337 40.6889H24.6303L24.7296 39.0093H25.5231L25.3248 43.0601ZM26.019 43.0601L25.9199 42.3686L26.8127 42.2697L26.4158 38.9106L27.2093 38.8118L27.6061 42.1709L28.4989 42.0721L28.598 42.7637L26.019 43.0601ZM30.4826 42.3686C29.7883 42.5661 29.1931 42.3686 28.9948 41.6769V41.5781L29.7883 41.3806C29.8874 41.7758 30.0859 41.8746 30.3834 41.8746C30.7802 41.7758 30.7802 41.4794 30.681 41.2818C30.5817 41.0841 30.4826 40.8866 30.0859 40.8866L29.3915 40.6889C28.6972 40.5901 28.4989 40.2938 28.3995 39.8986C28.2012 39.1083 28.598 38.6143 29.3915 38.3178C30.2842 38.0215 30.7802 38.4166 30.9785 39.1083V39.3058L30.1851 39.5033V39.4046C30.0859 39.0093 29.8874 38.8118 29.4906 38.9106C29.2923 39.0093 29.094 39.207 29.1931 39.5033C29.2923 39.8986 29.4906 39.8986 30.0859 39.9973C30.8794 39.9973 31.2762 40.195 31.4745 40.8866C31.5737 41.6769 31.2762 42.1709 30.4826 42.3686ZM34.0535 40.8866L32.8632 38.3178C32.6647 37.9226 32.4664 37.725 32.1688 37.9226C31.8713 38.1202 31.8713 38.4166 32.0696 38.713L33.2599 41.2818L32.4664 41.6769L31.2762 39.1083C30.8794 38.219 31.2762 37.6262 31.8713 37.4285C32.4664 37.1322 33.1607 37.1322 33.5575 38.0215L34.7478 40.5901L34.0535 40.8866ZM36.3348 39.701L33.1607 37.0335L33.8551 36.5395L34.4503 37.1322L35.3429 36.5395L35.0454 35.749L35.7397 35.255L37.1284 39.207L36.3348 39.701ZM39.3106 37.231L38.8146 36.737L39.8065 35.6502L39.1121 35.0574L38.2195 36.0455L37.7235 35.6502L38.6161 34.6622L37.3267 33.4767L37.9219 32.8839L40.8976 35.5515L39.3106 37.231ZM42.2862 33.7731C41.5919 34.761 40.7983 34.4647 39.8065 33.7731C38.8146 33.0814 38.1202 32.4887 38.8146 31.5006C39.5089 30.5128 40.3024 30.8091 41.2943 31.5006C42.2862 32.1923 42.8813 32.7851 42.2862 33.7731ZM44.4684 28.8331L41.4928 28.932L44.1709 29.8211L43.9724 30.5128L40.104 29.2283L40.4017 28.3392L43.3773 28.2403L40.6992 27.3512L40.8976 26.6595L44.766 27.944L44.4684 28.8331ZM45.262 25.5727C45.0635 26.7585 44.1709 26.8572 42.9805 26.6595C41.7902 26.462 40.8976 26.2644 41.096 24.98C41.2943 23.7944 42.187 23.6957 43.3773 23.8932C44.5675 24.1897 45.3612 24.3872 45.262 25.5727ZM45.3612 23.4981H41.2943V22.7076H45.3612V23.4981ZM35.5414 37.1322L36.2356 38.8118L34.8469 37.5275L35.5414 37.1322Z" fill="#4E2A2A"/>
</g>
</g>
<defs>
<clipPath id="clip0_105_16173">
<rect width="148.19" height="59.67" fill="white" transform="translate(0.03125 0.0527344)"/>
</clipPath>
</defs>
</svg>
