<svg width="187" height="186" viewBox="0 0 187 186" fill="none" xmlns="http://www.w3.org/2000/svg">
<g filter="url(#filter0_d_105_15733)">
<circle cx="92.5" cy="93.5" r="60.5" fill="#4E2A2A"/>
<g clip-path="url(#clip0_105_15733)">
<path d="M112.977 95.7273C110.91 95.7273 107.211 97.768 104.62 99.8338C101.277 102.49 98.9735 105.664 96.7477 109.302C95.079 112.031 93.4773 115.338 93.4773 118M93.4773 118C93.4773 115.338 91.8755 112.028 90.2068 109.302C87.9783 105.664 85.6717 102.49 82.3344 99.8338C79.7409 97.768 76.0387 95.7273 73.9773 95.7273M93.4773 118V69" stroke="white" stroke-width="5"/>
</g>
<path d="M98.7112 8.16098L98.4201 11.7893L103.292 12.1802L103.108 14.4816L98.2355 14.0907L97.9277 17.9264L103.422 18.3672L103.232 20.7308L94.8354 20.0571L95.9982 5.56449L104.395 6.23819L104.206 8.6018L98.7112 8.16098Z" fill="#4E2A2A"/>
<path d="M112.747 22.7619L111.275 18.7303L108.398 21.7199L105.364 20.993L110.373 16.2469L108.009 9.77725L111.205 10.543L112.662 14.5495L115.553 11.585L118.588 12.3119L113.569 17.0127L115.943 23.5277L112.747 22.7619Z" fill="#4E2A2A"/>
<path d="M124.067 16.1643C124.622 15.8334 125.268 15.6409 126.004 15.587C126.758 15.5259 127.523 15.6661 128.296 16.0077C129.197 16.4052 129.911 16.9855 130.438 17.7487C130.978 18.5175 131.275 19.4065 131.33 20.4159C131.403 21.4182 131.201 22.4584 130.725 23.5368C130.25 24.6151 129.611 25.4777 128.81 26.1246C128.028 26.7644 127.168 27.1503 126.23 27.2822C125.306 27.4198 124.393 27.2898 123.492 26.8922C122.718 26.5507 122.103 26.0898 121.647 25.5095C121.204 24.9347 120.904 24.3252 120.749 23.6807L117.868 30.2077L115.204 29.0319L122.074 13.4661L124.738 14.642L124.067 16.1643ZM128.004 22.3357C128.284 21.7014 128.392 21.0972 128.327 20.5229C128.28 19.9415 128.095 19.4351 127.77 19.0037C127.458 18.5779 127.054 18.2558 126.559 18.0375C126.077 17.8247 125.564 17.75 125.021 17.8133C124.496 17.8696 123.997 18.0736 123.523 18.4254C123.062 18.7828 122.692 19.2787 122.412 19.913C122.132 20.5473 122.015 21.1551 122.062 21.7365C122.121 22.3234 122.304 22.8362 122.611 23.2747C122.936 23.7061 123.339 24.0282 123.821 24.2409C124.316 24.4593 124.829 24.534 125.359 24.465C125.903 24.4017 126.405 24.1913 126.866 23.8339C127.339 23.4821 127.719 22.9827 128.004 22.3357Z" fill="#4E2A2A"/>
<path d="M141.732 19.1725L133.539 32.2027L131.074 30.6526L139.267 17.6224L141.732 19.1725Z" fill="#4E2A2A"/>
<path d="M140.18 37.3716C139.332 36.6563 138.725 35.8271 138.36 34.8839C138.004 33.9301 137.92 32.9434 138.109 31.9236C138.308 30.9128 138.788 29.9569 139.548 29.0559C140.308 28.1549 141.175 27.5254 142.148 27.1672C143.132 26.818 144.125 26.7484 145.127 26.9586C146.137 27.1581 147.067 27.6155 147.915 28.3308C148.763 29.046 149.37 29.885 149.737 30.8477C150.113 31.7998 150.207 32.7858 150.018 33.8056C149.84 34.8343 149.371 35.7991 148.611 36.7001C147.851 37.601 146.973 38.2217 145.979 38.562C144.995 38.9112 143.992 38.9816 142.971 38.7731C141.969 38.5629 141.039 38.0957 140.18 37.3716ZM141.816 35.4318C142.219 35.7716 142.676 35.9936 143.187 36.0978C143.717 36.2004 144.253 36.145 144.796 35.9316C145.339 35.7183 145.847 35.3307 146.321 34.7689C147.027 33.9315 147.346 33.1025 147.276 32.2818C147.226 31.4595 146.883 30.7801 146.247 30.2437C145.611 29.7072 144.883 29.4836 144.064 29.5728C143.265 29.6604 142.512 30.1229 141.806 30.9602C141.099 31.7976 140.761 32.6185 140.79 33.423C140.838 34.2258 141.18 34.8954 141.816 35.4318Z" fill="#4E2A2A"/>
<path d="M156.393 39.4495C157.1 39.3338 157.779 39.3883 158.431 39.6127C159.092 39.8477 159.677 40.259 160.185 40.8465L157.871 42.8457L157.368 42.2634C156.77 41.571 156.154 41.1869 155.52 41.1112C154.896 41.0461 154.179 41.3625 153.372 42.0607L149.028 45.8143L147.124 43.6109L155.843 36.0766L157.747 38.2799L156.393 39.4495Z" fill="#4E2A2A"/>
<path d="M163.686 56.3134C163.333 56.5335 163.001 56.7081 162.689 56.8372L158.232 49.6892C157.562 50.1883 157.163 50.7803 157.035 51.4651C156.906 52.1499 157.04 52.81 157.436 53.4454C158.009 54.3632 158.81 54.7704 159.841 54.667L161.503 57.3321C160.385 57.6367 159.271 57.5797 158.16 57.1612C157.061 56.7353 156.149 55.94 155.422 54.7751C154.835 53.8338 154.513 52.8582 154.455 51.8484C154.416 50.843 154.647 49.89 155.148 48.9895C155.656 48.1007 156.41 47.3445 157.41 46.7208C158.422 46.0897 159.439 45.7416 160.46 45.6765C161.482 45.6113 162.43 45.821 163.304 46.3055C164.178 46.7899 164.916 47.5145 165.518 48.4794C166.097 49.4089 166.414 50.3631 166.469 51.3421C166.532 52.3329 166.317 53.2594 165.825 54.1217C165.352 54.9885 164.639 55.719 163.686 56.3134ZM162.796 53.314C163.424 52.906 163.787 52.361 163.885 51.6791C163.994 50.9899 163.847 50.3217 163.444 49.6745C163.062 49.0627 162.551 48.6624 161.91 48.4736C161.289 48.2892 160.619 48.3555 159.902 48.6722L162.796 53.314Z" fill="#4E2A2A"/>
<path d="M168.086 66.3733C169.209 66.0649 170.266 66.0119 171.256 66.2144C172.25 66.4303 173.086 66.8551 173.763 67.4888C174.444 68.1358 174.915 68.934 175.176 69.8833C175.403 70.7124 175.434 71.4803 175.269 72.1872C175.107 72.9075 174.824 73.5246 174.419 74.0386L176.003 73.6034L176.78 76.4315L165.668 79.4833L164.891 76.6552L166.516 76.209C165.895 75.9912 165.323 75.6092 164.799 75.0628C164.292 74.5262 163.925 73.8433 163.697 73.0143C163.44 72.0783 163.446 71.1564 163.714 70.2486C163.986 69.3543 164.494 68.5604 165.239 67.8671C166 67.1834 166.949 66.6855 168.086 66.3733ZM170.447 75.1293C171.129 74.942 171.674 74.6486 172.082 74.2489C172.503 73.8456 172.779 73.3817 172.908 72.8573C173.05 72.3293 173.05 71.8045 172.907 71.283C172.764 70.7615 172.504 70.315 172.129 69.9435C171.754 69.572 171.28 69.3138 170.708 69.1689C170.154 69.0337 169.542 69.0579 168.873 69.2415C168.205 69.4252 167.653 69.7205 167.219 70.1274C166.801 70.5441 166.519 71.0098 166.373 71.5245C166.23 72.0526 166.229 72.5707 166.368 73.0788C166.511 73.6003 166.773 74.0535 167.151 74.4383C167.544 74.8195 168.017 75.0777 168.572 75.2129C169.14 75.3445 169.765 75.3166 170.447 75.1293Z" fill="#4E2A2A"/>
<path d="M181.787 84.3913L166.511 86.2728L166.155 83.3827L181.431 81.5012L181.787 84.3913Z" fill="#4E2A2A"/>
<path d="M182.268 91.7143L166.889 92.3405L166.77 89.4309L182.15 88.8048L182.268 91.7143Z" fill="#4E2A2A"/>
<path d="M162.82 116.105C163.124 115.009 163.617 114.038 164.298 113.191C164.966 112.34 165.762 111.647 166.688 111.112C167.623 110.594 168.629 110.262 169.706 110.115C170.779 109.981 171.864 110.066 172.959 110.37C174.068 110.677 175.042 111.163 175.879 111.827C176.726 112.508 177.411 113.31 177.932 114.231C178.463 115.17 178.795 116.176 178.929 117.249C179.077 118.326 178.999 119.413 178.695 120.508C178.387 121.617 177.894 122.589 177.217 123.423C176.549 124.273 175.748 124.958 174.813 125.475C173.887 126.01 172.888 126.345 171.815 126.479C170.751 126.63 169.665 126.551 168.556 126.244C167.46 125.94 166.489 125.447 165.641 124.766C164.791 124.098 164.1 123.295 163.569 122.356C163.047 121.435 162.719 120.437 162.586 119.364C162.434 118.3 162.513 117.214 162.82 116.105Z" fill="#4E2A2A"/>
<path d="M163.78 142.913L160.822 140.792L157.974 144.765L156.098 143.42L158.946 139.447L155.818 137.205L152.607 141.685L150.68 140.303L155.588 133.457L167.404 141.928L162.496 148.774L160.569 147.393L163.78 142.913Z" fill="#4E2A2A"/>
<path d="M144.009 147.437L148.223 148.252L147.143 144.247L149.33 142.021L150.816 148.759L157.579 150.067L155.276 152.412L151.091 151.595L152.142 155.602L149.955 157.827L148.513 151.103L141.706 149.781L144.009 147.437Z" fill="#4E2A2A"/>
<path d="M143.847 160.536C143.846 161.182 143.68 161.835 143.348 162.495C143.013 163.173 142.5 163.757 141.81 164.246C141.006 164.814 140.141 165.129 139.216 165.189C138.279 165.258 137.363 165.056 136.469 164.585C135.572 164.132 134.783 163.425 134.102 162.463C133.421 161.501 133.009 160.51 132.865 159.491C132.718 158.491 132.828 157.555 133.196 156.683C133.553 155.819 134.134 155.102 134.937 154.533C135.628 154.045 136.339 153.754 137.071 153.66C137.792 153.575 138.469 153.631 139.102 153.829L134.981 148.005L137.358 146.323L147.186 160.212L144.809 161.894L143.847 160.536ZM136.53 160.745C136.93 161.311 137.393 161.714 137.92 161.953C138.442 162.212 138.972 162.312 139.509 162.255C140.035 162.206 140.519 162.025 140.96 161.713C141.39 161.408 141.718 161.007 141.942 160.508C142.164 160.029 142.245 159.495 142.186 158.908C142.116 158.329 141.881 157.757 141.481 157.191C141.08 156.625 140.619 156.213 140.096 155.954C139.562 155.703 139.028 155.597 138.494 155.635C137.957 155.692 137.473 155.873 137.043 156.177C136.602 156.49 136.274 156.891 136.061 157.382C135.836 157.881 135.759 158.42 135.829 158.999C135.888 159.586 136.121 160.168 136.53 160.745Z" fill="#4E2A2A"/>
<path d="M132.224 174.138L125.242 160.421L127.838 159.1L134.819 172.818L132.224 174.138Z" fill="#4E2A2A"/>
<path d="M117.404 163.462C118.454 163.103 119.477 163.008 120.474 163.18C121.475 163.364 122.364 163.8 123.142 164.486C123.907 165.177 124.48 166.079 124.862 167.194C125.244 168.309 125.339 169.376 125.146 170.395C124.94 171.419 124.489 172.306 123.794 173.058C123.103 173.822 122.233 174.384 121.184 174.744C120.134 175.104 119.102 175.194 118.088 175.014C117.078 174.847 116.184 174.42 115.406 173.734C114.616 173.052 114.029 172.154 113.647 171.039C113.265 169.924 113.183 168.852 113.402 167.824C113.609 166.801 114.064 165.905 114.768 165.136C115.463 164.384 116.342 163.827 117.404 163.462ZM118.227 165.863C117.729 166.034 117.303 166.311 116.951 166.696C116.591 167.098 116.363 167.587 116.267 168.162C116.171 168.737 116.242 169.372 116.48 170.068C116.835 171.104 117.383 171.803 118.123 172.165C118.854 172.545 119.613 172.6 120.4 172.33C121.187 172.06 121.753 171.551 122.097 170.803C122.433 170.072 122.423 169.188 122.068 168.152C121.713 167.116 121.183 166.403 120.478 166.015C119.764 165.644 119.014 165.593 118.227 165.863Z" fill="#4E2A2A"/>
<path d="M107.245 176.297C106.979 176.961 106.582 177.515 106.054 177.958C105.511 178.403 104.857 178.692 104.092 178.824L103.573 175.81L104.331 175.68C105.233 175.524 105.88 175.195 106.272 174.691C106.65 174.19 106.748 173.413 106.567 172.361L105.592 166.703L108.462 166.209L110.418 177.565L107.549 178.059L107.245 176.297Z" fill="#4E2A2A"/>
<path d="M89.0153 173.843C89.0088 173.427 89.0307 173.052 89.0809 172.719L97.5039 172.587C97.4216 171.756 97.1202 171.109 96.5999 170.646C96.0795 170.182 95.445 169.956 94.6963 169.968C93.6148 169.985 92.8525 170.462 92.4095 171.398L89.2691 171.447C89.5845 170.332 90.208 169.407 91.1396 168.672C92.0714 167.95 93.2236 167.578 94.5962 167.557C95.7054 167.539 96.7075 167.766 97.6024 168.238C98.4837 168.723 99.1809 169.413 99.6942 170.306C100.193 171.2 100.452 172.236 100.471 173.414C100.489 174.607 100.263 175.657 99.7919 176.566C99.3207 177.475 98.6521 178.179 97.7862 178.678C96.9203 179.177 95.9189 179.435 94.7819 179.453C93.6866 179.47 92.7054 179.249 91.8385 178.791C90.9576 178.334 90.2747 177.672 89.7896 176.806C89.2909 175.954 89.0328 174.966 89.0153 173.843ZM92.0439 174.628C92.0694 175.376 92.3491 175.968 92.8829 176.404C93.4169 176.853 94.0652 177.072 94.8278 177.06C95.5488 177.049 96.1554 176.817 96.6476 176.366C97.1261 175.928 97.4148 175.321 97.5136 174.542L92.0439 174.628Z" fill="#4E2A2A"/>
<path d="M78.0516 172.429C77.7378 173.551 77.2391 174.484 76.5555 175.229C75.8587 175.97 75.0642 176.467 74.1723 176.722C73.267 176.972 72.3403 176.965 71.3922 176.7C70.5642 176.468 69.8898 176.099 69.369 175.594C68.8347 175.084 68.4517 174.523 68.2197 173.911L67.777 175.494L64.9527 174.704L68.0575 163.607L70.8819 164.397L70.4279 166.019C70.9342 165.599 71.5564 165.306 72.2945 165.138C73.0155 164.979 73.79 165.016 74.618 165.248C75.5527 165.509 76.3401 165.989 76.9801 166.686C77.6068 167.38 78.0257 168.224 78.2369 169.219C78.431 170.224 78.3692 171.294 78.0516 172.429ZM69.3294 169.945C69.1389 170.626 69.1099 171.245 69.2425 171.8C69.3713 172.369 69.6272 172.844 70.0103 173.224C70.3896 173.619 70.8396 173.888 71.3604 174.034C71.8812 174.18 72.3975 174.188 72.9091 174.057C73.4208 173.927 73.886 173.654 74.3046 173.238C74.7062 172.832 75.0004 172.295 75.1872 171.628C75.374 170.96 75.4049 170.335 75.2798 169.753C75.1376 169.18 74.8836 168.699 74.5176 168.308C74.1383 167.914 73.6949 167.646 73.1875 167.504C72.6667 167.358 72.1438 167.349 71.6188 167.476C71.09 167.616 70.6248 167.889 70.2232 168.295C69.8179 168.714 69.52 169.264 69.3294 169.945Z" fill="#4E2A2A"/>
<path d="M55.5473 174.894L61.8051 160.832L64.4656 162.016L58.2077 176.078L55.5473 174.894Z" fill="#4E2A2A"/>
<path d="M49.0185 171.527L56.4156 158.029L58.9693 159.429L51.5722 172.927L49.0185 171.527Z" fill="#4E2A2A"/>
<path d="M38.2455 142.348C39.0284 143.172 39.6078 144.094 39.9835 145.115C40.3693 146.125 40.5532 147.165 40.5353 148.233C40.4979 149.301 40.2651 150.335 39.8371 151.334C39.3995 152.323 38.7684 153.209 37.9438 153.992C37.1092 154.785 36.1917 155.369 35.1913 155.745C34.1713 156.121 33.132 156.295 32.0734 156.268C30.9951 156.24 29.9615 156.007 28.9723 155.57C27.9731 155.142 27.0821 154.515 26.2992 153.691C25.5067 152.856 24.9273 151.934 24.5612 150.924C24.1754 149.913 24.0012 148.874 24.0387 147.806C24.0566 146.737 24.2843 145.708 24.7219 144.719C25.1399 143.73 25.7662 142.838 26.6008 142.046C27.4254 141.263 28.3477 140.684 29.3677 140.308C30.3781 139.922 31.4225 139.743 32.5007 139.771C33.5593 139.799 34.5832 140.031 35.5723 140.469C36.5619 140.887 37.453 141.513 38.2455 142.348Z" fill="#4E2A2A"/>
<path d="M14.7311 129.381L18.0702 127.932L16.1245 123.448L18.2425 122.529L20.1882 127.013L23.7182 125.482L21.5241 120.425L23.6993 119.481L27.0526 127.209L13.715 132.997L10.3617 125.269L12.5369 124.325L14.7311 129.381Z" fill="#4E2A2A"/>
<path d="M21.023 110.108L18.1534 113.3L22.1432 114.438L22.9247 117.458L16.3836 115.262L11.7793 120.385L10.9561 117.204L13.8107 114.037L9.83589 112.874L9.05435 109.854L15.5604 112.08L20.1997 106.927L21.023 110.108Z" fill="#4E2A2A"/>
<path d="M9.888 103.239C9.33486 102.904 8.86137 102.425 8.46752 101.8C8.05883 101.163 7.82325 100.423 7.76079 99.5793C7.68809 98.5974 7.86457 97.6945 8.29021 96.8704C8.71483 96.0325 9.35968 95.3521 10.2248 94.8292C11.075 94.2935 12.0878 93.9821 13.2633 93.8951C14.4387 93.808 15.5002 93.9658 16.4477 94.3684C17.3804 94.7582 18.1253 95.3357 18.6826 96.1009C19.2388 96.8523 19.5532 97.7189 19.6259 98.7008C19.6884 99.5443 19.5708 100.304 19.2732 100.979C18.9746 101.641 18.5774 102.192 18.0816 102.632L25.1965 102.105L25.4115 105.009L8.44357 106.266L8.22854 103.361L9.888 103.239ZM13.4829 96.8613C12.7915 96.9125 12.2076 97.1018 11.7313 97.429C11.2401 97.7435 10.8805 98.1455 10.6526 98.6352C10.4236 99.111 10.3291 99.6185 10.369 100.158C10.4079 100.683 10.5831 101.171 10.8945 101.621C11.191 102.058 11.6059 102.402 12.139 102.655C12.6712 102.893 13.283 102.987 13.9744 102.936C14.6659 102.885 15.2572 102.702 15.7484 102.388C16.2385 102.059 16.605 101.657 16.8478 101.18C17.0757 100.69 17.1702 100.183 17.1313 99.6572C17.0914 99.1178 16.9162 98.6303 16.6059 98.1944C16.2945 97.7447 15.8727 97.4005 15.3406 97.1618C14.8074 96.9093 14.1882 96.8091 13.4829 96.8613Z" fill="#4E2A2A"/>
<path d="M4.22962 86.1189L19.5828 87.2119L19.376 90.1165L4.02284 89.0235L4.22962 86.1189Z" fill="#4E2A2A"/>
<path d="M21.0056 78.9699C20.7741 80.0548 20.3284 80.9806 19.6686 81.7472C18.9952 82.511 18.1642 83.0497 17.1756 83.3634C16.19 83.6635 15.1208 83.6906 13.9681 83.4446C12.8153 83.1987 11.8518 82.7308 11.0773 82.0409C10.3058 81.3375 9.77676 80.4944 9.4902 79.5116C9.19008 78.526 9.15576 77.4907 9.38726 76.4058C9.61875 75.3209 10.0726 74.3897 10.7489 73.6124C11.4117 72.8322 12.2373 72.2853 13.2259 71.9716C14.2173 71.6443 15.2894 71.6037 16.4421 71.8497C17.5948 72.0956 18.5555 72.5771 19.3242 73.2941C20.0957 73.9975 20.6301 74.8488 20.9273 75.848C21.2139 76.8308 21.2399 77.8714 21.0056 78.9699ZM18.5238 78.4404C18.6338 77.925 18.6145 77.4176 18.4658 76.9179C18.3066 76.4019 18.005 75.9547 17.5611 75.5764C17.1172 75.1981 16.5359 74.9323 15.8171 74.7789C14.7457 74.5503 13.8645 74.66 13.1734 75.1081C12.4716 75.5397 12.0339 76.1623 11.8603 76.976C11.6867 77.7897 11.8321 78.5367 12.2966 79.2172C12.7505 79.8812 13.5131 80.3275 14.5844 80.5561C15.6558 80.7847 16.5394 80.6967 17.2354 80.2923C17.9207 79.8713 18.3502 79.254 18.5238 78.4404Z" fill="#4E2A2A"/>
<path d="M15.2328 63.6416C14.7994 63.0719 14.529 62.4463 14.4215 61.765C14.319 61.0708 14.4083 60.3617 14.6892 59.6378L17.5397 60.7439L17.2613 61.4614C16.9302 62.3146 16.8798 63.0387 17.11 63.6338C17.3452 64.2159 17.9605 64.7 18.956 65.0863L24.308 67.163L23.2545 69.8778L12.5117 65.7093L13.5652 62.9945L15.2328 63.6416Z" fill="#4E2A2A"/>
<path d="M26.7298 49.2864C27.0895 49.4954 27.3992 49.7075 27.6591 49.9227L23.4264 57.2061C24.1806 57.5642 24.8904 57.6399 25.5558 57.4332C26.2213 57.2264 26.7421 56.7994 27.1183 56.152C27.6618 55.2168 27.6468 54.318 27.0735 53.4556L28.6516 50.74C29.4435 51.5851 29.9143 52.5965 30.064 53.7741C30.2016 54.9447 29.9256 56.1234 29.2358 57.3103C28.6784 58.2695 27.9669 59.0108 27.1014 59.5342C26.2309 60.0387 25.2805 60.2803 24.2504 60.259C23.2272 60.2258 22.2061 59.913 21.187 59.3208C20.156 58.7216 19.3727 57.9858 18.8373 57.1133C18.3019 56.2408 18.0438 55.3049 18.0631 54.3058C18.0824 53.3066 18.3778 52.3154 18.9491 51.3323C19.4995 50.3852 20.1945 49.6584 21.0341 49.152C21.8807 48.6335 22.8001 48.39 23.7923 48.4213C24.7795 48.4336 25.7587 48.722 26.7298 49.2864ZM24.495 51.476C23.8406 51.1117 23.1893 51.0459 22.5408 51.2785C21.8804 51.5042 21.3586 51.9467 20.9754 52.6061C20.6131 53.2296 20.4984 53.8686 20.6312 54.5231C20.759 55.1587 21.1307 55.7196 21.7464 56.2057L24.495 51.476Z" fill="#4E2A2A"/>
<path d="M33.549 40.7043C32.7488 39.8578 32.2054 38.9499 31.9187 37.9806C31.6421 37.0017 31.6243 36.0645 31.8653 35.1688C32.1163 34.2636 32.5995 33.4728 33.315 32.7965C33.9397 32.2058 34.6029 31.8174 35.3046 31.6311C36.0164 31.4353 36.6943 31.3955 37.3384 31.5117L36.2096 30.3176L38.3408 28.3028L46.257 36.6765L44.1258 38.6913L42.9683 37.467C43.0678 38.1172 42.9995 38.8019 42.7635 39.5211C42.5281 40.2208 42.098 40.8659 41.4732 41.4565C40.7678 42.1233 39.9515 42.5516 39.0241 42.7414C38.1068 42.9216 37.1672 42.8462 36.2054 42.5151C35.2442 42.1644 34.3587 41.5608 33.549 40.7043ZM40.1677 34.5044C39.6818 33.9905 39.1667 33.6475 38.6222 33.4752C38.0682 33.2929 37.5294 33.268 37.0058 33.4004C36.4727 33.5227 36.0096 33.7697 35.6167 34.1412C35.2237 34.5127 34.9514 34.9514 34.7999 35.4572C34.6483 35.963 34.643 36.5024 34.7839 37.0752C34.9253 37.6285 35.2341 38.1571 35.7104 38.6609C36.1867 39.1647 36.7066 39.5129 37.2702 39.7052C37.8342 39.878 38.3778 39.908 38.9008 39.7952C39.434 39.6728 39.892 39.4307 40.2749 39.0687C40.6679 38.6972 40.9452 38.2537 41.1068 37.7384C41.2589 37.213 41.2642 36.6736 41.1228 36.1203C40.9719 35.557 40.6535 35.0183 40.1677 34.5044Z" fill="#4E2A2A"/>
<path d="M43.0141 20.1293L51.867 32.7206L49.4849 34.3955L40.632 21.8042L43.0141 20.1293Z" fill="#4E2A2A"/>
<path d="M49.2203 16.2746L57.014 29.5475L54.5029 31.022L46.7092 17.7491L49.2203 16.2746Z" fill="#4E2A2A"/>
<path d="M79.8371 22.0151C78.7269 22.2607 77.6379 22.2814 76.5703 22.0773C75.5056 21.8868 74.52 21.5083 73.6137 20.9419C72.7178 20.3589 71.9522 19.6265 71.3169 18.7445C70.695 17.8595 70.2613 16.8619 70.0158 15.7516C69.7672 14.6279 69.7397 13.5404 69.9332 12.4893C70.1373 11.4216 70.5241 10.4413 71.0935 9.54847C71.6734 8.63908 72.4059 7.87348 73.2909 7.25167C74.1729 6.61632 75.169 6.17586 76.2792 5.93028C77.403 5.6817 78.492 5.66096 79.5461 5.86805C80.6108 6.0586 81.591 6.44535 82.4869 7.02829C83.3933 7.5947 84.1574 8.3204 84.7792 9.20539C85.4115 10.0739 85.852 11.07 86.1006 12.1937C86.3462 13.304 86.3669 14.3929 86.1628 15.4606C85.9723 16.5253 85.587 17.5123 85.0071 18.4217C84.4376 19.3145 83.7104 20.0719 82.8255 20.6937C81.957 21.326 80.9609 21.7665 79.8371 22.0151Z" fill="#4E2A2A"/>
</g>
<defs>
<filter id="filter0_d_105_15733" x="0.0228348" y="0.151367" width="186.245" height="183.39" filterUnits="userSpaceOnUse" color-interpolation-filters="sRGB">
<feFlood flood-opacity="0" result="BackgroundImageFix"/>
<feColorMatrix in="SourceAlpha" type="matrix" values="0 0 0 0 0 0 0 0 0 0 0 0 0 0 0 0 0 0 127 0" result="hardAlpha"/>
<feOffset/>
<feGaussianBlur stdDeviation="2"/>
<feComposite in2="hardAlpha" operator="out"/>
<feColorMatrix type="matrix" values="0 0 0 0 0 0 0 0 0 0 0 0 0 0 0 0 0 0 0.25 0"/>
<feBlend mode="normal" in2="BackgroundImageFix" result="effect1_dropShadow_105_15733"/>
<feBlend mode="normal" in="SourceGraphic" in2="effect1_dropShadow_105_15733" result="shape"/>
</filter>
<clipPath id="clip0_105_15733">
<rect width="38.9773" height="49" fill="white" transform="matrix(-1 0 0 -1 111.977 118)"/>
</clipPath>
</defs>
</svg>
