<svg width="109" height="109" viewBox="0 0 109 109" fill="none" xmlns="http://www.w3.org/2000/svg">
<path d="M16.5573 37.4653L15.6695 40.6506C15.5892 40.9352 15.5717 41.1773 15.6143 41.3779C15.6582 41.5785 15.7247 41.7391 15.8149 41.8595C15.9027 41.9773 15.9755 42.0588 16.0357 42.1052L16.0156 42.1955L14.9421 41.8193C15.2431 40.7434 15.5428 39.6711 15.84 38.604C16.1385 37.5343 16.437 36.462 16.7379 35.3886C16.8658 35.6933 17.0213 35.9742 17.2044 36.2313C17.385 36.4859 17.5781 36.7404 17.7813 36.9938L21.3227 41.4883C21.4205 41.6187 21.5309 41.7566 21.6538 41.8996C21.7742 42.0438 21.9234 42.1805 22.1002 42.3109L22.9881 39.1206C23.0683 38.8372 23.0859 38.5939 23.0433 38.3933C22.9994 38.1926 22.9329 38.0321 22.8426 37.9117C22.7548 37.7913 22.6834 37.7098 22.6269 37.6659L22.652 37.5857L23.7154 37.9518C23.417 39.0228 23.1185 40.0938 22.8175 41.1672C22.5191 42.2407 22.2219 43.3129 21.9247 44.3826C21.788 44.0816 21.6312 43.8045 21.4531 43.5499C21.2763 43.2928 21.087 43.032 20.8863 42.7674L17.3399 38.2779C17.2395 38.1512 17.1292 38.0158 17.0088 37.8716C16.8859 37.7286 16.7354 37.5932 16.5573 37.4653Z" fill="#7E5E4C"/>
<path d="M19.5316 32.4278C19.3083 32.3149 19.0939 32.2171 18.8895 32.1369C18.6826 32.0541 18.4807 32.0039 18.2825 31.9864L18.9597 30.6621C19.0939 30.8001 19.2532 30.9317 19.4363 31.0584C19.6206 31.1825 19.825 31.3017 20.0482 31.4145C20.1962 31.4923 20.4119 31.6026 20.6953 31.7456C20.98 31.8898 21.2998 32.0516 21.6534 32.2322C22.0045 32.4128 22.3557 32.5933 22.7068 32.7739C23.0579 32.9545 23.3765 33.1188 23.6599 33.2655C23.9446 33.4097 24.1602 33.5188 24.307 33.5916C24.5277 33.7057 24.7409 33.7997 24.944 33.8725C25.1509 33.9465 25.3554 34.0004 25.556 34.033L24.8788 35.3573C24.7421 35.2043 24.5816 35.0688 24.3973 34.9509C24.2142 34.8343 24.011 34.7189 23.7903 34.6048L19.5316 32.4278Z" fill="#7E5E4C"/>
<path d="M28.2828 29.6639L22.1329 27.6073C21.906 27.5345 21.6664 27.4668 21.4156 27.4066C21.1648 27.3464 20.9341 27.3013 20.7234 27.2712L21.6464 26.1024C21.7868 26.2065 21.9724 26.3056 22.2032 26.3984C22.4314 26.4887 22.6534 26.5727 22.8703 26.6492L28.4634 28.5152L25.3634 23.504C25.2405 23.3071 25.0699 23.1679 24.8517 23.0877C24.631 23.0049 24.4078 22.946 24.1795 22.9121L24.9821 21.9039C25.0599 22.102 25.1552 22.3177 25.2681 22.551C25.3822 22.7817 25.5026 22.9974 25.6292 23.198L29.0352 28.7108L28.2828 29.6639Z" fill="#7E5E4C"/>
<path d="M31.2269 16.5349L36.5892 20.1866C36.7824 20.3171 36.9955 20.445 37.2263 20.5679C37.457 20.6882 37.6677 20.7936 37.8583 20.8839L36.6394 21.7617C36.5391 21.625 36.3911 21.4808 36.198 21.3303C36.0036 21.1773 35.813 21.0381 35.6261 20.914C35.4079 20.761 35.1972 20.6381 34.9941 20.5478C34.7934 20.4575 34.5752 20.4224 34.342 20.4425C34.0674 20.46 33.7977 20.5327 33.5344 20.6632C33.2698 20.7936 33.0328 20.9616 32.8221 21.1648C32.6139 21.3654 32.4572 21.5912 32.3506 21.842C32.2402 22.0827 32.1976 22.316 32.2201 22.5392C32.2402 22.7599 32.2879 22.9957 32.3606 23.2465C32.4609 23.6052 32.7882 23.9036 33.3438 24.1444L32.2954 24.9018C32.2791 24.6887 32.2452 24.4554 32.1951 24.2046C32.1449 23.9513 32.0897 23.7118 32.0295 23.4873L30.2388 17.2471L31.2269 16.5349ZM34.3721 20.0562L30.7454 17.5882L31.9443 21.8069C32.0722 21.4833 32.2603 21.1936 32.5111 20.9391C32.7619 20.682 33.0478 20.4751 33.3688 20.3171C33.6924 20.1603 34.0272 20.0738 34.3721 20.0562Z" fill="#7E5E4C"/>
<path d="M46.864 14.5364L46.0865 11.2859C46.0288 11.0427 45.9636 10.8169 45.8909 10.6088C45.8206 10.3981 45.7304 10.21 45.62 10.0419L47.0697 9.70084C47.0458 9.89521 47.0471 10.1021 47.0747 10.3228C47.1048 10.5436 47.1474 10.7768 47.2051 11.0201L48.0227 14.4512C48.1494 14.9804 48.1456 15.4544 48.0127 15.8758C47.8785 16.2971 47.6591 16.6508 47.3556 16.9342C47.0546 17.2151 46.706 17.4032 46.3122 17.496C45.9009 17.5963 45.4858 17.5537 45.0682 17.3656C44.6494 17.1787 44.3083 16.8063 44.0399 16.247L44.1302 16.2269C44.3647 16.558 44.6381 16.8113 44.9528 16.9843C45.2664 17.1586 45.6075 17.1887 45.9761 17.0746C46.247 16.9818 46.459 16.8426 46.6132 16.6583C46.77 16.4752 46.8753 16.2658 46.9292 16.0313C46.9819 15.798 46.9994 15.5497 46.9794 15.2889C46.9593 15.028 46.9204 14.7772 46.864 14.5364Z" fill="#7E5E4C"/>
<path d="M56.1646 16.4039L51.018 16.4942C51.0883 16.3036 51.1309 16.1004 51.1485 15.8822C51.1685 15.6615 51.1748 15.4257 51.1685 15.1749C51.1648 15.0119 51.1598 14.7711 51.1535 14.4526C51.1497 14.1316 51.1447 13.7741 51.1384 13.3791C51.1309 12.9854 51.1246 12.5903 51.1184 12.1953C51.1108 11.7978 51.1046 11.4404 51.0983 11.1218C51.0908 10.8008 51.0858 10.5588 51.0833 10.3945C51.0795 10.1437 51.0644 9.91044 51.0381 9.69223C51.0155 9.47152 50.9654 9.26962 50.8876 9.08528L55.7483 9L55.8386 10.1286H55.7583C55.7282 10.0559 55.6655 9.96185 55.5727 9.84773C55.4787 9.73487 55.3395 9.63204 55.1564 9.54175C54.9721 9.44895 54.7325 9.4038 54.4391 9.40631L52.2069 9.44644L52.2671 12.8825L53.3506 12.8675C53.6478 12.8612 53.8848 12.8098 54.0629 12.712C54.2435 12.6116 54.3789 12.5013 54.4692 12.3809C54.5595 12.2605 54.6172 12.169 54.6447 12.105H54.735C54.7375 12.4135 54.7426 12.7245 54.7501 13.038C54.7564 13.349 54.7614 13.66 54.7651 13.971H54.6748C54.6473 13.8983 54.5871 13.8042 54.4943 13.6901C54.4002 13.5773 54.261 13.4744 54.0779 13.3841C53.8973 13.2913 53.6578 13.2475 53.3606 13.2537L52.2771 13.2688L52.3273 16.0828L54.8354 16.0377C55.1326 16.0352 55.3696 15.985 55.5477 15.8872C55.7282 15.7869 55.8612 15.6765 55.949 15.5561C56.0392 15.4358 56.0969 15.3442 56.1245 15.2803H56.2148L56.1646 16.4039Z" fill="#7E5E4C"/>
<path d="M61.1406 16.9568L60.7493 10.4859C60.7355 10.2489 60.7104 10.0031 60.6741 9.74856C60.6364 9.49149 60.5913 9.25949 60.5386 9.05132L61.9682 9.47267C61.9243 9.64072 61.903 9.84763 61.903 10.0947C61.903 10.343 61.908 10.58 61.9181 10.807L62.2692 16.696L64.5114 13.6512L64.386 11.5594C64.376 11.3262 64.3509 11.0816 64.3108 10.827C64.2707 10.57 64.2255 10.338 64.1754 10.1298L65.605 10.5512C65.5611 10.7192 65.5398 10.9261 65.5398 11.1732C65.5398 11.4215 65.541 11.6585 65.5448 11.8855L65.9009 17.7745L69.4022 13.0291C69.5389 12.8423 69.6041 12.6316 69.5978 12.3971C69.5941 12.1601 69.5602 11.9293 69.4975 11.7049L70.7465 12.0761C70.5923 12.2241 70.428 12.3946 70.255 12.5877C70.0807 12.7783 69.9239 12.969 69.7834 13.1596L65.941 18.3814L64.7773 18.0353L64.5415 14.2531L62.3043 17.3029L61.1406 16.9568Z" fill="#7E5E4C"/>
<path d="M74.7384 23.2413L70.4746 20.362C70.6414 20.2454 70.7957 20.1037 70.9361 19.9357C71.0766 19.7689 71.217 19.582 71.3575 19.3738C71.4478 19.2372 71.5807 19.0365 71.7588 18.7719C71.9393 18.5086 72.14 18.2126 72.3607 17.884C72.5814 17.5567 72.8021 17.2294 73.0228 16.9009C73.2461 16.5736 73.4467 16.2776 73.6248 16.013C73.8054 15.7497 73.9408 15.549 74.0311 15.4111C74.1716 15.2041 74.2932 15.0035 74.3973 14.8091C74.5039 14.6122 74.5791 14.4166 74.623 14.2222L78.651 16.941L78.0792 17.9141L78.0089 17.869C78.029 17.7963 78.0315 17.6859 78.019 17.5379C78.0089 17.3912 77.955 17.2269 77.8584 17.0463C77.7606 16.8658 77.5901 16.694 77.3468 16.5297L75.4958 15.2806L73.5696 18.1248L74.4675 18.7318C74.7146 18.8961 74.939 18.9901 75.1397 19.0127C75.3428 19.0365 75.5171 19.0252 75.6614 18.9776C75.8043 18.9312 75.9046 18.8898 75.9623 18.8522L76.0376 18.9023C75.867 19.1569 75.6927 19.414 75.5159 19.6748C75.3416 19.9332 75.1673 20.1902 74.9942 20.4473L74.919 20.3971C74.939 20.3244 74.9415 20.2141 74.929 20.0661C74.9152 19.9194 74.86 19.7551 74.7635 19.5745C74.6694 19.3914 74.4989 19.2171 74.2518 19.0528L73.3539 18.4459L71.7788 20.7784L73.8555 22.1779C74.1026 22.3447 74.3283 22.44 74.5327 22.4638C74.7359 22.4864 74.9089 22.4738 75.0494 22.4237C75.1923 22.376 75.2927 22.3346 75.3504 22.2983L75.4256 22.3484L74.7384 23.2413Z" fill="#7E5E4C"/>
<path d="M81.9224 21.4826L77.754 25.3852L79.309 27.0455C79.5096 27.2587 79.7053 27.3979 79.8959 27.4619C80.089 27.5283 80.2621 27.5547 80.4125 27.5421C80.563 27.5283 80.6684 27.5095 80.7286 27.487L80.7888 27.5472L79.926 28.2695L76.5752 24.6929C76.7658 24.6164 76.9464 24.5124 77.1169 24.3819C77.29 24.249 77.4693 24.096 77.6536 23.9255C77.774 23.8126 77.9496 23.6471 78.1803 23.4289C78.4136 23.2119 78.6744 22.9674 78.9629 22.6965C79.2538 22.4256 79.5422 22.1548 79.8307 21.8839C80.1216 21.613 80.3824 21.3697 80.6132 21.1515C80.8464 20.9346 81.0245 20.769 81.1449 20.6549C81.3255 20.4844 81.4885 20.3163 81.6365 20.1483C81.7832 19.9815 81.8986 19.8072 81.9826 19.6266L83.0009 20.7151C82.8228 20.7954 82.6447 20.9007 82.4642 21.0311C82.2836 21.1616 82.103 21.312 81.9224 21.4826Z" fill="#7E5E4C"/>
<path d="M89.3018 28.8869C89.5789 29.3659 89.7445 29.7936 89.7984 30.171C89.8548 30.5523 89.8235 30.8746 89.7031 31.1392C89.5852 31.4063 89.4021 31.6119 89.1513 31.7561C88.8165 31.953 88.4904 32.0333 88.1732 31.9969C87.8546 31.9593 87.5424 31.8565 87.2351 31.6859C86.9266 31.5179 86.6156 31.331 86.3021 31.1241L84.8876 33.4215C84.7571 33.6322 84.623 33.868 84.4863 34.1288C84.3483 34.3896 84.243 34.6154 84.1703 34.806L83.3827 33.4466C83.6059 33.2384 83.8016 32.9951 83.9696 32.7142L85.339 30.5222C85.0343 30.3579 84.7195 30.2538 84.396 30.2112C84.0712 30.171 83.7389 30.2488 83.3978 30.4469L83.2222 30.5523C83.004 30.6752 82.8071 30.8031 82.6303 30.9335C82.456 31.0664 82.3042 31.2094 82.1738 31.3599C82.0635 31.1718 81.938 30.9561 81.7976 30.7128C81.6597 30.472 81.5368 30.2576 81.4264 30.0707C81.627 30.0381 81.8277 29.9754 82.0283 29.8851C82.229 29.7948 82.4372 29.6882 82.6554 29.5641C82.7958 29.4813 83.0027 29.3584 83.2774 29.1979C83.5545 29.0374 83.8643 28.8593 84.2054 28.6612C84.549 28.4643 84.8926 28.2674 85.2337 28.0693C85.5773 27.8686 85.887 27.688 86.1617 27.5275C86.4388 27.367 86.6482 27.2466 86.7887 27.1663C87.0056 27.0397 87.2025 26.913 87.3806 26.7851C87.5612 26.6547 87.7129 26.513 87.8371 26.3587L89.3018 28.8869ZM84.4261 29.85C84.7534 29.85 85.0656 29.9077 85.3641 30.0205C85.6651 30.1309 85.956 30.2576 86.2369 30.4018C86.5178 30.5485 86.79 30.6752 87.0546 30.783C87.3179 30.8934 87.5813 30.9548 87.8421 30.9686C88.1054 30.9811 88.3663 30.9046 88.6246 30.7379C88.8817 30.5836 89.0284 30.3692 89.066 30.0958C89.1024 29.8224 89.066 29.5189 88.9557 29.1879C88.8453 28.8568 88.6911 28.5207 88.4942 28.1796L88.1932 27.668L84.4261 29.85Z" fill="#7E5E4C"/>
<path d="M90.2219 39.5353L87.5433 40.2777C87.2987 40.3442 87.0743 40.4194 86.8711 40.5035C86.6705 40.5862 86.4874 40.6865 86.3244 40.8044L85.9231 39.3698C86.1262 39.3861 86.3356 39.3748 86.5501 39.3347C86.7633 39.2946 86.9928 39.2406 87.2373 39.1742L89.3692 38.5873L91.5412 35.9638C91.6716 35.8171 91.8146 35.6277 91.9726 35.397C92.1293 35.1662 92.2535 34.9643 92.3438 34.79L92.7852 36.3902C92.6347 36.5106 92.5055 36.6297 92.3989 36.7463C92.2911 36.863 92.1795 36.9921 92.0629 37.1326L90.3624 39.1792L92.8404 40.2727C93.0109 40.3354 93.189 40.3944 93.3771 40.4483C93.564 40.5047 93.7546 40.5511 93.9489 40.5887L94.1797 41.4214C93.875 41.2308 93.6028 41.0728 93.3621 40.9499C93.1238 40.8257 92.8454 40.6941 92.5244 40.5536L90.2219 39.5353Z" fill="#7E5E4C"/>
<path d="M22 50V100" stroke="#7E5E4C" stroke-width="4.20374" stroke-linecap="round"/>
<path d="M88 50V100" stroke="#7E5E4C" stroke-width="4.20374" stroke-linecap="round"/>
<mask id="mask0_262_2287" style="mask-type:luminance" maskUnits="userSpaceOnUse" x="42" y="24" width="25" height="16">
<path d="M42.5037 24.7925H66.2905V39.8711H42.5037V24.7925Z" fill="white"/>
</mask>
<g mask="url(#mask0_262_2287)">
<path d="M62.8571 28.7239L62.748 26.6798L65.4166 28.7239H62.8571ZM62.753 29.2619H65.5056L59.4824 34.6392L62.753 29.2619ZM46.2322 29.2619L49.5027 34.638L43.4808 29.2619H46.2322ZM46.1281 28.7239H43.5686L46.2372 26.6798L46.1281 28.7239ZM51.1255 26.3412L49.0663 25.3292H53.2849L51.1255 26.3412ZM57.8597 26.3399L55.7015 25.3292H59.9188L57.8597 26.3399ZM59.0548 29.2619H61.9767L56.563 34.9251L59.0548 29.2619ZM54.4938 30.6012L55.4331 36.1829L54.4938 38.691L53.5533 36.1842L54.4938 30.6012ZM49.9304 29.2619L52.4234 34.9264L47.0084 29.2619H49.9304ZM49.9304 28.7239H47.5264L50.5875 27.204L49.9304 28.7239ZM53.6398 28.7239H50.5122L51.2383 27.046L53.6398 28.7239ZM54.4938 28.6662L51.6572 26.6848L54.4938 25.3568L57.3292 26.6848L54.4938 28.6662ZM57.7481 27.046L58.4742 28.7239H55.3466L57.7481 27.046ZM53.1633 35.285L50.5148 29.2619H54.1778L53.1633 35.285ZM54.8086 29.2619H58.4717L55.8219 35.285L54.8086 29.2619ZM59.0561 28.7239L58.3977 27.204L61.4588 28.7239H59.0561ZM62.1912 26.2534L62.3141 28.5483L58.4692 26.6397L61.045 25.3743L62.1912 26.2534ZM47.9402 25.3743L50.516 26.6397L46.6724 28.5483L46.794 26.2534L47.9402 25.3743ZM50.8734 35.8619L47.8913 30.9598L53.0479 36.356L53.8631 38.5305L50.8734 35.8619ZM55.1234 38.5305L55.9372 36.3573L61.0951 30.9598L58.1118 35.8619L55.1234 38.5305ZM66.4524 29.1026C66.4524 29.1014 66.4537 29.1001 66.4549 29.0976C66.4687 29.0662 66.4762 29.0299 66.4762 28.9935C66.4762 28.991 66.475 28.9897 66.475 28.9872C66.475 28.986 66.475 28.9847 66.475 28.9835C66.475 28.9722 66.47 28.9634 66.4687 28.9546C66.4637 28.927 66.4599 28.902 66.4487 28.8781C66.4424 28.8656 66.4336 28.8568 66.4273 28.8455C66.4123 28.8255 66.3997 28.8067 66.3809 28.7916C66.3759 28.7878 66.3747 28.7816 66.3709 28.7791L61.2368 24.8464C61.2168 24.8313 61.1955 24.8213 61.1729 24.8113C61.1679 24.81 61.1654 24.8075 61.1616 24.8062C61.134 24.7962 61.1052 24.7912 61.0763 24.7912H47.9101C47.8813 24.7912 47.8512 24.7962 47.8236 24.8062C47.8211 24.8075 47.8186 24.8088 47.8161 24.81C47.7922 24.82 47.7697 24.8313 47.7496 24.8464L42.6155 28.7791C42.6105 28.7816 42.6093 28.7878 42.6042 28.7916C42.5867 28.8067 42.5729 28.8255 42.5591 28.8455C42.5516 28.8568 42.5428 28.8656 42.5378 28.8781C42.5265 28.902 42.5227 28.927 42.5177 28.9521C42.5165 28.9622 42.5102 28.9722 42.5102 28.9835C42.5102 28.9847 42.5114 28.986 42.5114 28.9872C42.5114 28.9897 42.5102 28.991 42.5102 28.9935C42.5102 29.0299 42.5177 29.0662 42.5315 29.0976C42.5328 29.1001 42.534 29.1014 42.5353 29.1039C42.5503 29.1365 42.5704 29.1641 42.5955 29.1879C42.598 29.1891 42.598 29.1929 42.6005 29.1942L50.4834 36.2319C50.4834 36.2331 50.4847 36.2331 50.4847 36.2331L54.3158 39.6541C54.3208 39.6579 54.3245 39.6579 54.3283 39.6617C54.3459 39.6755 54.3634 39.6855 54.3835 39.6943C54.386 39.6955 54.3872 39.698 54.391 39.6993C54.3935 39.7005 54.396 39.7031 54.3985 39.7043C54.3998 39.7043 54.3998 39.7043 54.3998 39.7043C54.4023 39.7056 54.4048 39.7056 54.4061 39.7056C54.4336 39.7156 54.4637 39.7219 54.4938 39.7219C54.5227 39.7219 54.5515 39.7156 54.5791 39.7056C54.5829 39.7056 54.5841 39.7056 54.5866 39.7043C54.5904 39.7031 54.5929 39.7005 54.5954 39.6993C54.5979 39.698 54.6004 39.6955 54.6029 39.6943C54.623 39.6855 54.6406 39.6755 54.6581 39.6617C54.6619 39.6592 54.6669 39.6579 54.6707 39.6541L66.386 29.1942C66.3885 29.1929 66.3885 29.1891 66.391 29.1879C66.4161 29.1641 66.4374 29.1352 66.4524 29.1026Z" fill="#7E5E4C"/>
</g>
<mask id="mask1_262_2287" style="mask-type:luminance" maskUnits="userSpaceOnUse" x="27" y="39" width="55" height="62">
<path d="M27.3662 39.6868H81.936V100.416H27.3662V39.6868Z" fill="white"/>
</mask>
<g mask="url(#mask1_262_2287)">
<path d="M81.5798 85.0205C80.9729 86.8627 80.3107 88.5394 79.6473 90.0242C78.9024 91.6732 77.9631 93.0752 76.832 94.2302C75.6996 95.3852 74.2913 96.2919 72.636 96.8963C71.007 97.502 68.9365 97.8043 66.4786 97.8043H43.1233C46.0765 95.9897 49.1414 94.3406 52.1499 92.6087C54.0836 91.4814 56.0161 90.3264 57.8934 89.0886C57.8934 90.0242 58.4176 90.9584 59.1901 91.5089C60.5708 92.5536 62.5309 92.5536 64.1599 92.4156C65.1543 92.3329 66.1199 92.1962 67.0868 91.9754C67.2248 91.9479 67.1972 91.7284 67.0592 91.7008C65.7337 91.4538 64.7668 90.4643 63.8288 89.6116C63.3322 89.1714 62.8343 88.7588 62.2826 88.4566C61.7032 88.1544 61.095 87.9625 60.4604 87.8521C60.2121 87.8246 59.9638 87.797 59.7155 87.797C60.8743 86.9718 62.0067 86.0927 63.0826 85.1585C63.3598 84.9102 63.6357 84.6631 63.9116 84.4161C65.2647 84.6355 66.7821 84.3885 67.7489 83.3439C68.1904 82.8485 68.5214 82.2441 68.6042 81.612C68.7146 80.842 68.4663 80.1548 68.1352 79.4676C68.0524 79.2745 67.7489 79.2193 67.5558 79.3297C67.5558 79.3297 67.5282 79.3297 67.5282 79.3572C67.4731 79.3848 67.3903 79.44 67.3351 79.4939C64.7392 82.8761 61.426 85.6526 57.8934 88.044C57.0921 88.5945 56.292 89.1162 55.4631 89.6116C57.0645 87.9073 58.5555 86.0927 59.7431 84.0863C60.9294 82.0509 61.6756 79.8513 61.9239 77.5426L61.9515 77.515C62.6412 76.5532 63.746 75.9751 64.7944 75.5086C64.822 75.5901 64.8496 75.6453 64.9048 75.7004C64.9875 75.7832 65.0703 75.8384 65.1819 75.8936C65.3199 75.9475 65.4578 75.9212 65.5957 75.8936C65.7613 75.866 65.9544 75.8108 66.0924 75.728C66.2579 75.6453 66.4234 75.5362 66.5338 75.3706C66.589 75.2603 66.6165 75.1236 66.6165 74.9856C66.6165 74.9029 66.589 74.7938 66.5614 74.711C66.5338 74.6007 66.451 74.4915 66.3682 74.3812C66.2855 74.2984 66.1751 74.2432 66.0648 74.1881C65.8716 74.1066 65.6509 74.1341 65.4578 74.1881C65.2371 74.2432 65.0703 74.3536 64.8772 74.4915C64.8496 74.5179 64.822 74.5455 64.822 74.5731C63.8012 75.0132 62.7792 75.481 61.9791 76.1958C62.0067 75.8108 62.0067 75.3982 61.9791 75.0132C61.9515 74.4915 61.9239 73.941 61.8687 73.4193C62.0343 73.5284 62.2274 73.6112 62.3929 73.694C62.9171 73.9134 63.4701 74.0514 63.9392 74.0514C64.5737 74.0514 65.1819 73.8858 65.7889 73.6664C66.4234 73.4193 67.0592 73.1159 67.7214 72.8412C68.4938 72.5114 69.3228 72.1816 70.1229 71.8242C70.2608 71.769 70.178 71.5771 70.0401 71.5771C68.8262 71.5771 67.7765 70.9451 66.6165 70.5325C66.0096 70.3394 65.375 70.1751 64.6841 70.2027C63.9943 70.2303 63.3046 70.4222 62.6688 70.7796C62.255 71.0266 61.8687 71.3288 61.5652 71.6862C61.4549 71.137 61.3157 70.5877 61.1502 70.0648C61.9239 70.2566 62.724 70.2566 63.4977 70.1199C64.9048 69.8729 66.1475 69.1844 67.2799 68.3053C67.9972 67.7561 68.6594 67.0952 69.2952 66.4631C69.3779 66.3804 69.4055 66.2989 69.3779 66.1885C70.9242 65.2806 72.2209 63.9613 72.8015 62.1191C73.1601 60.9654 73.1877 59.6173 72.8291 58.3532C72.7739 58.1614 72.5256 57.9958 72.3864 58.1062L71.7519 58.5727C71.8622 57.666 71.807 56.7042 71.6415 55.7686C71.5036 54.9447 71.3104 54.092 71.1173 53.2668L80.8625 39.6868H36.4969L35.2541 54.0644H35.8899C36.2486 52.0579 36.6624 50.3261 37.1314 48.8689C37.6569 47.2737 38.4294 45.9545 39.3962 44.965C40.3618 43.9743 41.6598 43.2332 43.2336 42.793C44.751 42.3805 46.7123 42.161 49.0587 42.161H69.9297L63.8564 50.7926C63.4701 50.3261 63.0275 49.8859 62.5584 49.5009C61.0122 48.2356 59.2729 47.2462 57.5059 46.4762C57.2576 46.3671 57.0093 46.6141 57.1197 46.8612C57.4783 47.6311 57.5611 48.4287 57.5611 49.2263C56.8989 49.0608 56.2368 49.1711 55.5734 49.2815C54.9113 49.363 54.0836 49.3906 53.6133 48.7861C53.4754 48.593 53.0892 48.6482 53.0892 48.9241C53.0892 49.8032 53.0892 50.6559 53.0892 51.5074C53.0892 52.0027 53.0892 52.5796 53.3375 53.0474C52.2615 52.937 51.1843 52.8818 50.1622 52.5796C50.0794 52.4705 49.8863 52.4429 49.7484 52.5244L49.7208 52.552C49.5828 52.6348 49.5277 52.8542 49.638 52.9646C49.6656 53.9816 49.4173 54.9723 49.169 55.9618C48.8379 55.6595 48.3401 55.494 47.8711 55.4112C47.071 55.2194 46.2697 55.0538 45.4696 54.8896C45.2213 54.8344 45.0557 55.1918 45.1937 55.3561C45.6351 55.879 45.3592 56.649 45.0557 57.2258C44.751 57.804 44.4475 58.3532 44.3648 58.9577C43.6474 58.821 42.9841 58.5727 42.4323 58.1877C42.2392 58.051 41.9633 58.2429 41.9633 58.4636C42.0736 59.9208 42.2667 61.3504 42.5702 62.7524C42.8461 64.0441 43.3716 65.2267 44.282 66.1609C44.5579 66.4356 44.8338 66.6839 45.1385 66.9033C43.2888 67.2331 41.715 68.4433 40.1687 69.5418C40.0308 69.6522 39.948 69.8453 40.086 69.9544C41.577 71.0542 43.0129 72.3471 44.9454 73.0068L44.2268 73.309C44.0337 73.3918 44.0337 73.6112 44.1165 73.7216C44.8062 74.4364 45.7455 74.8753 46.7951 75.096L35.1438 91.6456C34.8955 90.3816 34.7023 89.0886 34.7299 87.7694C34.7575 87.7694 34.7575 87.7418 34.7851 87.7418C35.2265 87.3292 35.6692 86.9455 36.1106 86.5329C36.1934 86.4777 36.2486 86.3949 36.3313 86.3398C36.7176 86.6144 37.3797 86.4225 37.7396 86.1203C37.9879 85.8996 38.0983 85.5422 37.9879 85.2124C37.8776 84.8826 37.5741 84.6631 37.2694 84.5803C36.9383 84.5252 36.6072 84.6079 36.3589 84.8274C36.2486 84.9377 36.1658 85.0757 36.1106 85.24C36.1106 85.2952 36.083 85.3779 36.083 85.4331C36.0555 85.4607 36.0279 85.4883 36.0279 85.4883C35.6128 85.8457 35.2265 86.2307 34.8127 86.5881C35.0058 84.7183 35.6968 83.014 36.4969 81.3361C36.5796 81.4465 36.69 81.5293 36.8279 81.5844C37.159 81.7763 37.6017 81.8591 38.0155 81.8039C39.0915 81.6659 39.948 80.7869 40.555 79.9893C40.9136 79.4939 41.2184 78.9723 41.4667 78.4493C41.4942 78.3678 41.3839 78.3126 41.3287 78.3678C40.7481 78.9171 39.8928 78.9723 39.1743 79.055C38.788 79.1102 38.4294 79.1365 38.0707 79.2469C37.85 79.3297 37.6293 79.4124 37.4349 79.5215C37.9879 78.4217 38.5121 77.2956 38.8708 76.113C39.2294 76.113 39.479 75.8384 39.6169 75.5086C39.7273 75.2064 39.6445 74.8753 39.5066 74.6007C39.3962 74.3812 39.2019 74.1605 38.9536 74.0238C38.6501 73.8858 38.319 73.8583 38.0155 74.0238C37.7396 74.1605 37.5741 74.464 37.5465 74.7662C37.4913 75.0684 37.5465 75.4258 37.6845 75.7004C37.7672 75.8384 37.8776 75.9475 38.0155 76.0303C37.2418 78.3402 35.9175 80.4019 34.9782 82.6566C34.9231 82.7657 34.8955 82.9037 34.8403 83.014C34.7299 82.4635 34.5092 81.9418 34.2057 81.5017C33.2113 80.1272 31.5547 79.5491 30.1476 78.8619C29.2911 78.4493 28.4359 77.9828 27.6069 77.4599C27.469 77.3771 27.3311 77.5702 27.4138 77.6806C27.8001 78.2574 28.0484 78.8895 28.2703 79.5491C28.4911 80.2087 28.6842 80.8972 28.9601 81.5568C29.236 82.2441 29.5946 82.9037 30.0925 83.453C30.5891 84.0035 31.196 84.47 31.8306 84.7735C32.5767 85.1309 33.3768 85.3227 34.1506 85.3503C34.0678 85.7353 34.0126 86.0927 33.985 86.4777C33.8471 87.8797 33.9574 89.2818 34.1781 90.6562C34.2885 91.2882 34.3989 91.8939 34.5368 92.526L29.6774 99.3718V100.416H79.2059L81.8845 85.0757L81.5798 85.0205ZM67.6938 80.457C67.8041 80.7869 67.8869 81.1167 67.8317 81.4741C67.7765 81.9958 67.5006 82.4635 67.142 82.8485C66.5062 83.5081 65.6233 83.7552 64.7116 83.7288C65.7889 82.683 66.7821 81.612 67.6938 80.457ZM58.1969 88.8968C58.2521 88.8692 58.3072 88.814 58.3624 88.7864L58.6107 89.1438C58.7762 89.3921 58.9694 89.6668 59.1625 89.9138C59.3556 90.1608 59.5487 90.4091 59.7707 90.6286C59.9914 90.8493 60.2397 91.0412 60.5156 91.2067C60.2397 91.0412 59.9914 90.8217 59.7983 90.601C59.5763 90.354 59.4108 90.1069 59.2177 89.8586C59.0521 89.6116 58.8866 89.3369 58.7211 89.0623C58.6383 88.9244 58.5555 88.814 58.5004 88.6773C58.5279 88.6497 58.5555 88.6221 58.6107 88.5945C58.9142 88.9244 59.2453 89.2266 59.6052 89.5012C59.8535 89.6943 60.1018 89.8862 60.3777 90.0517C60.6536 90.216 60.9294 90.354 61.2329 90.4643C62.4205 90.9308 63.6909 91.124 64.9048 91.4538C63.6909 91.0964 62.4205 90.8757 61.2605 90.354C60.9846 90.216 60.6811 90.0793 60.4328 89.9138C60.157 89.7495 59.9087 89.5564 59.6879 89.3645C59.3556 89.0886 59.0521 88.7864 58.7487 88.4566C58.7762 88.4566 58.7762 88.429 58.8038 88.429C59.9914 89.199 61.3709 89.6116 62.7516 89.6392C61.3985 89.5564 60.0466 89.0886 58.9418 88.3199C59.0521 88.2371 59.1625 88.1544 59.2729 88.0716C60.2397 88.044 61.1777 88.2371 62.0067 88.6773C63.1378 89.2542 63.9943 90.2712 65.0151 91.0412C65.4302 91.3434 65.8716 91.618 66.3682 91.8112C65.7337 91.9215 65.1255 92.0306 64.4633 92.0858C63.6633 92.1686 62.8343 92.1962 62.0067 92.141C61.1777 92.0858 60.3501 91.8939 59.6328 91.4814C59.0521 91.1515 58.6107 90.6562 58.3348 90.0793C58.2245 89.7219 58.1417 89.3093 58.1969 88.8968ZM62.8068 71.1922C63.3874 70.8348 64.0771 70.614 64.7392 70.5601C66.0924 70.4773 67.2248 71.0818 68.3007 71.4944C68.7421 71.6599 69.1848 71.7966 69.6538 71.8794C69.1296 72.0988 68.6042 72.3195 68.08 72.539C67.4179 72.8136 66.7545 73.0895 66.1751 73.3366C65.5682 73.5836 64.9599 73.8031 64.353 73.8307C63.8564 73.8583 63.3598 73.8043 62.8343 73.6112C62.5309 73.5009 62.1998 73.3366 61.9515 73.1159C61.9515 73.0343 61.9239 72.9516 61.9239 72.8688C62.0618 72.8688 62.1722 72.8688 62.3102 72.8964C62.586 72.924 62.8895 72.9516 63.1378 73.0068C63.415 73.0619 63.6909 73.1159 63.9392 73.1434C64.215 73.1986 64.4633 73.1986 64.7392 73.1986C64.4909 73.1986 64.215 73.171 63.9667 73.1159C63.7184 73.0619 63.4426 73.0068 63.1654 72.924C62.8895 72.8688 62.6136 72.8136 62.3377 72.7585C62.1998 72.7321 62.0618 72.7321 61.8963 72.7045C61.8963 72.6769 61.8963 72.6218 61.8687 72.5942C62.3102 72.539 62.7792 72.5114 63.193 72.4838C63.4977 72.4562 63.7736 72.4562 64.0495 72.4286C64.3254 72.4011 64.6289 72.3747 64.9048 72.3195C66.0096 72.154 67.142 71.907 68.2731 71.907C67.142 71.8794 66.0096 72.0988 64.9048 72.2368C64.6289 72.2644 64.353 72.292 64.0495 72.3195C63.7736 72.3471 63.4701 72.3471 63.193 72.3747C62.7516 72.4011 62.3102 72.4011 61.8411 72.4562V72.4286C63.2206 71.9897 64.5461 71.5771 65.8165 71.0542C64.5185 71.5496 63.193 71.8794 61.8135 72.2644C61.8135 72.2092 61.786 72.1816 61.786 72.154C62.0618 71.7414 62.4205 71.4392 62.8068 71.1922ZM36.6072 80.9787C36.6348 80.9787 36.6624 81.0063 36.69 81.0063C36.8831 81.0615 37.0487 81.0891 37.2418 81.1167C37.4349 81.1443 37.6293 81.1718 37.8224 81.1718C38.0155 81.1718 38.2087 81.1443 38.4018 81.0891C38.2087 81.1443 38.0155 81.1443 37.8224 81.1443C37.6293 81.1167 37.4349 81.0891 37.2694 81.0615C37.0762 81.0063 36.9107 80.9787 36.7176 80.9235C36.69 80.9235 36.6624 80.8972 36.6348 80.8972C36.6624 80.8696 36.6624 80.8144 36.69 80.7869C36.8831 80.7869 37.0762 80.7869 37.297 80.7869C37.4913 80.7593 37.6845 80.7593 37.85 80.7041C38.0431 80.6489 38.2087 80.5937 38.4018 80.5122C39.1191 80.2087 39.6997 79.7146 40.3067 79.2745C39.6721 79.6871 39.0639 80.1548 38.3742 80.457C38.2087 80.5122 38.0155 80.5937 37.85 80.6213C37.6569 80.6489 37.4913 80.6765 37.297 80.7041C37.1038 80.7041 36.9383 80.7041 36.7452 80.7041C36.7728 80.6765 36.7728 80.6213 36.8004 80.5937C37.5189 80.4295 38.1811 80.072 38.6501 79.5491C38.1535 80.0169 37.5189 80.3467 36.8279 80.4846C36.9383 80.2639 37.0487 80.0445 37.159 79.825C37.4073 79.6595 37.6569 79.5491 37.9328 79.44C38.6225 79.2193 39.3962 79.2469 40.1411 79.0826C40.4446 78.9998 40.7205 78.8895 40.9964 78.7252C40.8309 79.055 40.6377 79.3848 40.417 79.7146C40.1411 80.1272 39.8101 80.5122 39.4238 80.8696C39.0639 81.1994 38.5949 81.5017 38.0983 81.612C37.712 81.7211 37.297 81.6935 36.9383 81.5293C36.7452 81.4465 36.5796 81.3361 36.4417 81.1718C36.5521 81.1167 36.5796 81.0615 36.6072 80.9787ZM34.5368 83.7552C34.4264 84.0587 34.3437 84.3609 34.2609 84.6631L34.0402 84.0587C33.9298 83.7552 33.7919 83.453 33.6803 83.1507C33.5699 82.8485 33.432 82.5463 33.294 82.2441C33.1561 81.9418 32.963 81.6935 32.7699 81.4465C32.963 81.6935 33.1285 81.9694 33.2665 82.2716C33.4044 82.5739 33.5148 82.8761 33.6251 83.1783C33.7355 83.4805 33.8195 83.8104 33.9298 84.1126L34.2057 84.9102L34.1781 84.9377C33.8747 84.4161 33.5423 83.8931 33.1837 83.3714C32.9906 83.0956 32.7699 82.8485 32.5767 82.6015C32.356 82.3532 32.1077 82.1061 31.8858 81.8867C30.9201 81.0063 29.8153 80.2639 28.9877 79.2469C29.7877 80.2639 30.8925 81.0339 31.8306 81.9418C32.0801 82.1613 32.3008 82.4083 32.494 82.6566C32.7147 82.9037 32.9078 83.1783 33.0733 83.453C33.4044 83.9207 33.6803 84.4161 33.9574 84.9102C32.8802 83.7013 31.5271 82.7657 30.0636 82.0509C31.4995 82.8209 32.7699 83.7828 33.7631 84.9929C32.5216 84.855 31.3064 84.2781 30.4235 83.3163C29.9257 82.7933 29.567 82.1613 29.2911 81.5017C29.0152 80.842 28.8221 80.1824 28.6014 79.5215C28.4359 78.9998 28.2428 78.5045 27.9932 78.0104C28.5462 78.3402 29.1256 78.6424 29.6774 78.9447C30.3959 79.3021 31.1133 79.6319 31.803 79.9893C32.494 80.3467 33.1837 80.7593 33.7079 81.3637C34.123 81.8591 34.4264 82.4359 34.5368 83.0956C34.5368 83.3439 34.5368 83.5633 34.5368 83.7552ZM57.6438 85.8181C57.6163 85.6801 57.6163 85.5698 57.5887 85.4331C57.5611 85.24 57.5335 85.0757 57.5059 84.8826C57.4783 84.6907 57.4231 84.5252 57.368 84.3333C57.3128 84.1402 57.23 83.9759 57.1197 83.8104C57.23 83.9759 57.2852 84.1402 57.3404 84.3333C57.3955 84.5252 57.4231 84.6907 57.4507 84.8826C57.4783 85.0757 57.4783 85.24 57.5059 85.4331C57.5059 85.5974 57.5335 85.7353 57.5335 85.8996C57.5335 85.8996 57.5059 85.8996 57.5059 85.9272C57.4231 85.5974 57.3128 85.2676 57.1748 84.9653C57.0921 84.8011 57.0093 84.6355 56.8989 84.47C56.7886 84.3057 56.6782 84.1678 56.5403 84.0311C56.0161 83.453 55.3803 83.0404 54.8009 82.5739C55.3803 83.068 56.0161 83.5081 56.5127 84.0863C56.6231 84.2229 56.761 84.3885 56.8438 84.5252C56.9541 84.6907 57.0369 84.855 57.0921 85.0205C57.23 85.3227 57.3128 85.625 57.3955 85.9272C56.9817 85.1309 56.3196 84.47 55.5182 84.0863C56.292 84.4976 56.8989 85.1585 57.2576 85.9272C56.5955 85.7077 56.0437 85.2952 55.6286 84.7735C55.1872 84.1678 54.994 83.4254 54.6078 82.7382C54.4699 82.4635 54.2767 82.2165 54.0548 82.0233C54.4147 82.1061 54.8009 82.1889 55.1596 82.3268C55.6286 82.4911 56.0989 82.6842 56.5127 82.9313C56.9541 83.1783 57.3404 83.4805 57.6163 83.9207C57.8382 84.2505 57.9486 84.6355 57.921 85.0205C57.9486 85.2952 57.8382 85.5974 57.6438 85.8181ZM60.4604 76.113C60.5708 76.251 60.6536 76.3601 60.7363 76.5256C60.8191 76.6623 60.9019 76.8002 60.957 76.9382C61.0122 77.0473 61.0674 77.1852 61.1226 77.2956C61.1226 77.2956 61.1226 77.2956 61.1226 77.3232C60.957 77.1025 60.7639 76.8554 60.5432 76.6623C60.4328 76.5532 60.2949 76.4428 60.157 76.3601C60.019 76.2786 59.8811 76.1958 59.7155 76.1406C59.1073 75.8936 58.4452 75.8108 57.8106 75.7004C58.4452 75.8384 59.1073 75.9212 59.6879 76.1958C59.8259 76.251 59.9638 76.3325 60.1018 76.4153C60.2397 76.498 60.3501 76.6084 60.4604 76.7175C60.6536 76.9106 60.8191 77.1025 60.9846 77.3232C60.4328 76.8278 59.6604 76.5532 58.9142 76.5532C59.6604 76.5808 60.3777 76.883 60.9019 77.3771C60.3225 77.4047 59.7707 77.2956 59.2729 77.0473C58.7211 76.7451 58.2796 76.251 57.7266 75.8936C57.5059 75.7556 57.2576 75.6453 57.0093 75.5901C57.3128 75.481 57.6438 75.3982 57.9762 75.343C58.39 75.2603 58.8314 75.2327 59.2729 75.2603C59.7155 75.2879 60.157 75.3982 60.5156 75.6177C60.8191 75.8108 61.0398 76.0854 61.1502 76.3877C61.2329 76.636 61.2605 76.9106 61.1502 77.1576C61.095 77.0473 61.0398 76.9658 60.9846 76.8554C60.9019 76.7175 60.8191 76.5808 60.7363 76.4428C60.6811 76.3601 60.5984 76.2234 60.4604 76.113C60.3777 75.9751 60.2397 75.866 60.1018 75.7832C60.2397 75.866 60.3501 76.0027 60.4604 76.113ZM64.6565 69.3224C63.415 69.7901 61.9515 69.8729 60.7087 69.3224C60.7087 69.212 60.6811 69.1029 60.5708 69.0477C60.7639 68.8283 60.9846 68.58 61.1777 68.3329C62.255 68.7179 63.4701 68.7179 64.5185 68.3053C63.4701 68.6627 62.3102 68.58 61.2881 68.1674C61.3985 68.0307 61.5101 67.8928 61.6204 67.7824C61.7584 67.6181 61.8687 67.4802 62.0067 67.3159C63.9667 68.1135 66.2027 67.7561 68.08 66.9861C67.0868 67.9479 65.982 68.8283 64.6565 69.3224ZM71.7519 59.591L72.5256 59.0405C72.9394 61.0745 72.2209 63.0547 70.9794 64.3739C70.2056 65.1991 69.24 65.8035 68.2455 66.2437C67.3351 66.6563 66.3682 66.9585 65.375 67.0952C64.3806 67.2331 63.3322 67.1504 62.3653 66.8206C62.3929 66.7654 62.4205 66.7102 62.4205 66.6563C65.6233 66.8206 68.8262 65.6117 70.8414 63.1638C68.7973 65.4461 65.7061 66.4907 62.7516 66.2989C65.2923 65.5841 67.9145 64.8417 69.847 62.9167C70.7035 62.0652 71.3932 60.993 71.7243 59.7553C71.7243 59.7001 71.7519 59.6449 71.7519 59.591ZM65.9268 55.0814C66.7821 53.2944 68.4938 52.4153 70.1504 51.5902C70.3712 52.3602 70.6195 53.1577 70.8138 53.954C71.2277 55.6595 71.5036 57.3914 71.2001 59.0129C70.7311 61.5699 68.8538 63.2189 66.7545 64.236C65.5682 64.7865 64.3254 65.1991 63.0826 65.5565H63.0551C63.8012 65.2267 64.4633 64.7589 65.0427 64.236C65.6785 63.6591 66.2303 62.9719 66.7269 62.2295C67.6662 60.7447 68.3007 59.0405 68.8813 57.3362C68.549 58.1877 68.218 59.0129 67.8593 59.8104C67.4731 60.608 67.0592 61.3767 66.5614 62.0915C66.0648 62.8064 65.4854 63.4396 64.8496 63.9889C64.5185 64.2911 64.1323 64.5394 63.7736 64.7589C64.9048 63.6867 65.7889 62.3674 66.3131 60.8826C66.4234 60.5528 66.5338 60.2506 66.6165 59.9208C66.8097 59.2336 66.9765 58.5188 67.1696 57.8303C67.4455 56.8133 67.8041 55.7962 68.3835 54.9447C67.7489 55.7686 67.3903 56.7581 67.0592 57.7764C66.7821 58.6555 66.5614 59.5358 66.2579 60.3873C66.2027 60.5252 66.1751 60.6356 66.1199 60.7723C65.5957 62.1191 64.7668 63.3017 63.7736 64.2636C63.9943 63.8786 64.1875 63.4948 64.3806 63.0822C65.1543 61.5147 65.7613 59.8104 65.9268 57.9958C66.0096 57.0616 65.982 56.1261 65.8165 55.1642C65.8992 55.1642 65.8992 55.1366 65.9268 55.0814ZM61.648 49.5285C62.3377 50.0502 62.9723 50.6283 63.5253 51.2879C63.9943 51.8648 64.3806 52.4968 64.6841 53.1853C65.9268 56.0709 65.4578 59.1784 64.3806 61.7617C64.1599 62.3123 63.884 62.8615 63.6081 63.4121C63.9667 61.5975 64.0219 59.6725 63.746 57.7488C63.4977 56.1261 63.0275 54.5046 62.3377 52.9922C62.0343 52.305 61.648 51.6178 61.2605 50.9857C61.648 51.6729 61.9791 52.3602 62.2826 53.075C62.8895 54.5873 63.2758 56.1812 63.4426 57.7488C63.6357 59.4254 63.5529 61.1021 63.2206 62.6972C63.3322 61.4043 63.3046 60.0851 63.0826 58.7658C62.9447 57.9131 62.6964 57.0616 62.3377 56.264C62.0618 55.632 61.7032 54.9987 61.2881 54.4494C61.1777 54.3114 61.0674 54.1748 60.957 54.0368C61.0674 54.1748 61.1777 54.3114 61.2881 54.477C61.6756 55.0538 62.0067 55.6595 62.255 56.2916C62.5584 57.0892 62.7792 57.9407 62.8895 58.7658C63.0275 59.838 63.0275 60.8826 62.9447 61.9273C62.9171 61.7341 62.8895 61.5423 62.8343 61.3504C62.4757 59.5082 61.5928 57.7764 60.3501 56.4007C60.2673 56.3192 60.1845 56.2364 60.1018 56.1536C60.1018 56.1536 60.1018 56.1261 60.0742 56.1261C60.0466 56.0985 60.0466 56.0985 60.019 56.0709C59.8811 55.9066 59.7155 55.7686 59.5487 55.632C58.9142 54.8896 58.5555 53.8449 58.3072 52.937C58.1693 52.3877 58.0865 51.8096 58.1141 51.2328C58.1417 50.518 58.1969 49.8032 58.1969 49.0608C58.1969 48.4839 58.1141 47.9058 57.9486 47.3289C59.2177 47.9334 60.488 48.6482 61.648 49.5285ZM53.7237 51.1776C53.7237 50.6559 53.7237 50.1054 53.7237 49.5837C54.1664 49.8583 54.7182 49.9411 55.2423 49.9135C55.9885 49.8859 56.7886 49.5837 57.5611 49.8307C57.5335 50.2985 57.5059 50.7926 57.5059 51.2604C57.4783 52.2774 57.7266 53.3496 58.1417 54.3114C57.368 53.5151 56.6782 52.6348 56.0713 51.7005C56.5955 52.6072 57.2024 53.4599 57.8934 54.2839C56.8162 53.7622 55.8769 52.937 55.1872 51.9476C55.6838 52.7451 56.3196 53.4324 57.0645 53.9816H57.0369C56.6231 53.7898 56.1816 53.5966 55.739 53.4599C55.2423 53.322 54.7733 53.2116 54.2491 53.1301C54.2216 53.1025 54.194 53.0474 54.1664 53.0474C53.5858 52.6348 53.7237 51.782 53.7237 51.1776ZM49.4173 57.9407C49.638 56.3468 50.2726 54.7792 50.2726 53.1577C51.7085 53.5151 53.1719 53.4875 54.6354 53.7622C56.2644 54.0644 57.8382 54.862 59.1349 56.0169C59.2729 56.2088 59.4384 56.3468 59.6328 56.511C59.6604 56.511 59.6604 56.5386 59.6879 56.5386C59.7155 56.5662 59.7431 56.5938 59.7707 56.6214C62.0067 59.0129 62.9447 62.4765 62.1722 65.5289C62.0894 65.8863 62.0067 66.3265 61.8135 66.6563C61.7032 66.8481 61.5101 67.0413 61.3709 67.2331C61.0674 67.5905 60.7639 67.9755 60.4604 68.3329C60.4053 68.1674 60.3777 67.9755 60.3501 67.7824C60.3225 67.3987 60.3225 66.9861 60.3501 66.5735C60.3777 65.7483 60.4604 64.9232 60.4053 64.0717C60.3225 62.3674 59.6879 60.6895 58.6107 59.3703C59.6328 60.7447 60.2121 62.4226 60.2121 64.0717C60.2121 64.8968 60.1294 65.7208 60.0466 66.5735C60.019 66.9861 59.9914 67.3987 60.019 67.8376C60.019 67.9203 60.019 68.0307 60.0466 68.1135C59.6328 67.5905 59.2729 67.0137 58.9418 66.408C58.6935 65.9691 58.4728 65.5289 58.2521 65.0887C58.0313 64.6485 57.8106 64.182 57.6163 63.7143C57.3955 63.2465 57.2024 62.8064 56.9817 62.3398C56.8162 62.01 56.6506 61.6802 56.4851 61.3504C56.4299 61.24 56.3748 61.1021 56.292 60.993C55.8217 60.0851 55.2975 59.2336 54.663 58.436C55.2699 59.2599 55.739 60.1402 56.1816 61.0469C56.2644 61.1849 56.3196 61.3504 56.3748 61.4871C56.5127 61.7893 56.6506 62.1191 56.7886 62.4226C56.9817 62.8891 57.1748 63.3569 57.3404 63.8246C57.5335 64.2911 57.699 64.7589 57.921 65.2267C58.1141 65.6932 58.3348 66.1609 58.5555 66.6011C58.8314 67.1504 59.1073 67.6733 59.466 68.1674C58.8866 67.6457 58.3624 67.0413 57.8658 66.4356C57.1472 65.5013 56.4851 64.5394 55.8769 63.5212C55.739 63.2741 55.601 63.0547 55.4631 62.8064C54.4147 61.0193 53.4202 59.1784 52.1499 57.5005C53.3926 59.2336 54.3319 61.1021 55.3527 62.9443C55.4631 63.1638 55.601 63.3845 55.7114 63.6039C56.292 64.621 56.9265 65.638 57.6163 66.6011C58.2521 67.4526 58.9694 68.2502 59.7707 68.9926C59.6879 68.9926 59.6052 68.9926 59.5212 68.9926C58.4176 68.6352 57.368 68.2226 56.4023 67.6457C55.3527 67.0413 54.4147 66.2713 53.6961 65.3082C53.6133 65.2267 53.5582 65.1163 53.4754 65.0059C53.5306 65.1163 53.6133 65.2267 53.6685 65.3082C54.3319 66.2989 55.2423 67.1228 56.292 67.81C57.0093 68.2778 57.783 68.6903 58.6107 69.0201C58.39 69.0201 58.1693 69.0201 57.9486 69.0201C57.1472 68.9926 56.4023 68.8283 55.6838 68.5524C53.4754 67.7285 51.5153 65.9954 50.4945 63.9061C49.5553 62.0376 49.1414 59.9747 49.4173 57.9407ZM58.859 69.5418C59.2177 69.5418 59.5487 69.5155 59.9087 69.5418C59.9362 69.5418 59.9362 69.5418 59.9362 69.5418H59.9638C59.7155 70.6416 58.9418 71.5496 58.0038 72.2092C57.783 72.3471 57.5887 72.4838 57.368 72.5942C56.1265 73.2538 54.7733 73.5284 53.4202 73.7492C54.2491 73.3366 55.0216 72.8136 55.7114 72.2092C56.5403 71.4668 57.23 70.5601 57.5611 69.4879C57.921 69.5155 58.2796 69.5155 58.6659 69.5155C58.3348 70.5049 57.6438 71.3564 56.7334 71.907C57.699 71.4392 58.4728 70.5877 58.859 69.5418ZM44.973 59.0129C45.0281 58.2705 45.5523 57.6384 45.8282 56.9788C46.0214 56.511 46.1041 55.9894 45.9938 55.5216C46.4904 55.632 46.9882 55.7411 47.4572 55.8514C48.009 55.9894 48.8655 56.0709 49.0035 56.7318C49.0035 56.7318 49.0035 56.7318 49.0035 56.7581C48.9483 57.034 48.8931 57.3362 48.8379 57.6384C48.7552 58.1877 48.7276 58.7382 48.7276 59.2875C48.5056 58.5727 48.147 57.9131 47.6504 57.3638C48.3401 58.2153 48.7 59.3151 48.7552 60.3873C48.3401 59.5634 47.7883 58.7658 47.1538 58.1062C47.7883 58.8762 48.3125 59.7277 48.6724 60.6356C48.4228 60.4149 48.1745 60.223 47.9262 60.0575C47.4572 59.7553 46.9606 59.4806 46.4352 59.3427C45.9662 59.1784 45.4696 59.1232 44.973 59.0129ZM45.1385 66.0506C44.1716 65.1991 43.5923 64.1544 43.2888 62.9167C42.9565 61.625 42.7633 60.2782 42.653 58.9025C43.5923 59.3979 44.6958 59.5358 45.7731 59.7277C46.8779 59.9484 47.8435 60.5252 48.6172 61.3228C48.7828 61.5147 48.9759 61.7078 49.1138 61.9549C49.1414 62.0652 49.169 62.1743 49.1966 62.2847C49.7484 64.182 50.8532 65.8863 52.3442 67.178L52.3167 67.2055C51.6257 66.8757 50.936 66.5183 50.3002 66.1057C49.6656 65.6932 49.0862 65.2267 48.562 64.7037C48.0642 64.182 47.5952 63.5763 47.2641 62.9167C47.5676 63.6039 47.9814 64.2096 48.478 64.7589C48.9759 65.3082 49.5277 65.8035 50.1622 66.2437C50.7704 66.6839 51.4326 67.0676 52.1223 67.425C52.4822 67.6181 52.8684 67.81 53.2547 67.9755C52.8409 67.8376 52.4546 67.7009 52.0395 67.5354C51.0463 67.1228 50.0794 66.6563 49.169 66.1333C47.4021 65.0887 45.8558 63.8522 44.5579 62.3398C45.7731 63.8786 47.2641 65.2267 49.0035 66.3528C49.8863 66.9309 50.798 67.425 51.7912 67.8928C52.3718 68.1674 52.9788 68.3881 53.5858 68.6076C52.8684 68.5524 52.1499 68.4972 51.4326 68.4157C50.3842 68.2778 49.3621 68.0859 48.3677 67.7561C47.1538 67.425 46.0214 66.8481 45.1385 66.0506ZM43.3164 71.4944C42.4047 70.9175 41.6046 70.2842 40.7757 69.6522C42.2943 68.58 43.8406 67.4526 45.7179 67.3159C45.7455 67.3159 45.8006 67.3159 45.8282 67.2883C47.3469 68.2226 49.169 68.7179 51.0739 68.9926C51.2394 69.0201 51.405 69.0477 51.5705 69.0477C52.427 69.1581 53.2823 69.212 54.1388 69.2672C53.0064 69.5418 51.8188 69.6246 50.6601 69.5694C50.4669 69.5694 50.245 69.5418 50.0519 69.5155C49.0862 69.4051 48.147 69.212 47.1813 69.1029C46.2145 68.9926 45.2489 68.965 44.282 69.212C45.2489 68.9926 46.2145 69.0477 47.1813 69.1857C48.1194 69.3224 49.0587 69.5418 50.0243 69.6798C50.1898 69.7074 50.3553 69.735 50.5497 69.735C51.8464 69.8729 53.2271 69.7901 54.5526 69.4879C54.1388 69.6798 53.7237 69.8177 53.3099 69.9268C52.5098 70.1475 51.6533 70.2842 50.8256 70.3394C50.5773 70.367 50.3277 70.367 50.107 70.367C49.5001 70.3946 48.9207 70.3946 48.3401 70.367C47.5124 70.3394 46.6847 70.2842 45.8834 70.2566C47.2365 70.367 48.6172 70.5049 50.0243 70.5325C50.3002 70.5325 50.5773 70.5325 50.8532 70.5325C51.6809 70.5049 52.565 70.3946 53.3926 70.2027C54.1664 70.0096 54.9113 69.735 55.6286 69.35C53.7513 70.752 51.7085 72.0437 49.3897 72.5666C49.0862 72.6218 48.8104 72.6769 48.5056 72.7045C47.6779 72.8136 46.8779 72.786 46.1041 72.6218C45.0006 72.4286 44.1165 71.9897 43.3164 71.4944ZM44.8902 73.5009L45.7731 73.1434C46.518 73.309 47.2641 73.3366 48.0366 73.2814C49.5553 73.171 51.0739 72.6769 52.4546 71.9897C53.8341 71.3025 55.0768 70.4222 56.3196 69.4879C54.6354 71.8794 51.7912 73.4469 48.8379 73.9134C51.874 73.556 54.9389 72.0173 56.7886 69.4603C56.8438 69.4603 56.8989 69.4879 56.9817 69.4879C56.3748 71.2473 54.7733 72.4838 53.1167 73.3366C51.267 74.2984 49.1138 74.8753 47.1538 74.5179C47.1262 74.5179 47.0986 74.5179 47.071 74.4915C46.2421 74.326 45.4696 74.0238 44.8902 73.5009ZM40.0308 97.8318L57.2576 73.2814C58.2245 72.8412 59.1073 72.2092 59.7707 71.3025C60.0466 70.9175 60.2673 70.5049 60.4053 70.0648C61.0398 72.0712 61.3433 74.1881 61.2605 76.2786C61.1502 76.0303 60.9846 75.8108 60.7915 75.6453C60.0742 75.0408 58.997 75.0408 58.1417 75.1788C57.6163 75.2603 57.1197 75.3706 56.6506 75.5638C56.5679 75.5901 56.6231 75.7004 56.6782 75.7004C57.368 75.728 57.921 76.1958 58.39 76.6084C58.6383 76.8278 58.8866 77.0197 59.1625 77.1576C59.4384 77.2956 59.7431 77.4047 60.0466 77.4875C60.4053 77.5702 60.7639 77.5702 61.1502 77.515C61.1502 77.515 61.1777 77.515 61.1777 77.4875C61.1226 78.038 61.0122 78.5873 60.9019 79.1365C60.7639 79.7974 60.5708 80.4295 60.3225 81.0615C59.4936 79.7974 58.1693 78.8895 56.6782 78.5597C56.6782 78.5321 56.7058 78.5045 56.7058 78.4769C56.7058 78.3402 56.6506 78.2023 56.5955 78.0919C56.5403 78.0104 56.4851 77.9276 56.4299 77.8725C56.2368 77.7082 55.9885 77.6254 55.739 77.6806C55.5458 77.7345 55.3803 77.8449 55.2423 77.9828C55.0768 78.1471 54.9665 78.3954 54.994 78.6424C55.0216 78.8619 55.132 79.0274 55.2699 79.1917C55.4355 79.3572 55.6562 79.4676 55.8769 79.4676C55.9333 79.4676 55.9885 79.4676 56.0437 79.4676C56.0989 79.4676 56.154 79.4676 56.1816 79.44C56.2644 79.4124 56.3196 79.3848 56.3748 79.3297C57.8934 79.6319 59.2177 80.6213 59.9362 82.0233C59.4384 83.1507 58.8038 84.2229 58.0865 85.24C58.1693 84.8274 58.1141 84.3885 57.921 84.0035C57.4507 83.068 56.3748 82.5463 55.4355 82.2165C54.8837 81.9958 54.3043 81.8591 53.7237 81.7487C53.6409 81.7211 53.6133 81.8591 53.6685 81.9142C54.3319 82.3532 54.6354 83.1231 54.9113 83.8104C55.0768 84.1678 55.2148 84.4976 55.4631 84.8011C55.6838 85.1033 55.9609 85.3779 56.2644 85.5974C56.5955 85.8457 57.0093 86.0375 57.4231 86.1479C57.2024 86.4501 56.9541 86.7523 56.7058 87.027C55.739 88.182 54.7182 89.2818 53.6685 90.3816C53.8892 88.9795 53.7789 87.4947 53.2823 86.1479C53.2271 86.0375 53.1995 85.8996 53.1443 85.8181C53.2271 85.7353 53.3099 85.6526 53.365 85.5698C53.7237 85.0481 53.7237 84.2781 53.1719 83.8655C52.6753 83.4805 52.0119 83.6185 51.5981 84.0587C51.1567 84.4976 51.0187 85.24 51.405 85.7629C51.5705 85.9824 51.8188 86.1479 52.0947 86.2031C52.1775 86.2031 52.2615 86.2307 52.3442 86.2031C52.3718 86.2031 52.427 86.2031 52.427 86.2031C52.5098 86.3122 52.565 86.6144 52.5926 86.7248C53.0892 88.2647 53.0616 89.9138 52.565 91.4262C50.3553 92.7178 48.147 93.928 45.9386 95.1921C44.4475 96.0448 42.9841 96.9239 41.5218 97.8318H40.0308Z" fill="#A37B40"/>
</g>
</svg>
