<svg width="109" height="109" viewBox="0 0 109 109" fill="none" xmlns="http://www.w3.org/2000/svg">
<path d="M16.5573 37.4653L15.6695 40.6506C15.5892 40.9352 15.5717 41.1773 15.6143 41.3779C15.6582 41.5786 15.7247 41.7391 15.815 41.8595C15.9027 41.9773 15.9755 42.0589 16.0357 42.1053L16.0156 42.1955L14.9421 41.8193C15.2431 40.7434 15.5428 39.6711 15.84 38.604C16.1385 37.5343 16.437 36.462 16.7379 35.3886C16.8658 35.6933 17.0213 35.9742 17.2044 36.2313C17.385 36.4859 17.5781 36.7404 17.7813 36.9938L21.3227 41.4883C21.4205 41.6187 21.5309 41.7566 21.6538 41.8996C21.7742 42.0438 21.9234 42.1805 22.1002 42.3109L22.9881 39.1206C23.0684 38.8372 23.0859 38.5939 23.0433 38.3933C22.9994 38.1926 22.9329 38.0321 22.8426 37.9117C22.7548 37.7913 22.6834 37.7098 22.6269 37.6659L22.652 37.5857L23.7154 37.9519C23.417 39.0228 23.1185 40.0938 22.8175 41.1672C22.5191 42.2407 22.2219 43.3129 21.9247 44.3826C21.788 44.0816 21.6312 43.8045 21.4531 43.5499C21.2763 43.2928 21.087 43.032 20.8863 42.7674L17.3399 38.2779C17.2395 38.1512 17.1292 38.0158 17.0088 37.8716C16.8859 37.7286 16.7354 37.5932 16.5573 37.4653Z" fill="#7E5E4C"/>
<path d="M19.5315 32.4278C19.3083 32.3149 19.0938 32.2171 18.8894 32.1369C18.6825 32.0541 18.4806 32.0039 18.2825 31.9864L18.9597 30.6621C19.0938 30.8001 19.2531 30.9317 19.4362 31.0584C19.6205 31.1825 19.8249 31.3017 20.0482 31.4145C20.1961 31.4923 20.4118 31.6026 20.6953 31.7456C20.9799 31.8898 21.2997 32.0516 21.6533 32.2322C22.0045 32.4128 22.3556 32.5933 22.7067 32.7739C23.0579 32.9545 23.3764 33.1188 23.6598 33.2655C23.9445 33.4097 24.1602 33.5188 24.3069 33.5916C24.5276 33.7057 24.7408 33.7997 24.944 33.8725C25.1509 33.9465 25.3553 34.0004 25.5559 34.033L24.8787 35.3573C24.7421 35.2043 24.5815 35.0688 24.3972 34.9509C24.2141 34.8343 24.0109 34.7189 23.7902 34.6048L19.5315 32.4278Z" fill="#7E5E4C"/>
<path d="M28.2828 29.6639L22.1329 27.6073C21.906 27.5345 21.6664 27.4668 21.4156 27.4066C21.1648 27.3464 20.9341 27.3013 20.7234 27.2712L21.6464 26.1024C21.7868 26.2065 21.9724 26.3056 22.2032 26.3984C22.4314 26.4887 22.6534 26.5727 22.8703 26.6492L28.4634 28.5152L25.3634 23.504C25.2405 23.3071 25.0699 23.1679 24.8517 23.0877C24.631 23.0049 24.4078 22.946 24.1795 22.9121L24.9821 21.9039C25.0599 22.102 25.1552 22.3177 25.268 22.551C25.3822 22.7817 25.5026 22.9974 25.6292 23.198L29.0352 28.7108L28.2828 29.6639Z" fill="#7E5E4C"/>
<path d="M31.227 16.5349L36.5893 20.1866C36.7824 20.3171 36.9956 20.445 37.2263 20.5679C37.4571 20.6883 37.6677 20.7936 37.8583 20.8839L36.6394 21.7617C36.5391 21.625 36.3911 21.4808 36.198 21.3303C36.0036 21.1773 35.813 21.0381 35.6261 20.914C35.4079 20.761 35.1973 20.6381 34.9941 20.5478C34.7935 20.4575 34.5753 20.4224 34.342 20.4425C34.0674 20.46 33.7978 20.5328 33.5344 20.6632C33.2698 20.7936 33.0328 20.9616 32.8221 21.1648C32.6139 21.3654 32.4572 21.5912 32.3506 21.842C32.2402 22.0828 32.1976 22.316 32.2202 22.5392C32.2402 22.7599 32.2879 22.9957 32.3606 23.2465C32.4609 23.6052 32.7882 23.9036 33.3438 24.1444L32.2954 24.9018C32.2791 24.6887 32.2452 24.4554 32.1951 24.2046C32.1449 23.9513 32.0897 23.7118 32.0295 23.4873L30.2388 17.2472L31.227 16.5349ZM34.3721 20.0562L30.7454 17.5883L31.9443 21.8069C32.0722 21.4833 32.2603 21.1936 32.5111 20.9391C32.7619 20.682 33.0478 20.4751 33.3689 20.3171C33.6924 20.1603 34.0272 20.0738 34.3721 20.0562Z" fill="#7E5E4C"/>
<path d="M46.8639 14.5364L46.0864 11.2859C46.0287 11.0427 45.9635 10.8169 45.8908 10.6088C45.8205 10.3981 45.7302 10.21 45.6199 10.0419L47.0696 9.70083C47.0457 9.89521 47.047 10.1021 47.0746 10.3228C47.1047 10.5436 47.1473 10.7768 47.205 11.0201L48.0226 14.4512C48.1493 14.9804 48.1455 15.4544 48.0126 15.8758C47.8784 16.2971 47.659 16.6508 47.3555 16.9342C47.0545 17.2151 46.7059 17.4032 46.3121 17.496C45.9008 17.5963 45.4857 17.5537 45.0681 17.3656C44.6493 17.1787 44.3082 16.8063 44.0398 16.2469L44.1301 16.2269C44.3646 16.558 44.638 16.8113 44.9527 16.9843C45.2663 17.1586 45.6074 17.1887 45.976 17.0746C46.2469 16.9818 46.4588 16.8426 46.6131 16.6583C46.7699 16.4752 46.8752 16.2658 46.9291 16.0313C46.9818 15.798 46.9993 15.5497 46.9793 15.2889C46.9592 15.028 46.9203 14.7772 46.8639 14.5364Z" fill="#7E5E4C"/>
<path d="M56.1647 16.4039L51.0181 16.4942C51.0883 16.3036 51.131 16.1004 51.1485 15.8822C51.1686 15.6615 51.1749 15.4257 51.1686 15.1749C51.1648 15.0119 51.1598 14.7711 51.1536 14.4526C51.1498 14.1316 51.1448 13.7741 51.1385 13.3791C51.131 12.9854 51.1247 12.5903 51.1184 12.1953C51.1109 11.7978 51.1046 11.4404 51.0984 11.1218C51.0909 10.8008 51.0858 10.5588 51.0833 10.3945C51.0796 10.1437 51.0645 9.91044 51.0382 9.69223C51.0156 9.47152 50.9654 9.26962 50.8877 9.08528L55.7484 9L55.8387 10.1286H55.7584C55.7283 10.0559 55.6656 9.96185 55.5728 9.84773C55.4788 9.73487 55.3396 9.63204 55.1565 9.54175C54.9721 9.44895 54.7326 9.4038 54.4392 9.40631L52.207 9.44644L52.2671 12.8825L53.3506 12.8675C53.6478 12.8612 53.8849 12.8098 54.0629 12.712C54.2435 12.6116 54.379 12.5013 54.4692 12.3809C54.5595 12.2605 54.6172 12.169 54.6448 12.105H54.7351C54.7376 12.4135 54.7426 12.7245 54.7502 13.038C54.7564 13.349 54.7614 13.66 54.7652 13.971H54.6749C54.6473 13.8983 54.5871 13.8042 54.4943 13.6901C54.4003 13.5773 54.2611 13.4744 54.078 13.3841C53.8974 13.2913 53.6579 13.2475 53.3607 13.2537L52.2772 13.2688L52.3273 16.0828L54.8354 16.0377C55.1326 16.0352 55.3697 15.985 55.5477 15.8872C55.7283 15.7869 55.8612 15.6765 55.949 15.5561C56.0393 15.4358 56.097 15.3442 56.1246 15.2803H56.2149L56.1647 16.4039Z" fill="#7E5E4C"/>
<path d="M61.1405 16.9568L60.7493 10.4859C60.7355 10.2489 60.7104 10.0031 60.674 9.74856C60.6364 9.49148 60.5912 9.25949 60.5386 9.05131L61.9682 9.47267C61.9243 9.64072 61.903 9.84763 61.903 10.0947C61.903 10.343 61.908 10.58 61.918 10.807L62.2692 16.696L64.5114 13.6512L64.386 11.5594C64.376 11.3262 64.3509 11.0816 64.3107 10.827C64.2706 10.57 64.2255 10.338 64.1753 10.1298L65.6049 10.5512C65.561 10.7192 65.5397 10.9261 65.5397 11.1732C65.5397 11.4215 65.541 11.6585 65.5447 11.8855L65.9009 17.7745L69.4022 13.0291C69.5389 12.8423 69.6041 12.6316 69.5978 12.3971C69.594 12.1601 69.5602 11.9293 69.4975 11.7049L70.7465 12.0761C70.5923 12.224 70.428 12.3946 70.2549 12.5877C70.0806 12.7783 69.9239 12.969 69.7834 13.1596L65.941 18.3814L64.7772 18.0353L64.5415 14.2531L62.3043 17.3029L61.1405 16.9568Z" fill="#7E5E4C"/>
<path d="M74.7384 23.2413L70.4746 20.362C70.6414 20.2454 70.7956 20.1037 70.9361 19.9357C71.0766 19.7689 71.217 19.582 71.3575 19.3738C71.4477 19.2372 71.5807 19.0365 71.7588 18.7719C71.9393 18.5086 72.14 18.2126 72.3607 17.884C72.5814 17.5567 72.8021 17.2294 73.0228 16.9009C73.246 16.5736 73.4467 16.2776 73.6248 16.013C73.8054 15.7497 73.9408 15.549 74.0311 15.4111C74.1715 15.2041 74.2932 15.0035 74.3973 14.8091C74.5039 14.6122 74.5791 14.4166 74.623 14.2222L78.651 16.941L78.0791 17.9141L78.0089 17.869C78.029 17.7963 78.0315 17.6859 78.0189 17.5379C78.0089 17.3912 77.955 17.2269 77.8584 17.0463C77.7606 16.8658 77.5901 16.6939 77.3468 16.5297L75.4958 15.2806L73.5696 18.1248L74.4675 18.7318C74.7145 18.8961 74.939 18.9901 75.1397 19.0127C75.3428 19.0365 75.5171 19.0252 75.6613 18.9776C75.8043 18.9312 75.9046 18.8898 75.9623 18.8522L76.0376 18.9023C75.867 19.1569 75.6927 19.414 75.5159 19.6748C75.3416 19.9331 75.1672 20.1902 74.9942 20.4473L74.9189 20.3971C74.939 20.3244 74.9415 20.2141 74.929 20.0661C74.9152 19.9194 74.86 19.7551 74.7634 19.5745C74.6694 19.3914 74.4988 19.2171 74.2518 19.0528L73.3539 18.4459L71.7788 20.7784L73.8555 22.1779C74.1026 22.3447 74.3283 22.44 74.5327 22.4638C74.7359 22.4864 74.9089 22.4738 75.0494 22.4237C75.1923 22.376 75.2927 22.3346 75.3503 22.2983L75.4256 22.3484L74.7384 23.2413Z" fill="#7E5E4C"/>
<path d="M81.9224 21.4826L77.754 25.3852L79.309 27.0455C79.5097 27.2587 79.7053 27.3979 79.8959 27.4619C80.089 27.5283 80.2621 27.5547 80.4126 27.5421C80.5631 27.5283 80.6684 27.5095 80.7286 27.487L80.7888 27.5471L79.926 28.2695L76.5752 24.6929C76.7658 24.6164 76.9464 24.5124 77.1169 24.3819C77.29 24.249 77.4693 24.096 77.6537 23.9255C77.7741 23.8126 77.9496 23.6471 78.1804 23.4289C78.4136 23.2119 78.6745 22.9674 78.9629 22.6965C79.2538 22.4256 79.5423 22.1548 79.8307 21.8839C80.1216 21.613 80.3825 21.3697 80.6132 21.1515C80.8465 20.9346 81.0245 20.769 81.1449 20.6549C81.3255 20.4844 81.4885 20.3163 81.6365 20.1483C81.7832 19.9815 81.8986 19.8072 81.9826 19.6266L83.0009 20.7151C82.8229 20.7954 82.6448 20.9007 82.4642 21.0311C82.2836 21.1615 82.103 21.312 81.9224 21.4826Z" fill="#7E5E4C"/>
<path d="M89.3019 28.8869C89.5791 29.3659 89.7446 29.7936 89.7985 30.171C89.855 30.5523 89.8236 30.8746 89.7032 31.1392C89.5853 31.4063 89.4022 31.6119 89.1514 31.7561C88.8166 31.953 88.4906 32.0333 88.1733 31.9969C87.8548 31.9593 87.5425 31.8565 87.2353 31.6859C86.9268 31.5179 86.6158 31.331 86.3022 31.1241L84.8877 33.4215C84.7573 33.6322 84.6231 33.868 84.4864 34.1288C84.3484 34.3896 84.2431 34.6154 84.1704 34.806L83.3828 33.4466C83.606 33.2384 83.8017 32.9951 83.9697 32.7142L85.3391 30.5222C85.0344 30.3579 84.7196 30.2538 84.3961 30.2112C84.0713 30.171 83.739 30.2488 83.3979 30.4469L83.2223 30.5523C83.0041 30.6752 82.8072 30.8031 82.6304 30.9335C82.4561 31.0664 82.3043 31.2094 82.1739 31.3599C82.0636 31.1718 81.9382 30.9561 81.7977 30.7128C81.6598 30.472 81.5369 30.2576 81.4265 30.0707C81.6272 30.0381 81.8278 29.9754 82.0285 29.8851C82.2291 29.7948 82.4373 29.6882 82.6555 29.5641C82.7959 29.4813 83.0028 29.3584 83.2775 29.1979C83.5546 29.0374 83.8644 28.8593 84.2055 28.6612C84.5491 28.4643 84.8927 28.2674 85.2338 28.0693C85.5774 27.8686 85.8872 27.688 86.1618 27.5275C86.4389 27.367 86.6484 27.2466 86.7888 27.1663C87.0058 27.0397 87.2026 26.913 87.3807 26.7851C87.5613 26.6547 87.713 26.513 87.8372 26.3587L89.3019 28.8869ZM84.4262 29.85C84.7535 29.85 85.0658 29.9077 85.3642 30.0205C85.6652 30.1309 85.9561 30.2576 86.237 30.4018C86.5179 30.5485 86.7901 30.6752 87.0547 30.783C87.318 30.8934 87.5814 30.9548 87.8422 30.9686C88.1056 30.9811 88.3664 30.9047 88.6247 30.7379C88.8818 30.5836 89.0285 30.3692 89.0662 30.0958C89.1025 29.8224 89.0662 29.5189 88.9558 29.1879C88.8454 28.8568 88.6912 28.5207 88.4943 28.1796L88.1933 27.668L84.4262 29.85Z" fill="#7E5E4C"/>
<path d="M90.222 39.5353L87.5433 40.2777C87.2988 40.3442 87.0743 40.4194 86.8712 40.5035C86.6705 40.5862 86.4874 40.6865 86.3244 40.8044L85.9231 39.3698C86.1263 39.3861 86.3357 39.3748 86.5501 39.3347C86.7633 39.2946 86.9928 39.2406 87.2373 39.1742L89.3692 38.5873L91.5412 35.9638C91.6716 35.8171 91.8146 35.6277 91.9726 35.397C92.1294 35.1662 92.2535 34.9643 92.3438 34.79L92.7852 36.3902C92.6347 36.5106 92.5056 36.6297 92.399 36.7463C92.2911 36.863 92.1795 36.9921 92.0629 37.1326L90.3624 39.1792L92.8404 40.2727C93.011 40.3354 93.189 40.3944 93.3771 40.4483C93.564 40.5047 93.7546 40.5511 93.949 40.5887L94.1797 41.4214C93.875 41.2308 93.6029 41.0728 93.3621 40.9499C93.1238 40.8257 92.8454 40.6941 92.5244 40.5536L90.222 39.5353Z" fill="#7E5E4C"/>
<path d="M22 50V100" stroke="#7E5E4C" stroke-width="4.20374" stroke-linecap="round"/>
<path d="M88 50V100" stroke="#7E5E4C" stroke-width="4.20374" stroke-linecap="round"/>
<mask id="mask0_130_16743" style="mask-type:luminance" maskUnits="userSpaceOnUse" x="42" y="24" width="25" height="16">
<path d="M42.5037 24.7925H66.2904V39.8711H42.5037V24.7925Z" fill="white"/>
</mask>
<g mask="url(#mask0_130_16743)">
<path d="M62.8571 28.7239L62.748 26.6798L65.4166 28.7239H62.8571ZM62.7531 29.2619H65.5057L59.4825 34.6392L62.7531 29.2619ZM46.2323 29.2619L49.5028 34.638L43.4809 29.2619H46.2323ZM46.1282 28.7239H43.5687L46.2373 26.6798L46.1282 28.7239ZM51.1255 26.3412L49.0664 25.3292H53.285L51.1255 26.3412ZM57.8598 26.34L55.7016 25.3292H59.9189L57.8598 26.34ZM59.0549 29.2619H61.9768L56.5631 34.9251L59.0549 29.2619ZM54.4939 30.6012L55.4332 36.183L54.4939 38.691L53.5534 36.1842L54.4939 30.6012ZM49.9304 29.2619L52.4235 34.9264L47.0085 29.2619H49.9304ZM49.9304 28.7239H47.5264L50.5876 27.204L49.9304 28.7239ZM53.6399 28.7239H50.5123L51.2384 27.046L53.6399 28.7239ZM54.4939 28.6662L51.6573 26.6848L54.4939 25.3568L57.3293 26.6848L54.4939 28.6662ZM57.7482 27.046L58.4743 28.7239H55.3467L57.7482 27.046ZM53.1634 35.2851L50.5148 29.2619H54.1779L53.1634 35.2851ZM54.8087 29.2619H58.4717L55.8219 35.2851L54.8087 29.2619ZM59.0561 28.7239L58.3978 27.204L61.4589 28.7239H59.0561ZM62.1912 26.2534L62.3141 28.5483L58.4692 26.6397L61.045 25.3743L62.1912 26.2534ZM47.9403 25.3743L50.5161 26.6397L46.6724 28.5483L46.7941 26.2534L47.9403 25.3743ZM50.8735 35.8619L47.8914 30.9599L53.048 36.356L53.8631 38.5305L50.8735 35.8619ZM55.1234 38.5305L55.9373 36.3573L61.0952 30.9599L58.1118 35.8619L55.1234 38.5305ZM66.4525 29.1026C66.4525 29.1014 66.4537 29.1001 66.455 29.0976C66.4688 29.0662 66.4763 29.0299 66.4763 28.9935C66.4763 28.991 66.4751 28.9897 66.4751 28.9872C66.4751 28.986 66.4751 28.9847 66.4751 28.9835C66.4751 28.9722 66.47 28.9634 66.4688 28.9546C66.4638 28.927 66.46 28.902 66.4487 28.8781C66.4425 28.8656 66.4337 28.8568 66.4274 28.8455C66.4124 28.8255 66.3998 28.8067 66.381 28.7916C66.376 28.7878 66.3747 28.7816 66.371 28.7791L61.2369 24.8464C61.2168 24.8313 61.1955 24.8213 61.173 24.8113C61.1679 24.81 61.1654 24.8075 61.1617 24.8063C61.1341 24.7962 61.1052 24.7912 61.0764 24.7912H47.9102C47.8813 24.7912 47.8512 24.7962 47.8236 24.8063C47.8211 24.8075 47.8186 24.8088 47.8161 24.81C47.7923 24.82 47.7697 24.8313 47.7497 24.8464L42.6156 28.7791C42.6106 28.7816 42.6093 28.7878 42.6043 28.7916C42.5868 28.8067 42.573 28.8255 42.5592 28.8455C42.5516 28.8568 42.5429 28.8656 42.5378 28.8781C42.5266 28.902 42.5228 28.927 42.5178 28.9521C42.5165 28.9622 42.5103 28.9722 42.5103 28.9835C42.5103 28.9847 42.5115 28.986 42.5115 28.9872C42.5115 28.9897 42.5103 28.991 42.5103 28.9935C42.5103 29.0299 42.5178 29.0662 42.5316 29.0976C42.5328 29.1001 42.5341 29.1014 42.5353 29.1039C42.5504 29.1365 42.5704 29.1641 42.5955 29.1879C42.598 29.1891 42.598 29.1929 42.6005 29.1942L50.4835 36.2319C50.4835 36.2331 50.4847 36.2331 50.4847 36.2331L54.3158 39.6542C54.3209 39.6579 54.3246 39.6579 54.3284 39.6617C54.3459 39.6755 54.3635 39.6855 54.3836 39.6943C54.3861 39.6955 54.3873 39.698 54.3911 39.6993C54.3936 39.7006 54.3961 39.7031 54.3986 39.7043C54.3999 39.7043 54.3999 39.7043 54.3999 39.7043C54.4024 39.7056 54.4049 39.7056 54.4061 39.7056C54.4337 39.7156 54.4638 39.7219 54.4939 39.7219C54.5228 39.7219 54.5516 39.7156 54.5792 39.7056C54.5829 39.7056 54.5842 39.7056 54.5867 39.7043C54.5905 39.7031 54.593 39.7006 54.5955 39.6993C54.598 39.698 54.6005 39.6955 54.603 39.6943C54.6231 39.6855 54.6406 39.6755 54.6582 39.6617C54.662 39.6592 54.667 39.6579 54.6707 39.6542L66.386 29.1942C66.3885 29.1929 66.3885 29.1891 66.391 29.1879C66.4161 29.1641 66.4374 29.1352 66.4525 29.1026Z" fill="#7E5E4C"/>
</g>
<mask id="mask1_130_16743" style="mask-type:luminance" maskUnits="userSpaceOnUse" x="27" y="39" width="55" height="62">
<path d="M27.3662 39.6868H81.936V100.416H27.3662V39.6868Z" fill="white"/>
</mask>
<g mask="url(#mask1_130_16743)">
<path d="M81.5799 85.0205C80.9729 86.8627 80.3108 88.5394 79.6474 90.0242C78.9025 91.6732 77.9632 93.0753 76.8321 94.2302C75.6997 95.3852 74.2914 96.2919 72.636 96.8963C71.007 97.502 68.9366 97.8043 66.4787 97.8043H43.1233C46.0766 95.9897 49.1415 94.3406 52.15 92.6088C54.0837 91.4814 56.0162 90.3264 57.8935 89.0886C57.8935 90.0242 58.4177 90.9584 59.1902 91.509C60.5709 92.5536 62.5309 92.5536 64.1599 92.4156C65.1544 92.3329 66.12 92.1962 67.0869 91.9755C67.2248 91.9479 67.1972 91.7284 67.0593 91.7008C65.7338 91.4538 64.7669 90.4643 63.8289 89.6116C63.3323 89.1714 62.8344 88.7588 62.2826 88.4566C61.7033 88.1544 61.0951 87.9625 60.4605 87.8522C60.2122 87.8246 59.9639 87.797 59.7156 87.797C60.8743 86.9718 62.0067 86.0927 63.0827 85.1585C63.3599 84.9102 63.6357 84.6631 63.9116 84.4161C65.2648 84.6355 66.7822 84.3885 67.749 83.3439C68.1904 82.8485 68.5215 82.2441 68.6043 81.612C68.7146 80.842 68.4663 80.1548 68.1353 79.4676C68.0525 79.2745 67.749 79.2193 67.5559 79.3297C67.5559 79.3297 67.5283 79.3297 67.5283 79.3573C67.4731 79.3848 67.3904 79.44 67.3352 79.4939C64.7393 82.8761 61.4261 85.6526 57.8935 88.044C57.0921 88.5946 56.2921 89.1162 55.4631 89.6116C57.0646 87.9073 58.5556 86.0927 59.7432 84.0863C60.9295 82.0509 61.6757 79.8513 61.924 77.5427L61.9516 77.5151C62.6413 76.5532 63.7461 75.9751 64.7945 75.5086C64.8221 75.5901 64.8497 75.6453 64.9048 75.7005C64.9876 75.7832 65.0704 75.8384 65.182 75.8936C65.3199 75.9475 65.4579 75.9212 65.5958 75.8936C65.7614 75.866 65.9545 75.8108 66.0924 75.728C66.258 75.6453 66.4235 75.5362 66.5339 75.3706C66.589 75.2603 66.6166 75.1236 66.6166 74.9857C66.6166 74.9029 66.589 74.7938 66.5614 74.711C66.5339 74.6007 66.4511 74.4916 66.3683 74.3812C66.2855 74.2984 66.1752 74.2433 66.0648 74.1881C65.8717 74.1066 65.651 74.1342 65.4579 74.1881C65.2372 74.2433 65.0704 74.3536 64.8773 74.4916C64.8497 74.5179 64.8221 74.5455 64.8221 74.5731C63.8013 75.0132 62.7792 75.481 61.9792 76.1958C62.0067 75.8108 62.0067 75.3982 61.9792 75.0132C61.9516 74.4916 61.924 73.941 61.8688 73.4193C62.0343 73.5285 62.2275 73.6112 62.393 73.694C62.9172 73.9134 63.4702 74.0514 63.9392 74.0514C64.5738 74.0514 65.182 73.8859 65.7889 73.6664C66.4235 73.4193 67.0593 73.1159 67.7214 72.8412C68.4939 72.5114 69.3228 72.1816 70.1229 71.8242C70.2609 71.769 70.1781 71.5772 70.0402 71.5772C68.8262 71.5772 67.7766 70.9451 66.6166 70.5325C66.0097 70.3394 65.3751 70.1751 64.6841 70.2027C63.9944 70.2303 63.3047 70.4222 62.6689 70.7796C62.255 71.0266 61.8688 71.3289 61.5653 71.6863C61.455 71.137 61.3158 70.5877 61.1502 70.0648C61.924 70.2566 62.7241 70.2566 63.4978 70.12C64.9048 69.8729 66.1476 69.1844 67.28 68.3054C67.9973 67.7561 68.6595 67.0952 69.2953 66.4632C69.378 66.3804 69.4056 66.2989 69.378 66.1885C70.9243 65.2806 72.2209 63.9613 72.8016 62.1191C73.1602 60.9654 73.1878 59.6173 72.8292 58.3532C72.774 58.1614 72.5257 57.9958 72.3865 58.1062L71.7519 58.5727C71.8623 57.666 71.8071 56.7042 71.6416 55.7687C71.5036 54.9448 71.3105 54.092 71.1174 53.2668L80.8626 39.6868H36.497L35.2542 54.0644H35.89C36.2487 52.0579 36.6625 50.3261 37.1315 48.8689C37.6569 47.2738 38.4294 45.9545 39.3963 44.9651C40.3619 43.9744 41.6599 43.2332 43.2337 42.793C44.7511 42.3805 46.7124 42.161 49.0587 42.161H69.9298L63.8565 50.7926C63.4702 50.3261 63.0275 49.8859 62.5585 49.5009C61.0123 48.2356 59.2729 47.2462 57.506 46.4762C57.2577 46.3671 57.0094 46.6141 57.1197 46.8612C57.4784 47.6312 57.5612 48.4287 57.5612 49.2263C56.899 49.0608 56.2369 49.1711 55.5735 49.2815C54.9114 49.363 54.0837 49.3906 53.6134 48.7861C53.4755 48.593 53.0892 48.6482 53.0892 48.9241C53.0892 49.8032 53.0892 50.6559 53.0892 51.5074C53.0892 52.0028 53.0892 52.5796 53.3375 53.0474C52.2616 52.937 51.1843 52.8818 50.1623 52.5796C50.0795 52.4705 49.8864 52.4429 49.7485 52.5244L49.7209 52.552C49.5829 52.6348 49.5277 52.8543 49.6381 52.9646C49.6657 53.9816 49.4174 54.9723 49.1691 55.9618C48.838 55.6596 48.3402 55.494 47.8711 55.4113C47.0711 55.2194 46.2697 55.0539 45.4697 54.8896C45.2213 54.8344 45.0558 55.1918 45.1938 55.3561C45.6352 55.879 45.3593 56.649 45.0558 57.2259C44.7511 57.804 44.4476 58.3532 44.3648 58.9577C43.6475 58.821 42.9841 58.5727 42.4324 58.1877C42.2392 58.051 41.9633 58.2429 41.9633 58.4636C42.0737 59.9208 42.2668 61.3504 42.5703 62.7524C42.8462 64.0441 43.3716 65.2267 44.2821 66.1609C44.558 66.4356 44.8338 66.6839 45.1386 66.9033C43.2889 67.2331 41.715 68.4433 40.1688 69.5418C40.0309 69.6522 39.9481 69.8453 40.086 69.9544C41.5771 71.0542 43.013 72.3471 44.9455 73.0068L44.2269 73.309C44.0338 73.3918 44.0338 73.6112 44.1165 73.7216C44.8063 74.4364 45.7455 74.8753 46.7952 75.096L35.1438 91.6456C34.8955 90.3816 34.7024 89.0886 34.73 87.7694C34.7576 87.7694 34.7576 87.7418 34.7852 87.7418C35.2266 87.3292 35.6693 86.9455 36.1107 86.5329C36.1935 86.4777 36.2487 86.395 36.3314 86.3398C36.7177 86.6144 37.3798 86.4225 37.7397 86.1203C37.988 85.8996 38.0984 85.5422 37.988 85.2124C37.8777 84.8826 37.5742 84.6631 37.2694 84.5804C36.9384 84.5252 36.6073 84.6079 36.359 84.8274C36.2487 84.9378 36.1659 85.0757 36.1107 85.24C36.1107 85.2952 36.0831 85.3779 36.0831 85.4331C36.0555 85.4607 36.0279 85.4883 36.0279 85.4883C35.6129 85.8457 35.2266 86.2307 34.8128 86.5881C35.0059 84.7183 35.6969 83.0141 36.497 81.3361C36.5797 81.4465 36.6901 81.5293 36.828 81.5844C37.1591 81.7763 37.6018 81.8591 38.0156 81.8039C39.0916 81.666 39.9481 80.7869 40.555 79.9893C40.9137 79.4939 41.2184 78.9723 41.4667 78.4493C41.4943 78.3678 41.384 78.3126 41.3288 78.3678C40.7482 78.9171 39.8929 78.9723 39.1743 79.055C38.7881 79.1102 38.4294 79.1365 38.0708 79.2469C37.8501 79.3297 37.6294 79.4124 37.435 79.5215C37.988 78.4217 38.5122 77.2956 38.8709 76.113C39.2295 76.113 39.4791 75.8384 39.617 75.5086C39.7274 75.2064 39.6446 74.8753 39.5067 74.6007C39.3963 74.3812 39.2019 74.1605 38.9536 74.0238C38.6502 73.8859 38.3191 73.8583 38.0156 74.0238C37.7397 74.1605 37.5742 74.464 37.5466 74.7662C37.4914 75.0684 37.5466 75.4258 37.6845 75.7005C37.7673 75.8384 37.8777 75.9475 38.0156 76.0303C37.2419 78.3402 35.9176 80.4019 34.9783 82.6567C34.9231 82.7658 34.8955 82.9037 34.8404 83.0141C34.73 82.4635 34.5093 81.9418 34.2058 81.5017C33.2114 80.1272 31.5548 79.5491 30.1477 78.8619C29.2912 78.4493 28.436 77.9828 27.607 77.4599C27.4691 77.3771 27.3311 77.5702 27.4139 77.6806C27.8001 78.2575 28.0485 78.8895 28.2704 79.5491C28.4911 80.2088 28.6843 80.8972 28.9601 81.5569C29.236 82.2441 29.5947 82.9037 30.0925 83.453C30.5891 84.0035 31.1961 84.47 31.8307 84.7735C32.5768 85.1309 33.3769 85.3228 34.1506 85.3503C34.0679 85.7353 34.0127 86.0927 33.9851 86.4777C33.8472 87.8797 33.9575 89.2818 34.1782 90.6562C34.2886 91.2882 34.3989 91.8939 34.5369 92.526L29.6775 99.3718V100.416H79.206L81.8846 85.0757L81.5799 85.0205ZM67.6938 80.4571C67.8042 80.7869 67.887 81.1167 67.8318 81.4741C67.7766 81.9958 67.5007 82.4635 67.1421 82.8485C66.5063 83.5081 65.6234 83.7552 64.7117 83.7289C65.7889 82.683 66.7822 81.612 67.6938 80.4571ZM58.197 88.8968C58.2521 88.8692 58.3073 88.814 58.3625 88.7864L58.6108 89.1438C58.7763 89.3921 58.9694 89.6668 59.1626 89.9138C59.3557 90.1609 59.5488 90.4092 59.7708 90.6286C59.9915 90.8493 60.2398 91.0412 60.5157 91.2067C60.2398 91.0412 59.9915 90.8217 59.7984 90.601C59.5764 90.354 59.4109 90.1069 59.2177 89.8586C59.0522 89.6116 58.8867 89.3369 58.7211 89.0623C58.6384 88.9244 58.5556 88.814 58.5004 88.6773C58.528 88.6497 58.5556 88.6221 58.6108 88.5946C58.9143 88.9244 59.2453 89.2266 59.6052 89.5012C59.8535 89.6944 60.1019 89.8862 60.3777 90.0518C60.6536 90.216 60.9295 90.354 61.233 90.4643C62.4206 90.9308 63.6909 91.124 64.9048 91.4538C63.6909 91.0964 62.4206 90.8757 61.2606 90.354C60.9847 90.216 60.6812 90.0793 60.4329 89.9138C60.157 89.7495 59.9087 89.5564 59.688 89.3645C59.3557 89.0886 59.0522 88.7864 58.7487 88.4566C58.7763 88.4566 58.7763 88.429 58.8039 88.429C59.9915 89.199 61.3709 89.6116 62.7516 89.6392C61.3985 89.5564 60.0467 89.0886 58.9419 88.3199C59.0522 88.2372 59.1626 88.1544 59.2729 88.0716C60.2398 88.044 61.1778 88.2372 62.0067 88.6773C63.1379 89.2542 63.9944 90.2712 65.0152 91.0412C65.4303 91.3434 65.8717 91.6181 66.3683 91.8112C65.7338 91.9215 65.1256 92.0306 64.4634 92.0858C63.6633 92.1686 62.8344 92.1962 62.0067 92.141C61.1778 92.0858 60.3502 91.8939 59.6328 91.4814C59.0522 91.1516 58.6108 90.6562 58.3349 90.0793C58.2245 89.7219 58.1418 89.3094 58.197 88.8968ZM62.8068 71.1922C63.3875 70.8348 64.0772 70.614 64.7393 70.5601C66.0924 70.4774 67.2248 71.0818 68.3008 71.4944C68.7422 71.6599 69.1849 71.7966 69.6539 71.8794C69.1297 72.0988 68.6043 72.3196 68.0801 72.539C67.418 72.8136 66.7546 73.0895 66.1752 73.3366C65.5682 73.5836 64.96 73.8031 64.3531 73.8307C63.8565 73.8583 63.3599 73.8043 62.8344 73.6112C62.5309 73.5009 62.1999 73.3366 61.9516 73.1159C61.9516 73.0344 61.924 72.9516 61.924 72.8688C62.0619 72.8688 62.1723 72.8688 62.3102 72.8964C62.5861 72.924 62.8896 72.9516 63.1379 73.0068C63.415 73.0619 63.6909 73.1159 63.9392 73.1435C64.2151 73.1986 64.4634 73.1986 64.7393 73.1986C64.491 73.1986 64.2151 73.171 63.9668 73.1159C63.7185 73.0619 63.4426 73.0068 63.1655 72.924C62.8896 72.8688 62.6137 72.8136 62.3378 72.7585C62.1999 72.7321 62.0619 72.7321 61.8964 72.7045C61.8964 72.677 61.8964 72.6218 61.8688 72.5942C62.3102 72.539 62.7792 72.5114 63.1931 72.4838C63.4978 72.4562 63.7737 72.4562 64.0496 72.4287C64.3255 72.4011 64.629 72.3747 64.9048 72.3196C66.0097 72.154 67.1421 71.907 68.2732 71.907C67.1421 71.8794 66.0097 72.0988 64.9048 72.2368C64.629 72.2644 64.3531 72.292 64.0496 72.3196C63.7737 72.3471 63.4702 72.3471 63.1931 72.3747C62.7516 72.4011 62.3102 72.4011 61.8412 72.4562V72.4287C63.2207 71.9897 64.5462 71.5772 65.8165 71.0542C64.5186 71.5496 63.1931 71.8794 61.8136 72.2644C61.8136 72.2092 61.786 72.1816 61.786 72.154C62.0619 71.7414 62.4206 71.4392 62.8068 71.1922ZM36.6073 80.9787C36.6349 80.9787 36.6625 81.0063 36.6901 81.0063C36.8832 81.0615 37.0487 81.0891 37.2419 81.1167C37.435 81.1443 37.6294 81.1719 37.8225 81.1719C38.0156 81.1719 38.2087 81.1443 38.4018 81.0891C38.2087 81.1443 38.0156 81.1443 37.8225 81.1443C37.6294 81.1167 37.435 81.0891 37.2694 81.0615C37.0763 81.0063 36.9108 80.9787 36.7177 80.9236C36.6901 80.9236 36.6625 80.8972 36.6349 80.8972C36.6625 80.8696 36.6625 80.8145 36.6901 80.7869C36.8832 80.7869 37.0763 80.7869 37.297 80.7869C37.4914 80.7593 37.6845 80.7593 37.8501 80.7041C38.0432 80.6489 38.2087 80.5937 38.4018 80.5122C39.1192 80.2088 39.6998 79.7147 40.3067 79.2745C39.6722 79.6871 39.064 80.1548 38.3743 80.4571C38.2087 80.5122 38.0156 80.5937 37.8501 80.6213C37.6569 80.6489 37.4914 80.6765 37.297 80.7041C37.1039 80.7041 36.9384 80.7041 36.7453 80.7041C36.7728 80.6765 36.7728 80.6213 36.8004 80.5937C37.519 80.4295 38.1811 80.0721 38.6502 79.5491C38.1535 80.0169 37.519 80.3467 36.828 80.4846C36.9384 80.2639 37.0487 80.0445 37.1591 79.825C37.4074 79.6595 37.6569 79.5491 37.9328 79.44C38.6226 79.2193 39.3963 79.2469 40.1412 79.0826C40.4447 78.9999 40.7206 78.8895 40.9965 78.7252C40.8309 79.055 40.6378 79.3848 40.4171 79.7147C40.1412 80.1272 39.8101 80.5122 39.4239 80.8696C39.064 81.1994 38.595 81.5017 38.0984 81.612C37.7121 81.7211 37.297 81.6935 36.9384 81.5293C36.7453 81.4465 36.5797 81.3361 36.4418 81.1719C36.5521 81.1167 36.5797 81.0615 36.6073 80.9787ZM34.5369 83.7552C34.4265 84.0587 34.3438 84.3609 34.261 84.6631L34.0403 84.0587C33.9299 83.7552 33.792 83.453 33.6804 83.1507C33.57 82.8485 33.4321 82.5463 33.2941 82.2441C33.1562 81.9418 32.9631 81.6935 32.7699 81.4465C32.9631 81.6935 33.1286 81.9694 33.2665 82.2717C33.4045 82.5739 33.5148 82.8761 33.6252 83.1783C33.7355 83.4806 33.8196 83.8104 33.9299 84.1126L34.2058 84.9102L34.1782 84.9378C33.8747 84.4161 33.5424 83.8931 33.1838 83.3715C32.9906 83.0956 32.7699 82.8485 32.5768 82.6015C32.3561 82.3532 32.1078 82.1061 31.8858 81.8867C30.9202 81.0063 29.8154 80.2639 28.9877 79.2469C29.7878 80.2639 30.8926 81.0339 31.8307 81.9418C32.0802 82.1613 32.3009 82.4083 32.494 82.6567C32.7148 82.9037 32.9079 83.1783 33.0734 83.453C33.4045 83.9207 33.6804 84.4161 33.9575 84.9102C32.8803 83.7013 31.5272 82.7658 30.0637 82.0509C31.4996 82.8209 32.7699 83.7828 33.7631 84.9929C32.5216 84.855 31.3065 84.2781 30.4236 83.3163C29.9258 82.7933 29.5671 82.1613 29.2912 81.5017C29.0153 80.842 28.8222 80.1824 28.6015 79.5215C28.436 78.9999 28.2428 78.5045 27.9933 78.0104C28.5463 78.3402 29.1257 78.6424 29.6775 78.9447C30.396 79.3021 31.1133 79.6319 31.8031 79.9893C32.494 80.3467 33.1838 80.7593 33.708 81.3637C34.123 81.8591 34.4265 82.4359 34.5369 83.0956C34.5369 83.3439 34.5369 83.5633 34.5369 83.7552ZM57.6439 85.8181C57.6163 85.6802 57.6163 85.5698 57.5887 85.4331C57.5612 85.24 57.5336 85.0757 57.506 84.8826C57.4784 84.6907 57.4232 84.5252 57.368 84.3333C57.3129 84.1402 57.2301 83.9759 57.1197 83.8104C57.2301 83.9759 57.2853 84.1402 57.3404 84.3333C57.3956 84.5252 57.4232 84.6907 57.4508 84.8826C57.4784 85.0757 57.4784 85.24 57.506 85.4331C57.506 85.5974 57.5336 85.7353 57.5336 85.8996C57.5336 85.8996 57.506 85.8996 57.506 85.9272C57.4232 85.5974 57.3129 85.2676 57.1749 84.9653C57.0921 84.8011 57.0094 84.6355 56.899 84.47C56.7887 84.3057 56.6783 84.1678 56.5404 84.0311C56.0162 83.453 55.3804 83.0404 54.801 82.5739C55.3804 83.068 56.0162 83.5081 56.5128 84.0863C56.6231 84.223 56.7611 84.3885 56.8438 84.5252C56.9542 84.6907 57.037 84.855 57.0921 85.0205C57.2301 85.3228 57.3129 85.625 57.3956 85.9272C56.9818 85.1309 56.3197 84.47 55.5183 84.0863C56.2921 84.4976 56.899 85.1585 57.2577 85.9272C56.5955 85.7077 56.0438 85.2952 55.6287 84.7735C55.1872 84.1678 54.9941 83.4254 54.6079 82.7382C54.4699 82.4635 54.2768 82.2165 54.0548 82.0234C54.4148 82.1061 54.801 82.1889 55.1597 82.3268C55.6287 82.4911 56.0989 82.6842 56.5128 82.9313C56.9542 83.1783 57.3404 83.4806 57.6163 83.9207C57.8383 84.2505 57.9487 84.6355 57.9211 85.0205C57.9487 85.2952 57.8383 85.5974 57.6439 85.8181ZM60.4605 76.113C60.5709 76.251 60.6536 76.3601 60.7364 76.5256C60.8192 76.6623 60.9019 76.8003 60.9571 76.9382C61.0123 77.0473 61.0675 77.1852 61.1226 77.2956C61.1226 77.2956 61.1226 77.2956 61.1226 77.3232C60.9571 77.1025 60.764 76.8554 60.5433 76.6623C60.4329 76.5532 60.295 76.4429 60.157 76.3601C60.0191 76.2786 59.8811 76.1958 59.7156 76.1406C59.1074 75.8936 58.4453 75.8108 57.8107 75.7005C58.4453 75.8384 59.1074 75.9212 59.688 76.1958C59.826 76.251 59.9639 76.3325 60.1019 76.4153C60.2398 76.498 60.3502 76.6084 60.4605 76.7175C60.6536 76.9106 60.8192 77.1025 60.9847 77.3232C60.4329 76.8278 59.6604 76.5532 58.9143 76.5532C59.6604 76.5808 60.3777 76.883 60.9019 77.3771C60.3226 77.4047 59.7708 77.2956 59.2729 77.0473C58.7211 76.7451 58.2797 76.251 57.7267 75.8936C57.506 75.7556 57.2577 75.6453 57.0094 75.5901C57.3129 75.481 57.6439 75.3982 57.9762 75.3431C58.3901 75.2603 58.8315 75.2327 59.2729 75.2603C59.7156 75.2879 60.157 75.3982 60.5157 75.6177C60.8192 75.8108 61.0399 76.0854 61.1502 76.3877C61.233 76.636 61.2606 76.9106 61.1502 77.1577C61.0951 77.0473 61.0399 76.9658 60.9847 76.8554C60.9019 76.7175 60.8192 76.5808 60.7364 76.4429C60.6812 76.3601 60.5985 76.2234 60.4605 76.113C60.3777 75.9751 60.2398 75.866 60.1019 75.7832C60.2398 75.866 60.3502 76.0027 60.4605 76.113ZM64.6565 69.3224C63.415 69.7901 61.9516 69.8729 60.7088 69.3224C60.7088 69.212 60.6812 69.1029 60.5709 69.0477C60.764 68.8283 60.9847 68.58 61.1778 68.3329C62.255 68.7179 63.4702 68.7179 64.5186 68.3054C63.4702 68.6628 62.3102 68.58 61.2882 68.1674C61.3985 68.0307 61.5101 67.8928 61.6205 67.7824C61.7584 67.6181 61.8688 67.4802 62.0067 67.3159C63.9668 68.1135 66.2028 67.7561 68.0801 66.9861C67.0869 67.9479 65.9821 68.8283 64.6565 69.3224ZM71.7519 59.591L72.5257 59.0405C72.9395 61.0745 72.2209 63.0547 70.9794 64.3739C70.2057 65.1991 69.2401 65.8035 68.2456 66.2437C67.3352 66.6563 66.3683 66.9585 65.3751 67.0952C64.3807 67.2331 63.3323 67.1504 62.3654 66.8206C62.393 66.7654 62.4206 66.7102 62.4206 66.6563C65.6234 66.8206 68.8262 65.6117 70.8415 63.1638C68.7974 65.4461 65.7062 66.4907 62.7516 66.2989C65.2923 65.5841 67.9146 64.8417 69.847 62.9167C70.7036 62.0652 71.3933 60.993 71.7243 59.7553C71.7243 59.7001 71.7519 59.6449 71.7519 59.591ZM65.9269 55.0814C66.7822 53.2944 68.4939 52.4153 70.1505 51.5902C70.3712 52.3602 70.6195 53.1577 70.8139 53.9541C71.2277 55.6596 71.5036 57.3914 71.2002 59.0129C70.7311 61.5699 68.8538 63.2189 66.7546 64.236C65.5682 64.7865 64.3255 65.1991 63.0827 65.5565H63.0551C63.8013 65.2267 64.4634 64.7589 65.0428 64.236C65.6786 63.6591 66.2304 62.9719 66.727 62.2295C67.6663 60.7447 68.3008 59.0405 68.8814 57.3362C68.5491 58.1877 68.218 59.0129 67.8594 59.8104C67.4731 60.608 67.0593 61.3768 66.5614 62.0916C66.0648 62.8064 65.4855 63.4397 64.8497 63.9889C64.5186 64.2912 64.1324 64.5395 63.7737 64.7589C64.9048 63.6867 65.7889 62.3674 66.3131 60.8827C66.4235 60.5528 66.5339 60.2506 66.6166 59.9208C66.8097 59.2336 66.9765 58.5188 67.1697 57.8303C67.4455 56.8133 67.8042 55.7962 68.3836 54.9448C67.749 55.7687 67.3904 56.7581 67.0593 57.7764C66.7822 58.6555 66.5614 59.5358 66.258 60.3873C66.2028 60.5253 66.1752 60.6356 66.12 60.7723C65.5958 62.1191 64.7669 63.3017 63.7737 64.2636C63.9944 63.8786 64.1875 63.4948 64.3807 63.0823C65.1544 61.5147 65.7614 59.8104 65.9269 57.9958C66.0097 57.0616 65.9821 56.1261 65.8165 55.1642C65.8993 55.1642 65.8993 55.1366 65.9269 55.0814ZM61.6481 49.5285C62.3378 50.0502 62.9724 50.6283 63.5254 51.288C63.9944 51.8648 64.3807 52.4969 64.6841 53.1853C65.9269 56.0709 65.4579 59.1784 64.3807 61.7617C64.1599 62.3123 63.8841 62.8615 63.6082 63.4121C63.9668 61.5975 64.022 59.6725 63.7461 57.7488C63.4978 56.1261 63.0275 54.5046 62.3378 52.9922C62.0343 52.305 61.6481 51.6178 61.2606 50.9857C61.6481 51.6729 61.9792 52.3602 62.2826 53.075C62.8896 54.5873 63.2758 56.1812 63.4426 57.7488C63.6357 59.4255 63.553 61.1021 63.2207 62.6973C63.3323 61.4043 63.3047 60.0851 63.0827 58.7658C62.9448 57.9131 62.6965 57.0616 62.3378 56.264C62.0619 55.632 61.7033 54.9987 61.2882 54.4494C61.1778 54.3115 61.0675 54.1748 60.9571 54.0368C61.0675 54.1748 61.1778 54.3115 61.2882 54.477C61.6757 55.0539 62.0067 55.6596 62.255 56.2916C62.5585 57.0892 62.7792 57.9407 62.8896 58.7658C63.0275 59.838 63.0275 60.8827 62.9448 61.9273C62.9172 61.7342 62.8896 61.5423 62.8344 61.3504C62.4758 59.5082 61.5929 57.7764 60.3502 56.4007C60.2674 56.3192 60.1846 56.2364 60.1019 56.1537C60.1019 56.1537 60.1019 56.1261 60.0743 56.1261C60.0467 56.0985 60.0467 56.0985 60.0191 56.0709C59.8811 55.9066 59.7156 55.7687 59.5488 55.632C58.9143 54.8896 58.5556 53.845 58.3073 52.937C58.1694 52.3878 58.0866 51.8096 58.1142 51.2328C58.1418 50.518 58.197 49.8032 58.197 49.0608C58.197 48.4839 58.1142 47.9058 57.9487 47.3289C59.2177 47.9334 60.4881 48.6482 61.6481 49.5285ZM53.7238 51.1776C53.7238 50.6559 53.7238 50.1054 53.7238 49.5837C54.1665 49.8583 54.7182 49.9411 55.2424 49.9135C55.9886 49.8859 56.7887 49.5837 57.5612 49.8308C57.5336 50.2985 57.506 50.7926 57.506 51.2604C57.4784 52.2774 57.7267 53.3496 58.1418 54.3115C57.368 53.5151 56.6783 52.6348 56.0714 51.7005C56.5955 52.6072 57.2025 53.46 57.8935 54.2839C56.8163 53.7622 55.877 52.937 55.1872 51.9476C55.6838 52.7452 56.3197 53.4324 57.0646 53.9816H57.037C56.6231 53.7898 56.1817 53.5967 55.739 53.46C55.2424 53.322 54.7734 53.2117 54.2492 53.1301C54.2216 53.1026 54.194 53.0474 54.1665 53.0474C53.5858 52.6348 53.7238 51.782 53.7238 51.1776ZM49.4174 57.9407C49.6381 56.3468 50.2726 54.7792 50.2726 53.1577C51.7085 53.5151 53.172 53.4875 54.6355 53.7622C56.2645 54.0644 57.8383 54.862 59.135 56.017C59.2729 56.2088 59.4385 56.3468 59.6328 56.5111C59.6604 56.5111 59.6604 56.5386 59.688 56.5386C59.7156 56.5662 59.7432 56.5938 59.7708 56.6214C62.0067 59.0129 62.9448 62.4765 62.1723 65.5289C62.0895 65.8863 62.0067 66.3265 61.8136 66.6563C61.7033 66.8482 61.5101 67.0413 61.3709 67.2331C61.0675 67.5905 60.764 67.9755 60.4605 68.3329C60.4053 68.1674 60.3777 67.9755 60.3502 67.7824C60.3226 67.3987 60.3226 66.9861 60.3502 66.5735C60.3777 65.7484 60.4605 64.9232 60.4053 64.0717C60.3226 62.3674 59.688 60.6895 58.6108 59.3703C59.6328 60.7447 60.2122 62.4226 60.2122 64.0717C60.2122 64.8969 60.1294 65.7208 60.0467 66.5735C60.0191 66.9861 59.9915 67.3987 60.0191 67.8376C60.0191 67.9204 60.0191 68.0307 60.0467 68.1135C59.6328 67.5905 59.2729 67.0137 58.9419 66.408C58.6936 65.9691 58.4728 65.5289 58.2521 65.0887C58.0314 64.6486 57.8107 64.1821 57.6163 63.7143C57.3956 63.2465 57.2025 62.8064 56.9818 62.3399C56.8163 62.01 56.6507 61.6802 56.4852 61.3504C56.43 61.2401 56.3748 61.1021 56.2921 60.993C55.8218 60.0851 55.2976 59.2336 54.6631 58.436C55.27 59.2599 55.739 60.1403 56.1817 61.0469C56.2645 61.1849 56.3197 61.3504 56.3748 61.4871C56.5128 61.7893 56.6507 62.1191 56.7887 62.4226C56.9818 62.8891 57.1749 63.3569 57.3404 63.8246C57.5336 64.2912 57.6991 64.7589 57.9211 65.2267C58.1142 65.6932 58.3349 66.1609 58.5556 66.6011C58.8315 67.1504 59.1074 67.6733 59.466 68.1674C58.8867 67.6457 58.3625 67.0413 57.8659 66.4356C57.1473 65.5013 56.4852 64.5395 55.877 63.5212C55.739 63.2741 55.6011 63.0547 55.4631 62.8064C54.4148 61.0193 53.4203 59.1784 52.15 57.5005C53.3927 59.2336 54.332 61.1021 55.3528 62.9443C55.4631 63.1638 55.6011 63.3845 55.7114 63.6039C56.2921 64.621 56.9266 65.638 57.6163 66.6011C58.2521 67.4526 58.9694 68.2502 59.7708 68.9926C59.688 68.9926 59.6053 68.9926 59.5212 68.9926C58.4177 68.6352 57.368 68.2226 56.4024 67.6457C55.3528 67.0413 54.4148 66.2713 53.6962 65.3082C53.6134 65.2267 53.5582 65.1163 53.4755 65.006C53.5307 65.1163 53.6134 65.2267 53.6686 65.3082C54.332 66.2989 55.2424 67.1228 56.2921 67.81C57.0094 68.2778 57.7831 68.6903 58.6108 69.0202C58.3901 69.0202 58.1694 69.0202 57.9487 69.0202C57.1473 68.9926 56.4024 68.8283 55.6838 68.5524C53.4755 67.7285 51.5154 65.9954 50.4946 63.9062C49.5553 62.0376 49.1415 59.9747 49.4174 57.9407ZM58.8591 69.5418C59.2177 69.5418 59.5488 69.5155 59.9087 69.5418C59.9363 69.5418 59.9363 69.5418 59.9363 69.5418H59.9639C59.7156 70.6416 58.9419 71.5496 58.0038 72.2092C57.7831 72.3471 57.5887 72.4838 57.368 72.5942C56.1265 73.2538 54.7734 73.5285 53.4203 73.7492C54.2492 73.3366 55.0217 72.8136 55.7114 72.2092C56.5404 71.4668 57.2301 70.5601 57.5612 69.4879C57.9211 69.5155 58.2797 69.5155 58.666 69.5155C58.3349 70.5049 57.6439 71.3564 56.7335 71.907C57.6991 71.4392 58.4728 70.5877 58.8591 69.5418ZM44.973 59.0129C45.0282 58.2705 45.5524 57.6384 45.8283 56.9788C46.0214 56.5111 46.1042 55.9894 45.9938 55.5216C46.4904 55.632 46.9883 55.7411 47.4573 55.8514C48.0091 55.9894 48.8656 56.0709 49.0035 56.7318C49.0035 56.7318 49.0035 56.7318 49.0035 56.7581C48.9484 57.034 48.8932 57.3362 48.838 57.6384C48.7552 58.1877 48.7277 58.7382 48.7277 59.2875C48.5057 58.5727 48.147 57.9131 47.6504 57.3638C48.3402 58.2153 48.7001 59.3151 48.7552 60.3873C48.3402 59.5634 47.7884 58.7658 47.1538 58.1062C47.7884 58.8762 48.3126 59.7277 48.6725 60.6356C48.4229 60.4149 48.1746 60.223 47.9263 60.0575C47.4573 59.7553 46.9607 59.4806 46.4353 59.3427C45.9663 59.1784 45.4697 59.1232 44.973 59.0129ZM45.1386 66.0506C44.1717 65.1991 43.5923 64.1545 43.2889 62.9167C42.9565 61.6251 42.7634 60.2782 42.6531 58.9025C43.5923 59.3979 44.6959 59.5358 45.7731 59.7277C46.8779 59.9484 47.8436 60.5253 48.6173 61.3228C48.7828 61.5147 48.976 61.7078 49.1139 61.9549C49.1415 62.0652 49.1691 62.1743 49.1967 62.2847C49.7485 64.1821 50.8533 65.8863 52.3443 67.178L52.3167 67.2056C51.6258 66.8757 50.936 66.5183 50.3002 66.1058C49.6657 65.6932 49.0863 65.2267 48.5621 64.7037C48.0643 64.1821 47.5953 63.5763 47.2642 62.9167C47.5677 63.6039 47.9815 64.2096 48.4781 64.7589C48.976 65.3082 49.5277 65.8035 50.1623 66.2437C50.7705 66.6839 51.4326 67.0676 52.1224 67.425C52.4823 67.6181 52.8685 67.81 53.2548 67.9755C52.8409 67.8376 52.4547 67.7009 52.0396 67.5354C51.0464 67.1228 50.0795 66.6563 49.1691 66.1333C47.4021 65.0887 45.8559 63.8522 44.558 62.3399C45.7731 63.8786 47.2642 65.2267 49.0035 66.3528C49.8864 66.9309 50.7981 67.425 51.7913 67.8928C52.3719 68.1674 52.9789 68.3881 53.5858 68.6076C52.8685 68.5524 52.15 68.4972 51.4326 68.4157C50.3843 68.2778 49.3622 68.0859 48.3677 67.7561C47.1538 67.425 46.0214 66.8482 45.1386 66.0506ZM43.3165 71.4944C42.4048 70.9175 41.6047 70.2842 40.7758 69.6522C42.2944 68.58 43.8406 67.4526 45.718 67.3159C45.7455 67.3159 45.8007 67.3159 45.8283 67.2883C47.347 68.2226 49.1691 68.7179 51.074 68.9926C51.2395 69.0202 51.405 69.0477 51.5706 69.0477C52.4271 69.1581 53.2824 69.212 54.1389 69.2672C53.0065 69.5418 51.8189 69.6246 50.6601 69.5694C50.467 69.5694 50.2451 69.5418 50.0519 69.5155C49.0863 69.4051 48.147 69.212 47.1814 69.1029C46.2146 68.9926 45.2489 68.965 44.2821 69.212C45.2489 68.9926 46.2146 69.0477 47.1814 69.1857C48.1194 69.3224 49.0587 69.5418 50.0243 69.6798C50.1899 69.7074 50.3554 69.735 50.5498 69.735C51.8465 69.8729 53.2272 69.7901 54.5527 69.4879C54.1389 69.6798 53.7238 69.8177 53.3099 69.9268C52.5099 70.1475 51.6533 70.2842 50.8257 70.3394C50.5774 70.367 50.3278 70.367 50.1071 70.367C49.5002 70.3946 48.9208 70.3946 48.3402 70.367C47.5125 70.3394 46.6848 70.2842 45.8835 70.2566C47.2366 70.367 48.6173 70.5049 50.0243 70.5325C50.3002 70.5325 50.5774 70.5325 50.8533 70.5325C51.6809 70.5049 52.565 70.3946 53.3927 70.2027C54.1665 70.0096 54.9114 69.735 55.6287 69.35C53.7514 70.752 51.7085 72.0437 49.3898 72.5666C49.0863 72.6218 48.8104 72.677 48.5057 72.7045C47.678 72.8136 46.8779 72.7861 46.1042 72.6218C45.0006 72.4287 44.1165 71.9897 43.3165 71.4944ZM44.8903 73.5009L45.7731 73.1435C46.518 73.309 47.2642 73.3366 48.0367 73.2814C49.5553 73.171 51.074 72.677 52.4547 71.9897C53.8341 71.3025 55.0769 70.4222 56.3197 69.4879C54.6355 71.8794 51.7913 73.4469 48.838 73.9134C51.8741 73.556 54.9389 72.0173 56.7887 69.4603C56.8438 69.4603 56.899 69.4879 56.9818 69.4879C56.3748 71.2473 54.7734 72.4838 53.1168 73.3366C51.2671 74.2984 49.1139 74.8753 47.1538 74.5179C47.1262 74.5179 47.0987 74.5179 47.0711 74.4916C46.2421 74.326 45.4697 74.0238 44.8903 73.5009ZM40.0309 97.8319L57.2577 73.2814C58.2245 72.8412 59.1074 72.2092 59.7708 71.3025C60.0467 70.9175 60.2674 70.5049 60.4053 70.0648C61.0399 72.0713 61.3434 74.1881 61.2606 76.2786C61.1502 76.0303 60.9847 75.8108 60.7916 75.6453C60.0743 75.0408 58.997 75.0408 58.1418 75.1788C57.6163 75.2603 57.1197 75.3706 56.6507 75.5638C56.568 75.5901 56.6231 75.7005 56.6783 75.7005C57.368 75.728 57.9211 76.1958 58.3901 76.6084C58.6384 76.8278 58.8867 77.0197 59.1626 77.1577C59.4385 77.2956 59.7432 77.4047 60.0467 77.4875C60.4053 77.5702 60.764 77.5702 61.1502 77.5151C61.1502 77.5151 61.1778 77.5151 61.1778 77.4875C61.1226 78.038 61.0123 78.5873 60.9019 79.1365C60.764 79.7974 60.5709 80.4295 60.3226 81.0615C59.4936 79.7974 58.1694 78.8895 56.6783 78.5597C56.6783 78.5321 56.7059 78.5045 56.7059 78.4769C56.7059 78.3402 56.6507 78.2023 56.5955 78.0919C56.5404 78.0104 56.4852 77.9276 56.43 77.8725C56.2369 77.7082 55.9886 77.6254 55.739 77.6806C55.5459 77.7345 55.3804 77.8449 55.2424 77.9828C55.0769 78.1471 54.9665 78.3954 54.9941 78.6424C55.0217 78.8619 55.1321 79.0274 55.27 79.1917C55.4355 79.3573 55.6563 79.4676 55.877 79.4676C55.9334 79.4676 55.9886 79.4676 56.0438 79.4676C56.0989 79.4676 56.1541 79.4676 56.1817 79.44C56.2645 79.4124 56.3197 79.3848 56.3748 79.3297C57.8935 79.6319 59.2177 80.6213 59.9363 82.0234C59.4385 83.1507 58.8039 84.2229 58.0866 85.24C58.1694 84.8274 58.1142 84.3885 57.9211 84.0035C57.4508 83.068 56.3748 82.5463 55.4355 82.2165C54.8838 81.9958 54.3044 81.8591 53.7238 81.7487C53.641 81.7211 53.6134 81.8591 53.6686 81.9143C54.332 82.3532 54.6355 83.1232 54.9114 83.8104C55.0769 84.1678 55.2148 84.4976 55.4631 84.8011C55.6838 85.1033 55.961 85.3779 56.2645 85.5974C56.5955 85.8457 57.0094 86.0376 57.4232 86.1479C57.2025 86.4501 56.9542 86.7524 56.7059 87.027C55.739 88.182 54.7182 89.2818 53.6686 90.3816C53.8893 88.9795 53.779 87.4948 53.2824 86.1479C53.2272 86.0376 53.1996 85.8996 53.1444 85.8181C53.2272 85.7353 53.3099 85.6526 53.3651 85.5698C53.7238 85.0481 53.7238 84.2781 53.172 83.8655C52.6754 83.4806 52.012 83.6185 51.5982 84.0587C51.1567 84.4976 51.0188 85.24 51.405 85.7629C51.5706 85.9824 51.8189 86.1479 52.0948 86.2031C52.1775 86.2031 52.2616 86.2307 52.3443 86.2031C52.3719 86.2031 52.4271 86.2031 52.4271 86.2031C52.5099 86.3122 52.565 86.6144 52.5926 86.7248C53.0892 88.2647 53.0616 89.9138 52.565 91.4262C50.3554 92.7179 48.147 93.928 45.9387 95.1921C44.4476 96.0448 42.9841 96.9239 41.5219 97.8319H40.0309Z" fill="#A37B40"/>
</g>
</svg>
