<svg width="84" height="14" viewBox="0 0 84 14" fill="none" xmlns="http://www.w3.org/2000/svg">
<path d="M6.30247 1.21041L4.71532 4.42847L1.16427 4.94618C0.527469 5.03854 0.272261 5.82361 0.734066 6.27326L3.30316 8.77673L2.69552 12.3132C2.58615 12.9524 3.25941 13.4312 3.8233 13.1323L7.00004 11.4625L10.1768 13.1323C10.7407 13.4288 11.4139 12.9524 11.3046 12.3132L10.6969 8.77673L13.266 6.27326C13.7278 5.82361 13.4726 5.03854 12.8358 4.94618L9.28476 4.42847L7.69761 1.21041C7.41323 0.636802 6.58927 0.62951 6.30247 1.21041Z" fill="#B4853E"/>
<path d="M23.8025 1.21041L22.2153 4.42847L18.6643 4.94618C18.0275 5.03854 17.7723 5.82361 18.2341 6.27326L20.8032 8.77673L20.1955 12.3132C20.0861 12.9524 20.7594 13.4312 21.3233 13.1323L24.5 11.4625L27.6768 13.1323C28.2407 13.4288 28.9139 12.9524 28.8046 12.3132L28.1969 8.77673L30.766 6.27326C31.2278 5.82361 30.9726 5.03854 30.3358 4.94618L26.7848 4.42847L25.1976 1.21041C24.9132 0.636802 24.0893 0.62951 23.8025 1.21041Z" fill="#B4853E"/>
<path d="M41.3025 1.21041L39.7153 4.42847L36.1643 4.94618C35.5275 5.03854 35.2723 5.82361 35.7341 6.27326L38.3032 8.77673L37.6955 12.3132C37.5861 12.9524 38.2594 13.4312 38.8233 13.1323L42 11.4625L45.1768 13.1323C45.7407 13.4288 46.4139 12.9524 46.3046 12.3132L45.6969 8.77673L48.266 6.27326C48.7278 5.82361 48.4726 5.03854 47.8358 4.94618L44.2848 4.42847L42.6976 1.21041C42.4132 0.636802 41.5893 0.62951 41.3025 1.21041Z" fill="#B4853E"/>
<path d="M58.8025 1.21041L57.2153 4.42847L53.6643 4.94618C53.0275 5.03854 52.7723 5.82361 53.2341 6.27326L55.8032 8.77673L55.1955 12.3132C55.0861 12.9524 55.7594 13.4312 56.3233 13.1323L59.5 11.4625L62.6768 13.1323C63.2407 13.4288 63.9139 12.9524 63.8046 12.3132L63.1969 8.77673L65.766 6.27326C66.2278 5.82361 65.9726 5.03854 65.3358 4.94618L61.7848 4.42847L60.1976 1.21041C59.9132 0.636802 59.0893 0.62951 58.8025 1.21041Z" fill="#B4853E"/>
<path d="M83.2831 4.79322L79.46 4.23661L77.7516 0.778663C77.598 0.469671 77.2984 0.313477 76.9988 0.313477C76.701 0.313477 76.4035 0.467581 76.2494 0.778663L74.5405 4.23635L70.7171 4.79243C70.0315 4.89169 69.7567 5.73508 70.2537 6.21829L73.0195 8.90859L72.365 12.7084C72.272 13.2512 72.7053 13.6866 73.1906 13.6866C73.3194 13.6866 73.4518 13.6561 73.579 13.5887L76.9993 11.7948L80.4194 13.5892C80.5463 13.6558 80.6785 13.6861 80.8068 13.6861C81.2926 13.6861 81.7267 13.2522 81.6337 12.7092L80.9799 8.90911L83.7462 6.21934C84.2436 5.73613 83.9688 4.89247 83.2831 4.79322ZM80.1034 8.01113L79.6301 8.47135L79.7419 9.1212L80.2517 12.0844L77.5841 10.6847L76.9996 10.3781L77.0004 2.09325L78.3333 4.79113L78.6253 5.38221L79.2785 5.47728L82.2621 5.91165L80.1034 8.01113Z" fill="#B4853E"/>
</svg>
